IBM Plex Sans Condensed-Thin Italic.ufo
<glyph name="exclam" format="1">
  <advance width="224"/>
  <unicode hex="0021"/>
  <outline>
    <contour>
      <point x="101" y="176" type="line" name="hr00"/>
      <point x="155" y="415" type="line"/>
      <point x="211" y="698" type="line"/>
      <point x="189" y="698" type="line"/>
      <point x="132" y="415" type="line"/>
      <point x="89" y="176" type="line"/>
    </contour>
    <contour>
      <point x="61" y="-5" type="curve" smooth="yes"/>
      <point x="80" y="-5"/>
      <point x="87" y="6"/>
      <point x="90" y="17" type="curve" smooth="yes"/>
      <point x="91" y="21"/>
      <point x="93" y="30"/>
      <point x="93" y="34" type="curve" smooth="yes"/>
      <point x="93" y="43"/>
      <point x="87" y="53"/>
      <point x="71" y="53" type="curve" smooth="yes"/>
      <point x="52" y="53"/>
      <point x="45" y="42"/>
      <point x="42" y="31" type="curve" smooth="yes"/>
      <point x="41" y="27"/>
      <point x="39" y="18"/>
      <point x="39" y="14" type="curve" smooth="yes"/>
      <point x="39" y="5"/>
      <point x="45" y="-5"/>
    </contour>
  </outline>
</glyph>
<glyph name="numbersign" format="1">
  <advance width="639"/>
  <unicode hex="0023"/>
  <outline>
    <contour>
      <point x="279" y="0" type="line" name="hr00"/>
      <point x="300" y="0" type="line"/>
      <point x="378" y="220" type="line"/>
      <point x="516" y="220" type="line"/>
      <point x="520" y="239" type="line"/>
      <point x="385" y="239" type="line"/>
      <point x="462" y="459" type="line"/>
      <point x="598" y="459" type="line"/>
      <point x="602" y="478" type="line"/>
      <point x="470" y="478" type="line"/>
      <point x="548" y="698" type="line"/>
      <point x="527" y="698" type="line"/>
      <point x="450" y="478" type="line"/>
      <point x="283" y="478" type="line"/>
      <point x="362" y="698" type="line"/>
      <point x="341" y="698" type="line"/>
      <point x="263" y="478" type="line"/>
      <point x="125" y="478" type="line"/>
      <point x="121" y="459" type="line"/>
      <point x="256" y="459" type="line"/>
      <point x="179" y="239" type="line"/>
      <point x="43" y="239" type="line"/>
      <point x="39" y="220" type="line"/>
      <point x="171" y="220" type="line"/>
      <point x="93" y="0" type="line"/>
      <point x="114" y="0" type="line"/>
      <point x="191" y="220" type="line"/>
      <point x="358" y="220" type="line"/>
    </contour>
    <contour>
      <point x="199" y="239" type="line"/>
      <point x="276" y="459" type="line"/>
      <point x="442" y="459" type="line"/>
      <point x="365" y="239" type="line"/>
    </contour>
  </outline>
</glyph>
<glyph name="dollar" format="1">
  <advance width="485"/>
  <unicode hex="0024"/>
  <outline>
    <contour>
      <point x="165" y="-82" type="line" name="hr00"/>
      <point x="185" y="-82" type="line"/>
      <point x="202" y="0" type="line"/>
      <point x="212" y="0" type="line" smooth="yes"/>
      <point x="355" y="0"/>
      <point x="424" y="94"/>
      <point x="424" y="207" type="curve" smooth="yes"/>
      <point x="424" y="292"/>
      <point x="381" y="339"/>
      <point x="297" y="362" type="curve" smooth="yes"/>
      <point x="275" y="368" type="line"/>
      <point x="339" y="689" type="line"/>
      <point x="402" y="683"/>
      <point x="443" y="658"/>
      <point x="470" y="601" type="curve"/>
      <point x="488" y="612" type="line"/>
      <point x="461" y="667"/>
      <point x="418" y="701"/>
      <point x="343" y="708" type="curve"/>
      <point x="357" y="780" type="line"/>
      <point x="337" y="780" type="line"/>
      <point x="323" y="710" type="line"/>
      <point x="318" y="710"/>
      <point x="313" y="710"/>
      <point x="308" y="710" type="curve" smooth="yes"/>
      <point x="177" y="710"/>
      <point x="105" y="620"/>
      <point x="105" y="513" type="curve" smooth="yes"/>
      <point x="105" y="436"/>
      <point x="145" y="380"/>
      <point x="223" y="359" type="curve" smooth="yes"/>
      <point x="252" y="351" type="line"/>
      <point x="186" y="21" type="line"/>
      <point x="105" y="27"/>
      <point x="61" y="64"/>
      <point x="31" y="124" type="curve"/>
      <point x="13" y="111" type="line"/>
      <point x="44" y="49"/>
      <point x="96" y="8"/>
      <point x="182" y="1" type="curve"/>
    </contour>
    <contour>
      <point x="401" y="207" type="curve" smooth="yes"/>
      <point x="401" y="106"/>
      <point x="347" y="20"/>
      <point x="215" y="20" type="curve" smooth="yes"/>
      <point x="206" y="20" type="line"/>
      <point x="271" y="346" type="line"/>
      <point x="291" y="341" type="line" smooth="yes"/>
      <point x="367" y="322"/>
      <point x="401" y="280"/>
    </contour>
    <contour>
      <point x="127" y="513" type="curve" smooth="yes"/>
      <point x="127" y="608"/>
      <point x="187" y="690"/>
      <point x="306" y="690" type="curve" smooth="yes"/>
      <point x="319" y="690" type="line"/>
      <point x="256" y="372" type="line"/>
      <point x="230" y="379" type="line" smooth="yes"/>
      <point x="159" y="398"/>
      <point x="127" y="446"/>
    </contour>
  </outline>
</glyph>
<glyph name="percent" format="1">
  <advance width="796"/>
  <unicode hex="0025"/>
  <outline>
    <contour>
      <point x="148" y="0" type="line"/>
      <point x="708" y="698" type="line"/>
      <point x="685" y="698" type="line"/>
      <point x="125" y="0" type="line"/>
    </contour>
    <contour>
      <point x="219" y="344" type="curve" smooth="yes"/>
      <point x="157" y="344"/>
      <point x="133" y="392"/>
      <point x="133" y="460" type="curve" smooth="yes"/>
      <point x="133" y="476"/>
      <point x="134" y="493"/>
      <point x="137" y="509" type="curve" smooth="yes"/>
      <point x="143" y="542" type="line" smooth="yes"/>
      <point x="161" y="638"/>
      <point x="208" y="693"/>
      <point x="276" y="693" type="curve" smooth="yes" name="hr01"/>
      <point x="338" y="693"/>
      <point x="362" y="645"/>
      <point x="362" y="577" type="curve" smooth="yes"/>
      <point x="362" y="561"/>
      <point x="361" y="544"/>
      <point x="358" y="528" type="curve" smooth="yes"/>
      <point x="352" y="495" type="line" smooth="yes"/>
      <point x="334" y="399"/>
      <point x="287" y="344"/>
    </contour>
    <contour>
      <point x="217" y="327" type="curve" smooth="yes"/>
      <point x="306" y="327"/>
      <point x="352" y="407"/>
      <point x="371" y="491" type="curve" smooth="yes"/>
      <point x="378" y="521"/>
      <point x="381" y="551"/>
      <point x="381" y="578" type="curve" smooth="yes"/>
      <point x="381" y="656"/>
      <point x="346" y="710"/>
      <point x="278" y="710" type="curve" smooth="yes"/>
      <point x="189" y="710"/>
      <point x="143" y="630"/>
      <point x="124" y="546" type="curve" smooth="yes"/>
      <point x="117" y="516"/>
      <point x="114" y="486"/>
      <point x="114" y="459" type="curve" smooth="yes"/>
      <point x="114" y="381"/>
      <point x="149" y="327"/>
    </contour>
    <contour>
      <point x="555" y="5" type="curve" smooth="yes"/>
      <point x="493" y="5"/>
      <point x="469" y="53"/>
      <point x="469" y="121" type="curve" smooth="yes"/>
      <point x="469" y="137"/>
      <point x="470" y="154"/>
      <point x="473" y="170" type="curve" smooth="yes"/>
      <point x="479" y="203" type="line" smooth="yes"/>
      <point x="497" y="299"/>
      <point x="544" y="354"/>
      <point x="612" y="354" type="curve" smooth="yes"/>
      <point x="674" y="354"/>
      <point x="698" y="306"/>
      <point x="698" y="238" type="curve" smooth="yes"/>
      <point x="698" y="222"/>
      <point x="697" y="205"/>
      <point x="694" y="189" type="curve" smooth="yes"/>
      <point x="688" y="156" type="line" smooth="yes"/>
      <point x="670" y="60"/>
      <point x="623" y="5"/>
    </contour>
    <contour>
      <point x="553" y="-12" type="curve" smooth="yes"/>
      <point x="642" y="-12"/>
      <point x="688" y="68"/>
      <point x="707" y="152" type="curve" smooth="yes"/>
      <point x="714" y="182"/>
      <point x="717" y="212"/>
      <point x="717" y="239" type="curve" smooth="yes"/>
      <point x="717" y="317"/>
      <point x="682" y="371"/>
      <point x="614" y="371" type="curve" smooth="yes"/>
      <point x="525" y="371"/>
      <point x="479" y="291"/>
      <point x="460" y="207" type="curve" smooth="yes"/>
      <point x="453" y="177"/>
      <point x="450" y="147"/>
      <point x="450" y="120" type="curve" smooth="yes"/>
      <point x="450" y="42"/>
      <point x="485" y="-12"/>
    </contour>
  </outline>
</glyph>
<glyph name="ampersand" format="1">
  <advance width="610"/>
  <unicode hex="0026"/>
  <outline>
    <contour>
      <point x="498" y="0" type="line"/>
      <point x="524" y="0" type="line"/>
      <point x="431" y="132" type="line"/>
      <point x="464" y="187"/>
      <point x="489" y="260"/>
      <point x="505" y="331" type="curve"/>
      <point x="584" y="331" type="line"/>
      <point x="588" y="351" type="line"/>
      <point x="490" y="351" type="line"/>
      <point x="475" y="280"/>
      <point x="450" y="202"/>
      <point x="419" y="148" type="curve"/>
      <point x="267" y="368" type="line"/>
      <point x="425" y="462"/>
      <point x="486" y="505"/>
      <point x="486" y="593" type="curve" smooth="yes"/>
      <point x="486" y="661"/>
      <point x="442" y="710"/>
      <point x="359" y="710" type="curve" smooth="yes"/>
      <point x="248" y="710"/>
      <point x="181" y="626"/>
      <point x="181" y="524" type="curve" smooth="yes"/>
      <point x="181" y="490"/>
      <point x="192" y="443"/>
      <point x="237" y="374" type="curve"/>
      <point x="82" y="296"/>
      <point x="41" y="217"/>
      <point x="41" y="136" type="curve" smooth="yes"/>
      <point x="41" y="36"/>
      <point x="104" y="-12"/>
      <point x="200" y="-12" type="curve" smooth="yes" name="hr01"/>
      <point x="285" y="-12"/>
      <point x="366" y="39"/>
      <point x="418" y="111" type="curve" name="hr02"/>
      <point x="420" y="111" type="line"/>
    </contour>
    <contour>
      <point x="354" y="691" type="curve" smooth="yes"/>
      <point x="426" y="691"/>
      <point x="464" y="655"/>
      <point x="464" y="592" type="curve" smooth="yes"/>
      <point x="464" y="513"/>
      <point x="403" y="468"/>
      <point x="255" y="383" type="curve"/>
      <point x="211" y="451"/>
      <point x="203" y="494"/>
      <point x="203" y="524" type="curve" smooth="yes"/>
      <point x="203" y="533"/>
      <point x="205" y="547"/>
      <point x="209" y="569" type="curve" smooth="yes"/>
      <point x="222" y="642"/>
      <point x="278" y="691"/>
    </contour>
    <contour>
      <point x="204" y="8" type="curve" smooth="yes" name="hr03"/>
      <point x="117" y="8"/>
      <point x="63" y="46"/>
      <point x="63" y="133" type="curve" smooth="yes"/>
      <point x="63" y="143"/>
      <point x="63" y="151"/>
      <point x="65" y="162" type="curve" smooth="yes"/>
      <point x="79" y="240"/>
      <point x="117" y="292"/>
      <point x="249" y="359" type="curve"/>
      <point x="408" y="130" type="line"/>
      <point x="359" y="59"/>
      <point x="286" y="8"/>
    </contour>
  </outline>
</glyph>
<glyph name="quotesingle" format="1">
  <advance width="200"/>
  <unicode hex="0027"/>
  <outline>
    <contour>
      <point x="157" y="490" type="line" name="hr00"/>
      <point x="207" y="740" type="line"/>
      <point x="187" y="740" type="line"/>
      <point x="137" y="490" type="line"/>
    </contour>
  </outline>
</glyph>
<glyph name="parenleft" format="1">
  <advance width="298"/>
  <unicode hex="0028"/>
  <outline>
    <contour>
      <point x="94" y="222" type="curve" smooth="yes" name="hr00"/>
      <point x="94" y="60"/>
      <point x="132" y="-54"/>
      <point x="193" y="-138" type="curve"/>
      <point x="213" y="-138" type="line"/>
      <point x="143" y="-40"/>
      <point x="113" y="81"/>
      <point x="113" y="222" type="curve" smooth="yes"/>
      <point x="113" y="247"/>
      <point x="116" y="274"/>
      <point x="120" y="301" type="curve" smooth="yes"/>
      <point x="128" y="353" type="line" smooth="yes"/>
      <point x="154" y="522"/>
      <point x="254" y="673"/>
      <point x="368" y="760" type="curve"/>
      <point x="342" y="760" type="line"/>
      <point x="207" y="657"/>
      <point x="94" y="453"/>
    </contour>
  </outline>
</glyph>
<glyph name="parenright" format="1">
  <advance width="298"/>
  <unicode hex="0029"/>
  <outline>
    <contour>
      <point x="221" y="400" type="curve" smooth="yes" name="hr00"/>
      <point x="221" y="562"/>
      <point x="183" y="676"/>
      <point x="122" y="760" type="curve"/>
      <point x="102" y="760" type="line"/>
      <point x="172" y="662"/>
      <point x="202" y="541"/>
      <point x="202" y="400" type="curve" smooth="yes"/>
      <point x="202" y="375"/>
      <point x="199" y="348"/>
      <point x="195" y="321" type="curve" smooth="yes"/>
      <point x="187" y="269" type="line" smooth="yes"/>
      <point x="161" y="100"/>
      <point x="61" y="-51"/>
      <point x="-53" y="-138" type="curve"/>
      <point x="-27" y="-138" type="line"/>
      <point x="108" y="-35"/>
      <point x="221" y="169"/>
    </contour>
  </outline>
</glyph>
<glyph name="asterisk" format="1">
  <advance width="331"/>
  <unicode hex="002A"/>
  <outline>
    <contour>
      <point x="225" y="564" type="line" name="hr00"/>
      <point x="227" y="564" type="line"/>
      <point x="285" y="436" type="line"/>
      <point x="301" y="446" type="line"/>
      <point x="241" y="572" type="line"/>
      <point x="242" y="574" type="line"/>
      <point x="384" y="621" type="line"/>
      <point x="379" y="640" type="line"/>
      <point x="240" y="589" type="line"/>
      <point x="239" y="590" type="line"/>
      <point x="269" y="747" type="line"/>
      <point x="249" y="747" type="line"/>
      <point x="222" y="591" type="line"/>
      <point x="221" y="590" type="line"/>
      <point x="97" y="640" type="line"/>
      <point x="89" y="621" type="line"/>
      <point x="212" y="577" type="line"/>
      <point x="213" y="575" type="line"/>
      <point x="103" y="447" type="line"/>
      <point x="117" y="436" type="line"/>
    </contour>
  </outline>
</glyph>
<glyph name="plus" format="1">
  <advance width="540"/>
  <unicode hex="002B"/>
  <outline>
    <contour>
      <point x="246" y="84" type="line" name="hr00"/>
      <point x="289" y="296" type="line"/>
      <point x="493" y="296" type="line"/>
      <point x="497" y="315" type="line"/>
      <point x="293" y="315" type="line"/>
      <point x="336" y="527" type="line"/>
      <point x="315" y="527" type="line"/>
      <point x="272" y="315" type="line"/>
      <point x="68" y="315" type="line"/>
      <point x="64" y="296" type="line"/>
      <point x="268" y="296" type="line"/>
      <point x="225" y="84" type="line"/>
    </contour>
  </outline>
</glyph>
<glyph name="comma" format="1">
  <advance width="218"/>
  <unicode hex="002C"/>
  <outline>
    <contour>
      <point x="67" y="53" type="curve" smooth="yes" name="hr00"/>
      <point x="49" y="53"/>
      <point x="42" y="43"/>
      <point x="39" y="32" type="curve" smooth="yes"/>
      <point x="37" y="25"/>
      <point x="36" y="19"/>
      <point x="36" y="14" type="curve" smooth="yes"/>
      <point x="36" y="5"/>
      <point x="41" y="-5"/>
      <point x="61" y="-5" type="curve"/>
      <point x="49" y="-44"/>
      <point x="21" y="-98"/>
      <point x="-33" y="-147" type="curve"/>
      <point x="-13" y="-147" type="line"/>
      <point x="34" y="-108"/>
      <point x="74" y="-38"/>
      <point x="87" y="15" type="curve" smooth="yes"/>
      <point x="88" y="19"/>
      <point x="90" y="29"/>
      <point x="90" y="34" type="curve" smooth="yes"/>
      <point x="90" y="43"/>
      <point x="83" y="53"/>
    </contour>
  </outline>
</glyph>
<glyph name="hyphen" format="1">
  <advance width="350"/>
  <unicode hex="002D"/>
  <outline>
    <contour>
      <point x="287" y="295" type="line" name="hr00"/>
      <point x="290" y="315" type="line"/>
      <point x="84" y="315" type="line"/>
      <point x="80" y="295" type="line"/>
    </contour>
  </outline>
</glyph>
<glyph name="period" format="1">
  <advance width="218"/>
  <unicode hex="002E"/>
  <outline>
    <contour>
      <point x="58" y="-5" type="curve" smooth="yes" name="hr00"/>
      <point x="77" y="-5"/>
      <point x="84" y="6"/>
      <point x="87" y="17" type="curve" smooth="yes"/>
      <point x="88" y="21"/>
      <point x="90" y="30"/>
      <point x="90" y="34" type="curve" smooth="yes"/>
      <point x="90" y="43"/>
      <point x="84" y="53"/>
      <point x="68" y="53" type="curve" smooth="yes"/>
      <point x="49" y="53"/>
      <point x="42" y="42"/>
      <point x="39" y="31" type="curve" smooth="yes"/>
      <point x="38" y="27"/>
      <point x="36" y="18"/>
      <point x="36" y="14" type="curve" smooth="yes"/>
      <point x="36" y="5"/>
      <point x="42" y="-5"/>
    </contour>
  </outline>
</glyph>
<glyph name="slash" format="1">
  <advance width="275"/>
  <unicode hex="002F"/>
  <outline>
    <contour>
      <point x="-57" y="-151" type="line" name="hr00"/>
      <point x="344" y="740" type="line"/>
      <point x="324" y="740" type="line"/>
      <point x="-77" y="-151" type="line"/>
    </contour>
  </outline>
</glyph>
<glyph name="zero" format="1">
  <advance width="540"/>
  <unicode hex="0030"/>
  <outline>
    <contour>
      <point x="235" y="-12" type="curve" smooth="yes" name="hr00"/>
      <point x="378" y="-12"/>
      <point x="459" y="139"/>
      <point x="491" y="302" type="curve" smooth="yes"/>
      <point x="503" y="361"/>
      <point x="508" y="421"/>
      <point x="508" y="476" type="curve" smooth="yes"/>
      <point x="508" y="632"/>
      <point x="456" y="710"/>
      <point x="342" y="710" type="curve" smooth="yes"/>
      <point x="199" y="710"/>
      <point x="118" y="559"/>
      <point x="86" y="396" type="curve" smooth="yes"/>
      <point x="74" y="337"/>
      <point x="69" y="277"/>
      <point x="69" y="222" type="curve" smooth="yes"/>
      <point x="69" y="66"/>
      <point x="121" y="-12"/>
    </contour>
    <contour>
      <point x="235" y="8" type="curve" smooth="yes"/>
      <point x="128" y="8"/>
      <point x="90" y="87"/>
      <point x="90" y="222" type="curve" smooth="yes"/>
      <point x="90" y="256"/>
      <point x="93" y="294"/>
      <point x="100" y="334" type="curve" smooth="yes"/>
      <point x="110" y="393" type="line" smooth="yes"/>
      <point x="140" y="572"/>
      <point x="224" y="690"/>
      <point x="342" y="690" type="curve" smooth="yes"/>
      <point x="449" y="690"/>
      <point x="487" y="611"/>
      <point x="487" y="476" type="curve" smooth="yes"/>
      <point x="487" y="442"/>
      <point x="484" y="404"/>
      <point x="477" y="364" type="curve" smooth="yes"/>
      <point x="467" y="305" type="line" smooth="yes"/>
      <point x="437" y="126"/>
      <point x="353" y="8"/>
    </contour>
  </outline>
</glyph>
<glyph name="one" format="1">
  <advance width="540"/>
  <unicode hex="0031"/>
  <outline>
    <contour>
      <point x="444" y="0" type="line" name=""/>
      <point x="448" y="20" type="line"/>
      <point x="259" y="20" type="line"/>
      <point x="395" y="698" type="line"/>
      <point x="357" y="698" type="line"/>
      <point x="131" y="536" type="line"/>
      <point x="142" y="520" type="line"/>
      <point x="367" y="682" type="line"/>
      <point x="370" y="682" type="line"/>
      <point x="237" y="20" type="line"/>
      <point x="41" y="20" type="line"/>
      <point x="37" y="0" type="line"/>
    </contour>
  </outline>
</glyph>
<glyph name="two" format="1">
  <advance width="540"/>
  <unicode hex="0032"/>
  <outline>
    <contour>
      <point x="418" y="20" type="line" name="hr00"/>
      <point x="55" y="20" type="line"/>
      <point x="343" y="289" type="line" smooth="yes"/>
      <point x="440" y="380"/>
      <point x="487" y="459"/>
      <point x="487" y="556" type="curve" smooth="yes"/>
      <point x="487" y="643"/>
      <point x="439" y="710"/>
      <point x="333" y="710" type="curve" smooth="yes"/>
      <point x="238" y="710"/>
      <point x="171" y="662"/>
      <point x="133" y="557" type="curve"/>
      <point x="152" y="551" type="line"/>
      <point x="189" y="649"/>
      <point x="245" y="690"/>
      <point x="330" y="690" type="curve" smooth="yes"/>
      <point x="426" y="690"/>
      <point x="465" y="634"/>
      <point x="465" y="556" type="curve" smooth="yes"/>
      <point x="465" y="545"/>
      <point x="465" y="531"/>
      <point x="456" y="490" type="curve" smooth="yes"/>
      <point x="442" y="426"/>
      <point x="394" y="364"/>
      <point x="328" y="302" type="curve" smooth="yes"/>
      <point x="29" y="24" type="line"/>
      <point x="24" y="0" type="line"/>
      <point x="414" y="0" type="line"/>
    </contour>
  </outline>
</glyph>
<glyph name="three" format="1">
  <advance width="540"/>
  <unicode hex="0033"/>
  <outline>
    <contour>
      <point x="192" y="376" type="line" name="hr00"/>
      <point x="188" y="356" type="line"/>
      <point x="272" y="356" type="line" smooth="yes"/>
      <point x="366" y="356"/>
      <point x="409" y="300"/>
      <point x="409" y="217" type="curve" smooth="yes"/>
      <point x="409" y="208"/>
      <point x="408" y="196"/>
      <point x="402" y="161" type="curve" smooth="yes"/>
      <point x="386" y="66"/>
      <point x="319" y="8"/>
      <point x="216" y="8" type="curve" smooth="yes"/>
      <point x="122" y="8"/>
      <point x="76" y="35"/>
      <point x="49" y="105" type="curve"/>
      <point x="32" y="95" type="line"/>
      <point x="58" y="21"/>
      <point x="118" y="-12"/>
      <point x="215" y="-12" type="curve" smooth="yes"/>
      <point x="344" y="-12"/>
      <point x="431" y="74"/>
      <point x="431" y="217" type="curve" smooth="yes"/>
      <point x="431" y="294"/>
      <point x="390" y="353"/>
      <point x="326" y="363" type="curve"/>
      <point x="327" y="366" type="line"/>
      <point x="417" y="382"/>
      <point x="480" y="455"/>
      <point x="480" y="564" type="curve" smooth="yes"/>
      <point x="480" y="656"/>
      <point x="416" y="710"/>
      <point x="326" y="710" type="curve" smooth="yes"/>
      <point x="233" y="710"/>
      <point x="175" y="669"/>
      <point x="139" y="599" type="curve"/>
      <point x="156" y="590" type="line"/>
      <point x="194" y="659"/>
      <point x="243" y="690"/>
      <point x="323" y="690" type="curve" smooth="yes"/>
      <point x="408" y="690"/>
      <point x="458" y="642"/>
      <point x="458" y="562" type="curve" smooth="yes"/>
      <point x="458" y="551"/>
      <point x="457" y="543"/>
      <point x="452" y="516" type="curve" smooth="yes"/>
      <point x="436" y="425"/>
      <point x="369" y="376"/>
      <point x="275" y="376" type="curve" smooth="yes"/>
    </contour>
  </outline>
</glyph>
<glyph name="four" format="1">
  <advance width="540"/>
  <unicode hex="0034"/>
  <outline>
    <contour>
      <point x="338" y="0" type="line" name="hr00"/>
      <point x="369" y="160" type="line"/>
      <point x="472" y="160" type="line"/>
      <point x="476" y="179" type="line"/>
      <point x="373" y="179" type="line"/>
      <point x="476" y="698" type="line"/>
      <point x="444" y="698" type="line"/>
      <point x="25" y="181" type="line"/>
      <point x="20" y="160" type="line"/>
      <point x="348" y="160" type="line"/>
      <point x="317" y="0" type="line"/>
    </contour>
    <contour>
      <point x="446" y="670" type="line"/>
      <point x="450" y="670" type="line"/>
      <point x="352" y="179" type="line"/>
      <point x="48" y="179" type="line"/>
    </contour>
  </outline>
</glyph>
<glyph name="five" format="1">
  <advance width="540"/>
  <unicode hex="0035"/>
  <outline>
    <contour>
      <point x="524" y="698" type="line" name="hr00"/>
      <point x="215" y="698" type="line"/>
      <point x="119" y="326" type="line"/>
      <point x="142" y="323" type="line"/>
      <point x="188" y="370"/>
      <point x="225" y="393"/>
      <point x="297" y="393" type="curve" smooth="yes"/>
      <point x="391" y="393"/>
      <point x="432" y="339"/>
      <point x="432" y="244" type="curve" smooth="yes"/>
      <point x="432" y="233"/>
      <point x="432" y="218"/>
      <point x="425" y="180" type="curve" smooth="yes"/>
      <point x="407" y="75"/>
      <point x="343" y="8"/>
      <point x="230" y="8" type="curve" smooth="yes"/>
      <point x="158" y="8"/>
      <point x="95" y="33"/>
      <point x="68" y="105" type="curve"/>
      <point x="51" y="95" type="line"/>
      <point x="77" y="21"/>
      <point x="149" y="-12"/>
      <point x="230" y="-12" type="curve" smooth="yes"/>
      <point x="362" y="-12"/>
      <point x="454" y="82"/>
      <point x="454" y="244" type="curve" smooth="yes"/>
      <point x="454" y="350"/>
      <point x="400" y="413"/>
      <point x="299" y="413" type="curve" smooth="yes"/>
      <point x="235" y="413"/>
      <point x="189" y="393"/>
      <point x="148" y="343" type="curve"/>
      <point x="145" y="344" type="line"/>
      <point x="231" y="678" type="line"/>
      <point x="521" y="678" type="line"/>
    </contour>
  </outline>
</glyph>
<glyph name="six" format="1">
  <advance width="540"/>
  <unicode hex="0036"/>
  <outline>
    <contour>
      <point x="236" y="-12" type="curve" smooth="yes" name="hr00"/>
      <point x="350" y="-12"/>
      <point x="434" y="66"/>
      <point x="458" y="178" type="curve" smooth="yes"/>
      <point x="463" y="199"/>
      <point x="465" y="222"/>
      <point x="465" y="245" type="curve" smooth="yes"/>
      <point x="465" y="351"/>
      <point x="404" y="416"/>
      <point x="305" y="416" type="curve" smooth="yes"/>
      <point x="229" y="416"/>
      <point x="156" y="387"/>
      <point x="115" y="302" type="curve"/>
      <point x="112" y="303" type="line"/>
      <point x="168" y="469"/>
      <point x="271" y="585"/>
      <point x="453" y="698" type="curve"/>
      <point x="420" y="698" type="line"/>
      <point x="256" y="601"/>
      <point x="118" y="444"/>
      <point x="83" y="267" type="curve" smooth="yes"/>
      <point x="77" y="237"/>
      <point x="73" y="204"/>
      <point x="73" y="172" type="curve" smooth="yes"/>
      <point x="73" y="64"/>
      <point x="123" y="-12"/>
    </contour>
    <contour>
      <point x="236" y="8" type="curve" smooth="yes"/>
      <point x="140" y="8"/>
      <point x="94" y="71"/>
      <point x="94" y="159" type="curve" smooth="yes"/>
      <point x="94" y="169"/>
      <point x="96" y="184"/>
      <point x="102" y="221" type="curve" smooth="yes"/>
      <point x="118" y="321"/>
      <point x="193" y="396"/>
      <point x="301" y="396" type="curve" smooth="yes"/>
      <point x="397" y="396"/>
      <point x="443" y="333"/>
      <point x="443" y="245" type="curve" smooth="yes"/>
      <point x="443" y="235"/>
      <point x="441" y="220"/>
      <point x="435" y="183" type="curve" smooth="yes"/>
      <point x="419" y="83"/>
      <point x="344" y="8"/>
    </contour>
  </outline>
</glyph>
<glyph name="seven" format="1">
  <advance width="540"/>
  <unicode hex="0037"/>
  <outline>
    <contour>
      <point x="148" y="0" type="line" name="hr00"/>
      <point x="550" y="678" type="line"/>
      <point x="554" y="698" type="line"/>
      <point x="163" y="698" type="line"/>
      <point x="126" y="512" type="line"/>
      <point x="147" y="512" type="line"/>
      <point x="180" y="678" type="line"/>
      <point x="526" y="678" type="line"/>
      <point x="124" y="0" type="line"/>
    </contour>
  </outline>
</glyph>
<glyph name="eight" format="1">
  <advance width="540"/>
  <unicode hex="0038"/>
  <outline>
    <contour>
      <point x="224" y="-12" type="curve" smooth="yes" name="hr00"/>
      <point x="359" y="-12"/>
      <point x="458" y="78"/>
      <point x="458" y="209" type="curve" smooth="yes"/>
      <point x="458" y="290"/>
      <point x="425" y="341"/>
      <point x="354" y="362" type="curve"/>
      <point x="355" y="366" type="line"/>
      <point x="442" y="384"/>
      <point x="506" y="459"/>
      <point x="506" y="561" type="curve" smooth="yes"/>
      <point x="506" y="650"/>
      <point x="447" y="710"/>
      <point x="345" y="710" type="curve" smooth="yes"/>
      <point x="224" y="710"/>
      <point x="132" y="629"/>
      <point x="132" y="506" type="curve" smooth="yes"/>
      <point x="132" y="436"/>
      <point x="169" y="388"/>
      <point x="221" y="371" type="curve"/>
      <point x="221" y="367" type="line"/>
      <point x="120" y="349"/>
      <point x="44" y="266"/>
      <point x="44" y="154" type="curve" smooth="yes"/>
      <point x="44" y="52"/>
      <point x="111" y="-12"/>
    </contour>
    <contour>
      <point x="225" y="8" type="curve" smooth="yes"/>
      <point x="120" y="8"/>
      <point x="66" y="63"/>
      <point x="66" y="151" type="curve" smooth="yes"/>
      <point x="66" y="160"/>
      <point x="66" y="170"/>
      <point x="71" y="201" type="curve" smooth="yes"/>
      <point x="86" y="294"/>
      <point x="174" y="356"/>
      <point x="277" y="356" type="curve" smooth="yes"/>
      <point x="382" y="356"/>
      <point x="436" y="302"/>
      <point x="436" y="213" type="curve" smooth="yes"/>
      <point x="436" y="204"/>
      <point x="436" y="194"/>
      <point x="431" y="163" type="curve" smooth="yes"/>
      <point x="416" y="70"/>
      <point x="328" y="8"/>
    </contour>
    <contour>
      <point x="294" y="376" type="curve" smooth="yes"/>
      <point x="202" y="376"/>
      <point x="154" y="424"/>
      <point x="154" y="503" type="curve" smooth="yes"/>
      <point x="154" y="511"/>
      <point x="154" y="521"/>
      <point x="159" y="550" type="curve" smooth="yes"/>
      <point x="174" y="637"/>
      <point x="244" y="690"/>
      <point x="344" y="690" type="curve" smooth="yes"/>
      <point x="436" y="690"/>
      <point x="484" y="642"/>
      <point x="484" y="563" type="curve" smooth="yes"/>
      <point x="484" y="555"/>
      <point x="484" y="545"/>
      <point x="479" y="516" type="curve" smooth="yes"/>
      <point x="464" y="429"/>
      <point x="394" y="376"/>
    </contour>
  </outline>
</glyph>
<glyph name="nine" format="1">
  <advance width="540"/>
  <unicode hex="0039"/>
  <outline>
    <contour>
      <point x="265" y="282" type="curve" smooth="yes" name="hr00"/>
      <point x="341" y="282"/>
      <point x="414" y="311"/>
      <point x="455" y="396" type="curve"/>
      <point x="458" y="395" type="line"/>
      <point x="402" y="229"/>
      <point x="299" y="113"/>
      <point x="117" y="0" type="curve"/>
      <point x="150" y="0" type="line"/>
      <point x="314" y="97"/>
      <point x="452" y="254"/>
      <point x="487" y="431" type="curve" smooth="yes"/>
      <point x="493" y="461"/>
      <point x="497" y="494"/>
      <point x="497" y="526" type="curve" smooth="yes"/>
      <point x="497" y="634"/>
      <point x="447" y="710"/>
      <point x="334" y="710" type="curve" smooth="yes"/>
      <point x="221" y="710"/>
      <point x="138" y="634"/>
      <point x="113" y="524" type="curve" smooth="yes"/>
      <point x="108" y="502"/>
      <point x="105" y="478"/>
      <point x="105" y="453" type="curve" smooth="yes"/>
      <point x="105" y="347"/>
      <point x="166" y="282"/>
    </contour>
    <contour>
      <point x="269" y="302" type="curve" smooth="yes"/>
      <point x="173" y="302"/>
      <point x="127" y="365"/>
      <point x="127" y="453" type="curve" smooth="yes"/>
      <point x="127" y="463"/>
      <point x="129" y="478"/>
      <point x="135" y="515" type="curve" smooth="yes"/>
      <point x="151" y="615"/>
      <point x="226" y="690"/>
      <point x="334" y="690" type="curve" smooth="yes"/>
      <point x="430" y="690"/>
      <point x="476" y="627"/>
      <point x="476" y="539" type="curve" smooth="yes"/>
      <point x="476" y="529"/>
      <point x="474" y="514"/>
      <point x="468" y="477" type="curve" smooth="yes"/>
      <point x="452" y="377"/>
      <point x="377" y="302"/>
    </contour>
  </outline>
</glyph>
<glyph name="less" format="1">
  <advance width="540"/>
  <unicode hex="003C"/>
  <outline>
    <contour>
      <point x="428" y="38" type="line" name="hr00"/>
      <point x="432" y="59" type="line"/>
      <point x="118" y="302" type="line"/>
      <point x="118" y="304" type="line"/>
      <point x="530" y="547" type="line"/>
      <point x="535" y="572" type="line"/>
      <point x="97" y="314" type="line"/>
      <point x="93" y="296" type="line"/>
    </contour>
  </outline>
</glyph>
<glyph name="equal" format="1">
  <advance width="540"/>
  <unicode hex="003D"/>
  <outline>
    <contour>
      <point x="501" y="385" type="line" name="hr00"/>
      <point x="505" y="404" type="line"/>
      <point x="76" y="404" type="line"/>
      <point x="72" y="385" type="line"/>
    </contour>
    <contour>
      <point x="467" y="207" type="line"/>
      <point x="471" y="226" type="line"/>
      <point x="42" y="226" type="line"/>
      <point x="38" y="207" type="line"/>
    </contour>
  </outline>
</glyph>
<glyph name="greater" format="1">
  <advance width="540"/>
  <unicode hex="003E"/>
  <outline>
    <contour>
      <point x="31" y="38" type="line" name="hr00"/>
      <point x="469" y="296" type="line"/>
      <point x="473" y="314" type="line"/>
      <point x="138" y="572" type="line"/>
      <point x="134" y="551" type="line"/>
      <point x="448" y="308" type="line"/>
      <point x="448" y="306" type="line"/>
      <point x="36" y="63" type="line"/>
    </contour>
  </outline>
</glyph>
<glyph name="question" format="1">
  <advance width="409"/>
  <unicode hex="003F"/>
  <outline>
    <contour>
      <point x="180" y="176" type="line" name="hr00"/>
      <point x="210" y="331" type="line"/>
      <point x="356" y="346"/>
      <point x="427" y="430"/>
      <point x="427" y="559" type="curve" smooth="yes"/>
      <point x="427" y="650"/>
      <point x="372" y="710"/>
      <point x="278" y="710" type="curve" smooth="yes"/>
      <point x="180" y="710"/>
      <point x="121" y="651"/>
      <point x="86" y="560" type="curve"/>
      <point x="105" y="554" type="line"/>
      <point x="139" y="639"/>
      <point x="189" y="691"/>
      <point x="277" y="691" type="curve" smooth="yes"/>
      <point x="362" y="691"/>
      <point x="405" y="641"/>
      <point x="405" y="559" type="curve" smooth="yes"/>
      <point x="405" y="550"/>
      <point x="402" y="527"/>
      <point x="400" y="513" type="curve" smooth="yes"/>
      <point x="386" y="411"/>
      <point x="320" y="360"/>
      <point x="192" y="349" type="curve"/>
      <point x="158" y="176" type="line"/>
    </contour>
    <contour>
      <point x="133" y="-5" type="curve" smooth="yes"/>
      <point x="152" y="-5"/>
      <point x="159" y="6"/>
      <point x="162" y="17" type="curve" smooth="yes"/>
      <point x="163" y="21"/>
      <point x="165" y="30"/>
      <point x="165" y="34" type="curve" smooth="yes"/>
      <point x="165" y="43"/>
      <point x="159" y="53"/>
      <point x="143" y="53" type="curve" smooth="yes"/>
      <point x="124" y="53"/>
      <point x="117" y="42"/>
      <point x="114" y="31" type="curve" smooth="yes"/>
      <point x="113" y="27"/>
      <point x="111" y="18"/>
      <point x="111" y="14" type="curve" smooth="yes"/>
      <point x="111" y="5"/>
      <point x="117" y="-5"/>
    </contour>
  </outline>
</glyph>
<glyph name="at" format="1">
  <advance width="792"/>
  <unicode hex="0040"/>
  <outline>
    <contour>
      <point x="531" y="-121" type="line" name="hr00"/>
      <point x="534" y="-103" type="line"/>
      <point x="331" y="-103" type="line" smooth="yes"/>
      <point x="173" y="-103"/>
      <point x="76" y="12"/>
      <point x="76" y="194" type="curve" smooth="yes"/>
      <point x="76" y="226"/>
      <point x="79" y="256"/>
      <point x="87" y="292" type="curve" smooth="yes"/>
      <point x="98" y="344" type="line" smooth="yes"/>
      <point x="141" y="546"/>
      <point x="270" y="692"/>
      <point x="467" y="692" type="curve" smooth="yes"/>
      <point x="642" y="692"/>
      <point x="732" y="588"/>
      <point x="732" y="404" type="curve" smooth="yes"/>
      <point x="732" y="374"/>
      <point x="729" y="358"/>
      <point x="724" y="332" type="curve" smooth="yes"/>
      <point x="715" y="285" type="line" smooth="yes"/>
      <point x="691" y="159"/>
      <point x="636" y="87"/>
      <point x="565" y="87" type="curve" smooth="yes"/>
      <point x="528" y="87"/>
      <point x="513" y="106"/>
      <point x="513" y="139" type="curve" smooth="yes"/>
      <point x="513" y="148"/>
      <point x="514" y="155"/>
      <point x="517" y="172" type="curve" smooth="yes"/>
      <point x="581" y="496" type="line"/>
      <point x="561" y="496" type="line"/>
      <point x="547" y="426" type="line"/>
      <point x="545" y="426" type="line"/>
      <point x="537" y="468"/>
      <point x="496" y="508"/>
      <point x="439" y="508" type="curve" smooth="yes"/>
      <point x="339" y="508"/>
      <point x="264" y="439"/>
      <point x="240" y="292" type="curve" smooth="yes"/>
      <point x="235" y="261"/>
      <point x="232" y="233"/>
      <point x="232" y="210" type="curve" smooth="yes"/>
      <point x="232" y="123"/>
      <point x="278" y="69"/>
      <point x="360" y="69" type="curve" smooth="yes"/>
      <point x="423" y="69"/>
      <point x="465" y="107"/>
      <point x="491" y="150" type="curve"/>
      <point x="493" y="150" type="line"/>
      <point x="493" y="138" type="line" smooth="yes"/>
      <point x="493" y="93"/>
      <point x="520" y="69"/>
      <point x="561" y="69" type="curve" smooth="yes"/>
      <point x="661" y="69"/>
      <point x="716" y="173"/>
      <point x="741" y="310" type="curve" smooth="yes"/>
      <point x="747" y="344"/>
      <point x="752" y="375"/>
      <point x="752" y="404" type="curve" smooth="yes"/>
      <point x="752" y="604"/>
      <point x="649" y="710"/>
      <point x="471" y="710" type="curve" smooth="yes"/>
      <point x="253" y="710"/>
      <point x="119" y="558"/>
      <point x="70" y="318" type="curve" smooth="yes"/>
      <point x="61" y="274"/>
      <point x="57" y="232"/>
      <point x="57" y="194" type="curve" smooth="yes"/>
      <point x="57" y="-2"/>
      <point x="158" y="-121"/>
      <point x="329" y="-121" type="curve" smooth="yes"/>
    </contour>
    <contour>
      <point x="365" y="87" type="curve" smooth="yes"/>
      <point x="290" y="87"/>
      <point x="253" y="134"/>
      <point x="253" y="210" type="curve" smooth="yes"/>
      <point x="253" y="229"/>
      <point x="255" y="247"/>
      <point x="259" y="271" type="curve" smooth="yes"/>
      <point x="266" y="309" type="line" smooth="yes"/>
      <point x="287" y="424"/>
      <point x="349" y="490"/>
      <point x="436" y="490" type="curve" smooth="yes"/>
      <point x="503" y="490"/>
      <point x="549" y="438"/>
      <point x="534" y="362" type="curve" smooth="yes"/>
      <point x="509" y="237" type="line" smooth="yes"/>
      <point x="490" y="141"/>
      <point x="429" y="87"/>
    </contour>
  </outline>
</glyph>
<glyph name="A" format="1">
  <advance width="537"/>
  <unicode hex="0041"/>
  <outline>
    <contour>
      <point x="462" y="0" type="line" name="hr00"/>
      <point x="356" y="698" type="line"/>
      <point x="326" y="698" type="line"/>
      <point x="-17" y="0" type="line"/>
      <point x="7" y="0" type="line"/>
      <point x="121" y="234" type="line"/>
      <point x="405" y="234" type="line"/>
      <point x="440" y="0" type="line"/>
    </contour>
    <contour>
      <point x="402" y="253" type="line"/>
      <point x="131" y="253" type="line"/>
      <point x="277" y="552" type="line"/>
      <point x="336" y="673" type="line"/>
      <point x="339" y="673" type="line"/>
      <point x="357" y="552" type="line"/>
    </contour>
    <contour>
      <point x="221" y="0" type="move" name="bottom"/>
    </contour>
    <contour>
      <point x="462" y="0" type="move" name="bottomright"/>
    </contour>
    <contour>
      <point x="341" y="698" type="move" name="top"/>
    </contour>
  </outline>
</glyph>
<glyph name="B" format="1">
  <advance width="549"/>
  <unicode hex="0042"/>
  <outline>
    <contour>
      <point x="44" y="0" type="line" name="hr00"/>
      <point x="282" y="0" type="line" smooth="yes"/>
      <point x="403" y="0"/>
      <point x="479" y="83"/>
      <point x="479" y="225" type="curve" smooth="yes"/>
      <point x="479" y="293"/>
      <point x="450" y="349"/>
      <point x="387" y="365" type="curve"/>
      <point x="388" y="371" type="line"/>
      <point x="482" y="388"/>
      <point x="516" y="479"/>
      <point x="516" y="562" type="curve" smooth="yes"/>
      <point x="516" y="650"/>
      <point x="470" y="698"/>
      <point x="383" y="698" type="curve" smooth="yes"/>
      <point x="184" y="698" type="line"/>
    </contour>
    <contour>
      <point x="70" y="20" type="line"/>
      <point x="138" y="358" type="line"/>
      <point x="342" y="358" type="line" smooth="yes"/>
      <point x="424" y="358"/>
      <point x="457" y="297"/>
      <point x="457" y="225" type="curve" smooth="yes"/>
      <point x="457" y="214"/>
      <point x="455" y="193"/>
      <point x="448" y="156" type="curve" smooth="yes"/>
      <point x="433" y="77"/>
      <point x="379" y="20"/>
      <point x="284" y="20" type="curve" smooth="yes"/>
    </contour>
    <contour>
      <point x="142" y="378" type="line"/>
      <point x="202" y="678" type="line"/>
      <point x="381" y="678" type="line" smooth="yes"/>
      <point x="463" y="678"/>
      <point x="494" y="633"/>
      <point x="494" y="562" type="curve" smooth="yes"/>
      <point x="494" y="552"/>
      <point x="493" y="538"/>
      <point x="487" y="503" type="curve" smooth="yes"/>
      <point x="473" y="424"/>
      <point x="418" y="378"/>
      <point x="333" y="378" type="curve" smooth="yes"/>
    </contour>
    <contour>
      <point x="195" y="0" type="move" name="bottom"/>
    </contour>
    <contour>
      <point x="330" y="698" type="move" name="top"/>
    </contour>
  </outline>
</glyph>
<glyph name="C" format="1">
  <advance width="537"/>
  <unicode hex="0043"/>
  <outline>
    <contour>
      <point x="260" y="-12" type="curve" smooth="yes" name="hr00"/>
      <point x="349" y="-12"/>
      <point x="408" y="30"/>
      <point x="465" y="141" type="curve"/>
      <point x="446" y="151" type="line"/>
      <point x="398" y="54"/>
      <point x="345" y="8"/>
      <point x="260" y="8" type="curve" smooth="yes"/>
      <point x="140" y="8"/>
      <point x="82" y="97"/>
      <point x="82" y="230" type="curve" smooth="yes"/>
      <point x="82" y="258"/>
      <point x="83" y="298"/>
      <point x="91" y="340" type="curve" smooth="yes"/>
      <point x="102" y="395" type="line" smooth="yes"/>
      <point x="139" y="580"/>
      <point x="236" y="690"/>
      <point x="364" y="690" type="curve" smooth="yes"/>
      <point x="456" y="690"/>
      <point x="498" y="640"/>
      <point x="516" y="564" type="curve"/>
      <point x="536" y="569" type="line"/>
      <point x="518" y="656"/>
      <point x="463" y="710"/>
      <point x="365" y="710" type="curve" smooth="yes"/>
      <point x="202" y="710"/>
      <point x="110" y="559"/>
      <point x="76" y="388" type="curve" smooth="yes"/>
      <point x="66" y="336"/>
      <point x="60" y="282"/>
      <point x="60" y="230" type="curve" smooth="yes"/>
      <point x="60" y="76"/>
      <point x="134" y="-12"/>
    </contour>
    <contour>
      <point x="259" y="0" type="move" name="bottom"/>
    </contour>
    <contour>
      <point x="364" y="698" type="move" name="top"/>
    </contour>
  </outline>
</glyph>
<glyph name="D" format="1">
  <advance width="585"/>
  <unicode hex="0044"/>
  <outline>
    <contour>
      <point x="44" y="0" type="line" name="hr00"/>
      <point x="242" y="0" type="line" smooth="yes"/>
      <point x="412" y="0"/>
      <point x="507" y="148"/>
      <point x="540" y="319" type="curve" smooth="yes"/>
      <point x="549" y="366"/>
      <point x="554" y="416"/>
      <point x="554" y="464" type="curve" smooth="yes"/>
      <point x="554" y="611"/>
      <point x="477" y="698"/>
      <point x="340" y="698" type="curve" smooth="yes"/>
      <point x="184" y="698" type="line"/>
    </contour>
    <contour>
      <point x="70" y="20" type="line"/>
      <point x="202" y="678" type="line"/>
      <point x="337" y="678" type="line" smooth="yes"/>
      <point x="465" y="678"/>
      <point x="532" y="596"/>
      <point x="532" y="464" type="curve" smooth="yes"/>
      <point x="532" y="436"/>
      <point x="528" y="384"/>
      <point x="522" y="353" type="curve" smooth="yes"/>
      <point x="511" y="298" type="line" smooth="yes"/>
      <point x="482" y="154"/>
      <point x="395" y="20"/>
      <point x="242" y="20" type="curve" smooth="yes"/>
    </contour>
    <contour>
      <point x="202" y="0" type="move" name="bottom"/>
    </contour>
    <contour>
      <point x="326" y="698" type="move" name="top"/>
    </contour>
  </outline>
</glyph>
<glyph name="E" format="1">
  <advance width="501"/>
  <unicode hex="0045"/>
  <outline>
    <contour>
      <point x="386" y="0" type="line" name="hr00"/>
      <point x="390" y="20" type="line"/>
      <point x="70" y="20" type="line"/>
      <point x="135" y="344" type="line"/>
      <point x="442" y="344" type="line"/>
      <point x="446" y="364" type="line"/>
      <point x="139" y="364" type="line"/>
      <point x="202" y="678" type="line"/>
      <point x="521" y="678" type="line"/>
      <point x="525" y="698" type="line"/>
      <point x="184" y="698" type="line"/>
      <point x="44" y="0" type="line"/>
    </contour>
    <contour>
      <point x="208" y="0" type="move" name="bottom"/>
    </contour>
    <contour>
      <point x="386" y="0" type="move" name="bottomright"/>
    </contour>
    <contour>
      <point x="346" y="698" type="move" name="top"/>
    </contour>
  </outline>
</glyph>
<glyph name="F" format="1">
  <advance width="479"/>
  <unicode hex="0046"/>
  <outline>
    <contour>
      <point x="66" y="0" type="line" name=""/>
      <point x="135" y="344" type="line"/>
      <point x="434" y="344" type="line"/>
      <point x="438" y="364" type="line"/>
      <point x="139" y="364" type="line"/>
      <point x="202" y="678" type="line"/>
      <point x="513" y="678" type="line"/>
      <point x="517" y="698" type="line"/>
      <point x="184" y="698" type="line"/>
      <point x="44" y="0" type="line"/>
    </contour>
    <contour>
      <point x="55.0" y="0.0" type="move" name="bottom"/>
    </contour>
    <contour>
      <point x="357.0" y="698.0" type="move" name="top"/>
    </contour>
  </outline>
</glyph>
<glyph name="G" format="1">
  <advance width="595"/>
  <unicode hex="0047"/>
  <outline>
    <contour>
      <point x="444" y="0" type="line"/>
      <point x="465" y="0" type="line"/>
      <point x="531" y="332" type="line"/>
      <point x="352" y="332" type="line"/>
      <point x="348" y="312" type="line"/>
      <point x="506" y="312" type="line"/>
      <point x="485" y="205" type="line" smooth="yes"/>
      <point x="458" y="67"/>
      <point x="355" y="8"/>
      <point x="260" y="8" type="curve" smooth="yes" name="hr01"/>
      <point x="140" y="8"/>
      <point x="82" y="97"/>
      <point x="82" y="230" type="curve" smooth="yes"/>
      <point x="82" y="261"/>
      <point x="85" y="304"/>
      <point x="94" y="349" type="curve" smooth="yes"/>
      <point x="104" y="399" type="line" smooth="yes"/>
      <point x="141" y="582"/>
      <point x="237" y="690"/>
      <point x="364" y="690" type="curve" smooth="yes"/>
      <point x="471" y="690"/>
      <point x="515" y="642"/>
      <point x="535" y="564" type="curve"/>
      <point x="555" y="569" type="line"/>
      <point x="535" y="657"/>
      <point x="478" y="710"/>
      <point x="367" y="710" type="curve" smooth="yes"/>
      <point x="201" y="710"/>
      <point x="109" y="556"/>
      <point x="75" y="386" type="curve" smooth="yes"/>
      <point x="65" y="334"/>
      <point x="60" y="281"/>
      <point x="60" y="230" type="curve" smooth="yes"/>
      <point x="60" y="76"/>
      <point x="134" y="-12"/>
      <point x="259" y="-12" type="curve" smooth="yes"/>
      <point x="345" y="-12"/>
      <point x="417" y="26"/>
      <point x="461" y="114" type="curve" name="hr02"/>
      <point x="467" y="114" type="line"/>
    </contour>
    <contour>
      <point x="259" y="0" type="move" name="bottom"/>
    </contour>
    <contour>
      <point x="365" y="698" type="move" name="top"/>
    </contour>
  </outline>
</glyph>
<glyph name="H" format="1">
  <advance width="615"/>
  <unicode hex="0048"/>
  <outline>
    <contour>
      <point x="447" y="0" type="line" name="hr00"/>
      <point x="469" y="0" type="line"/>
      <point x="609" y="698" type="line"/>
      <point x="587" y="698" type="line"/>
      <point x="520" y="364" type="line"/>
      <point x="139" y="364" type="line"/>
      <point x="206" y="698" type="line"/>
      <point x="184" y="698" type="line"/>
      <point x="44" y="0" type="line"/>
      <point x="66" y="0" type="line"/>
      <point x="135" y="344" type="line"/>
      <point x="516" y="344" type="line"/>
    </contour>
    <contour>
      <point x="255" y="0" type="move" name="bottom"/>
    </contour>
    <contour>
      <point x="395" y="698" type="move" name="top"/>
    </contour>
  </outline>
</glyph>
<glyph name="I" format="1">
  <advance width="330"/>
  <unicode hex="0049"/>
  <outline>
    <contour>
      <point x="221" y="0" type="line" name="hr00"/>
      <point x="225" y="19" type="line"/>
      <point x="129" y="19" type="line"/>
      <point x="261" y="679" type="line"/>
      <point x="357" y="679" type="line"/>
      <point x="361" y="698" type="line"/>
      <point x="147" y="698" type="line"/>
      <point x="143" y="679" type="line"/>
      <point x="239" y="679" type="line"/>
      <point x="107" y="19" type="line"/>
      <point x="11" y="19" type="line"/>
      <point x="7" y="0" type="line"/>
    </contour>
    <contour>
      <point x="115" y="0" type="move" name="bottom"/>
    </contour>
    <contour>
      <point x="221" y="0" type="move" name="bottomright"/>
    </contour>
    <contour>
      <point x="254" y="698" type="move" name="top"/>
    </contour>
  </outline>
</glyph>
<glyph name="J" format="1">
  <advance width="412"/>
  <unicode hex="004A"/>
  <outline>
    <contour>
      <point x="168" y="698" type="line" name="hr00"/>
      <point x="164" y="678" type="line"/>
      <point x="385" y="678" type="line"/>
      <point x="286" y="184" type="line" smooth="yes"/>
      <point x="263" y="69"/>
      <point x="224" y="8"/>
      <point x="130" y="8" type="curve" smooth="yes"/>
      <point x="60" y="8"/>
      <point x="9" y="46"/>
      <point x="3" y="123" type="curve"/>
      <point x="-17" y="118" type="line"/>
      <point x="-13" y="43"/>
      <point x="43" y="-12"/>
      <point x="130" y="-12" type="curve" smooth="yes"/>
      <point x="233" y="-12"/>
      <point x="282" y="53"/>
      <point x="307" y="178" type="curve" smooth="yes"/>
      <point x="411" y="698" type="line"/>
    </contour>
    <contour>
      <point x="130" y="0" type="move" name="bottom"/>
    </contour>
    <contour>
      <point x="289" y="698" type="move" name="top"/>
    </contour>
  </outline>
</glyph>
<glyph name="K" format="1">
  <advance width="511"/>
  <unicode hex="004B"/>
  <outline>
    <contour>
      <point x="424" y="0" type="line" name="hr00"/>
      <point x="447" y="0" type="line"/>
      <point x="284" y="402" type="line"/>
      <point x="583" y="698" type="line"/>
      <point x="554" y="698" type="line"/>
      <point x="277" y="423" type="line"/>
      <point x="123" y="270" type="line"/>
      <point x="120" y="270" type="line"/>
      <point x="154" y="439" type="line"/>
      <point x="206" y="698" type="line"/>
      <point x="184" y="698" type="line"/>
      <point x="44" y="0" type="line"/>
      <point x="66" y="0" type="line"/>
      <point x="114" y="238" type="line"/>
      <point x="267" y="388" type="line"/>
    </contour>
    <contour>
      <point x="231" y="0" type="move" name="bottom"/>
    </contour>
    <contour>
      <point x="374" y="698" type="move" name="top"/>
    </contour>
  </outline>
</glyph>
<glyph name="L" format="1">
  <advance width="427"/>
  <unicode hex="004C"/>
  <outline>
    <contour>
      <point x="359" y="0" type="line" name="hr00"/>
      <point x="363" y="20" type="line"/>
      <point x="70" y="20" type="line"/>
      <point x="206" y="698" type="line"/>
      <point x="184" y="698" type="line"/>
      <point x="44" y="0" type="line"/>
    </contour>
    <contour>
      <point x="206" y="0" type="move" name="bottom"/>
    </contour>
    <contour>
      <point x="195" y="698" type="move" name="top"/>
    </contour>
    <contour>
      <point x="290" y="740" type="move" name="topright"/>
    </contour>
  </outline>
</glyph>
<glyph name="M" format="1">
  <advance width="704"/>
  <unicode hex="004D"/>
  <outline>
    <contour>
      <point x="537" y="0" type="line" name="hr00"/>
      <point x="558" y="0" type="line"/>
      <point x="698" y="698" type="line"/>
      <point x="661" y="698" type="line"/>
      <point x="438" y="390" type="line"/>
      <point x="356" y="278" type="line"/>
      <point x="353" y="278" type="line"/>
      <point x="316" y="390" type="line"/>
      <point x="216" y="698" type="line"/>
      <point x="184" y="698" type="line"/>
      <point x="44" y="0" type="line"/>
      <point x="65" y="0" type="line"/>
      <point x="176" y="553" type="line"/>
      <point x="199" y="673" type="line"/>
      <point x="203" y="673" type="line"/>
      <point x="238" y="566" type="line"/>
      <point x="348" y="236" type="line"/>
      <point x="590" y="566" type="line"/>
      <point x="667" y="673" type="line"/>
      <point x="671" y="673" type="line"/>
      <point x="648" y="553" type="line"/>
    </contour>
    <contour>
      <point x="301" y="0" type="move" name="bottom"/>
    </contour>
    <contour>
      <point x="442" y="698" type="move" name="top"/>
    </contour>
  </outline>
</glyph>
<glyph name="N" format="1">
  <advance width="613"/>
  <unicode hex="004E"/>
  <outline>
    <contour>
      <point x="434" y="0" type="line" name="hr00"/>
      <point x="467" y="0" type="line"/>
      <point x="607" y="698" type="line"/>
      <point x="586" y="698" type="line"/>
      <point x="474" y="139" type="line"/>
      <point x="452" y="20" type="line"/>
      <point x="448" y="20" type="line"/>
      <point x="412" y="131" type="line"/>
      <point x="217" y="698" type="line"/>
      <point x="184" y="698" type="line"/>
      <point x="44" y="0" type="line"/>
      <point x="65" y="0" type="line"/>
      <point x="177" y="559" type="line"/>
      <point x="199" y="678" type="line"/>
      <point x="203" y="678" type="line"/>
      <point x="239" y="567" type="line"/>
    </contour>
    <contour>
      <point x="243" y="0" type="move" name="bottom"/>
    </contour>
    <contour>
      <point x="399" y="698" type="move" name="top"/>
    </contour>
  </outline>
</glyph>
<glyph name="O" format="1">
  <advance width="595"/>
  <unicode hex="004F"/>
  <outline>
    <contour>
      <point x="260" y="-12" type="curve" smooth="yes" name="hr00"/>
      <point x="424" y="-12"/>
      <point x="517" y="142"/>
      <point x="550" y="313" type="curve" smooth="yes"/>
      <point x="560" y="364"/>
      <point x="565" y="417"/>
      <point x="565" y="468" type="curve" smooth="yes"/>
      <point x="565" y="622"/>
      <point x="491" y="710"/>
      <point x="365" y="710" type="curve" smooth="yes"/>
      <point x="201" y="710"/>
      <point x="108" y="556"/>
      <point x="75" y="385" type="curve" smooth="yes"/>
      <point x="65" y="334"/>
      <point x="60" y="281"/>
      <point x="60" y="230" type="curve" smooth="yes"/>
      <point x="60" y="76"/>
      <point x="134" y="-12"/>
    </contour>
    <contour>
      <point x="260" y="8" type="curve" smooth="yes"/>
      <point x="140" y="8"/>
      <point x="82" y="97"/>
      <point x="82" y="230" type="curve" smooth="yes"/>
      <point x="82" y="259"/>
      <point x="83" y="300"/>
      <point x="92" y="343" type="curve" smooth="yes"/>
      <point x="102" y="394" type="line" smooth="yes"/>
      <point x="139" y="581"/>
      <point x="239" y="690"/>
      <point x="365" y="690" type="curve" smooth="yes"/>
      <point x="485" y="690"/>
      <point x="543" y="601"/>
      <point x="543" y="468" type="curve" smooth="yes"/>
      <point x="543" y="439"/>
      <point x="542" y="398"/>
      <point x="533" y="355" type="curve" smooth="yes"/>
      <point x="523" y="304" type="line" smooth="yes"/>
      <point x="486" y="117"/>
      <point x="386" y="8"/>
    </contour>
    <contour>
      <point x="243" y="0" type="move" name="bottom"/>
    </contour>
    <contour>
      <point x="382" y="698" type="move" name="top"/>
    </contour>
  </outline>
</glyph>
<glyph name="P" format="1">
  <advance width="527"/>
  <unicode hex="0050"/>
  <outline>
    <contour>
      <point x="66" y="0" type="line" name="hr00"/>
      <point x="131" y="322" type="line"/>
      <point x="343" y="322" type="line" smooth="yes"/>
      <point x="464" y="322"/>
      <point x="544" y="405"/>
      <point x="544" y="550" type="curve" smooth="yes"/>
      <point x="544" y="635"/>
      <point x="493" y="698"/>
      <point x="396" y="698" type="curve" smooth="yes"/>
      <point x="184" y="698" type="line"/>
      <point x="44" y="0" type="line"/>
    </contour>
    <contour>
      <point x="202" y="678" type="line"/>
      <point x="393" y="678" type="line" smooth="yes"/>
      <point x="485" y="678"/>
      <point x="522" y="620"/>
      <point x="522" y="550" type="curve" smooth="yes"/>
      <point x="522" y="539"/>
      <point x="520" y="520"/>
      <point x="513" y="481" type="curve" smooth="yes"/>
      <point x="499" y="401"/>
      <point x="442" y="342"/>
      <point x="346" y="342" type="curve" smooth="yes"/>
      <point x="135" y="342" type="line"/>
    </contour>
    <contour>
      <point x="55" y="0" type="move" name="bottom"/>
    </contour>
    <contour>
      <point x="333" y="698" type="move" name="top"/>
    </contour>
  </outline>
</glyph>
<glyph name="Q" format="1">
  <advance width="595"/>
  <unicode hex="0051"/>
  <outline>
    <contour>
      <point x="327" y="-126" type="line" name="hr00"/>
      <point x="233" y="-126" type="line"/>
      <point x="256" y="-12" type="line"/>
      <point x="260" y="-12" type="line" smooth="yes"/>
      <point x="424" y="-12"/>
      <point x="517" y="142"/>
      <point x="550" y="313" type="curve" smooth="yes"/>
      <point x="560" y="364"/>
      <point x="565" y="417"/>
      <point x="565" y="468" type="curve" smooth="yes"/>
      <point x="565" y="622"/>
      <point x="491" y="710"/>
      <point x="365" y="710" type="curve" smooth="yes"/>
      <point x="201" y="710"/>
      <point x="108" y="556"/>
      <point x="75" y="385" type="curve" smooth="yes"/>
      <point x="65" y="334"/>
      <point x="60" y="281"/>
      <point x="60" y="230" type="curve" smooth="yes"/>
      <point x="60" y="86"/>
      <point x="124" y="0"/>
      <point x="236" y="-11" type="curve"/>
      <point x="214" y="-115" type="line" smooth="yes"/>
      <point x="213" y="-120"/>
      <point x="212" y="-126"/>
      <point x="212" y="-131" type="curve" smooth="yes"/>
      <point x="212" y="-142"/>
      <point x="222" y="-146"/>
      <point x="235" y="-146" type="curve" smooth="yes"/>
      <point x="323" y="-146" type="line"/>
    </contour>
    <contour>
      <point x="260" y="8" type="curve" smooth="yes"/>
      <point x="140" y="8"/>
      <point x="82" y="97"/>
      <point x="82" y="230" type="curve" smooth="yes"/>
      <point x="82" y="259"/>
      <point x="83" y="300"/>
      <point x="92" y="343" type="curve" smooth="yes"/>
      <point x="102" y="394" type="line" smooth="yes"/>
      <point x="139" y="581"/>
      <point x="239" y="690"/>
      <point x="365" y="690" type="curve" smooth="yes"/>
      <point x="485" y="690"/>
      <point x="543" y="601"/>
      <point x="543" y="468" type="curve" smooth="yes"/>
      <point x="543" y="439"/>
      <point x="542" y="398"/>
      <point x="533" y="355" type="curve" smooth="yes"/>
      <point x="523" y="304" type="line" smooth="yes"/>
      <point x="486" y="117"/>
      <point x="386" y="8"/>
    </contour>
    <contour>
      <point x="370" y="698" type="move" name="top"/>
    </contour>
  </outline>
</glyph>
<glyph name="R" format="1">
  <advance width="570"/>
  <unicode hex="0052"/>
  <outline>
    <contour>
      <point x="131" y="322" type="line" name="hr00"/>
      <point x="320" y="322" type="line"/>
      <point x="430" y="0" type="line"/>
      <point x="453" y="0" type="line"/>
      <point x="343" y="322" type="line"/>
      <point x="462" y="322"/>
      <point x="544" y="406"/>
      <point x="544" y="550" type="curve" smooth="yes"/>
      <point x="544" y="635"/>
      <point x="489" y="698"/>
      <point x="401" y="698" type="curve" smooth="yes"/>
      <point x="184" y="698" type="line"/>
      <point x="44" y="0" type="line"/>
      <point x="66" y="0" type="line"/>
    </contour>
    <contour>
      <point x="135" y="342" type="line"/>
      <point x="202" y="678" type="line"/>
      <point x="398" y="678" type="line" smooth="yes"/>
      <point x="480" y="678"/>
      <point x="522" y="620"/>
      <point x="522" y="550" type="curve" smooth="yes"/>
      <point x="522" y="539"/>
      <point x="520" y="520"/>
      <point x="513" y="481" type="curve" smooth="yes"/>
      <point x="499" y="401"/>
      <point x="440" y="342"/>
      <point x="348" y="342" type="curve" smooth="yes"/>
    </contour>
    <contour>
      <point x="217" y="0" type="move" name="bottom"/>
    </contour>
    <contour>
      <point x="357" y="698" type="move" name="top"/>
    </contour>
  </outline>
</glyph>
<glyph name="S" format="1">
  <advance width="485"/>
  <unicode hex="0053"/>
  <outline>
    <contour>
      <point x="209" y="-12" type="curve" smooth="yes" name="hr00"/>
      <point x="354" y="-12"/>
      <point x="424" y="87"/>
      <point x="424" y="206" type="curve" smooth="yes"/>
      <point x="424" y="289"/>
      <point x="380" y="331"/>
      <point x="297" y="357" type="curve" smooth="yes"/>
      <point x="229" y="378" type="line" smooth="yes"/>
      <point x="158" y="400"/>
      <point x="127" y="445"/>
      <point x="127" y="513" type="curve" smooth="yes"/>
      <point x="127" y="608"/>
      <point x="187" y="690"/>
      <point x="306" y="690" type="curve" smooth="yes"/>
      <point x="387" y="690"/>
      <point x="439" y="667"/>
      <point x="470" y="601" type="curve"/>
      <point x="488" y="612" type="line"/>
      <point x="458" y="675"/>
      <point x="403" y="710"/>
      <point x="308" y="710" type="curve" smooth="yes"/>
      <point x="177" y="710"/>
      <point x="105" y="620"/>
      <point x="105" y="513" type="curve" smooth="yes"/>
      <point x="105" y="436"/>
      <point x="145" y="382"/>
      <point x="223" y="358" type="curve" smooth="yes"/>
      <point x="291" y="337" type="line" smooth="yes"/>
      <point x="365" y="314"/>
      <point x="401" y="277"/>
      <point x="401" y="206" type="curve" smooth="yes"/>
      <point x="401" y="100"/>
      <point x="344" y="8"/>
      <point x="210" y="8" type="curve" smooth="yes"/>
      <point x="114" y="8"/>
      <point x="64" y="46"/>
      <point x="31" y="112" type="curve"/>
      <point x="13" y="99" type="line"/>
      <point x="48" y="31"/>
      <point x="106" y="-12"/>
    </contour>
    <contour>
      <point x="210" y="0" type="move" name="bottom"/>
    </contour>
    <contour>
      <point x="307" y="698" type="move" name="top"/>
    </contour>
  </outline>
</glyph>
<glyph name="T" format="1">
  <advance width="494"/>
  <unicode hex="0054"/>
  <outline>
    <contour>
      <point x="565" y="678" type="line" name=""/>
      <point x="569" y="698" type="line"/>
      <point x="103" y="698" type="line"/>
      <point x="99" y="678" type="line"/>
      <point x="321" y="678" type="line"/>
      <point x="185" y="0" type="line"/>
      <point x="207" y="0" type="line"/>
      <point x="343" y="678" type="line"/>
    </contour>
    <contour>
      <point x="196.0" y="0.0" type="move" name="bottom"/>
    </contour>
    <contour>
      <point x="335.0" y="698.0" type="move" name="top"/>
    </contour>
  </outline>
</glyph>
<glyph name="U" format="1">
  <advance width="577"/>
  <unicode hex="0055"/>
  <outline>
    <contour>
      <point x="176" y="698" type="line" name="hr00"/>
      <point x="89" y="263" type="line" smooth="yes"/>
      <point x="78" y="209"/>
      <point x="71" y="171"/>
      <point x="71" y="138" type="curve" smooth="yes"/>
      <point x="71" y="40"/>
      <point x="137" y="-12"/>
      <point x="248" y="-12" type="curve" smooth="yes"/>
      <point x="386" y="-12"/>
      <point x="450" y="51"/>
      <point x="490" y="253" type="curve" smooth="yes"/>
      <point x="579" y="698" type="line"/>
      <point x="557" y="698" type="line"/>
      <point x="468" y="253" type="line" smooth="yes"/>
      <point x="431" y="67"/>
      <point x="376" y="8"/>
      <point x="248" y="8" type="curve" smooth="yes"/>
      <point x="142" y="8"/>
      <point x="93" y="59"/>
      <point x="93" y="140" type="curve" smooth="yes"/>
      <point x="93" y="169"/>
      <point x="99" y="201"/>
      <point x="110" y="258" type="curve" smooth="yes"/>
      <point x="198" y="698" type="line"/>
    </contour>
    <contour>
      <point x="238" y="0" type="move" name="bottom"/>
    </contour>
    <contour>
      <point x="331" y="0" type="move" name="bottomright"/>
    </contour>
    <contour>
      <point x="378" y="698" type="move" name="top"/>
    </contour>
  </outline>
</glyph>
<glyph name="V" format="1">
  <advance width="511"/>
  <unicode hex="0056"/>
  <outline>
    <contour>
      <point x="223" y="0" type="line" name="hr00"/>
      <point x="575" y="698" type="line"/>
      <point x="552" y="698" type="line"/>
      <point x="315" y="230" type="line"/>
      <point x="212" y="20" type="line"/>
      <point x="208" y="20" type="line"/>
      <point x="187" y="230" type="line"/>
      <point x="136" y="698" type="line"/>
      <point x="114" y="698" type="line"/>
      <point x="189" y="0" type="line"/>
    </contour>
    <contour>
      <point x="206" y="0" type="move" name="bottom"/>
    </contour>
    <contour>
      <point x="345" y="698" type="move" name="top"/>
    </contour>
  </outline>
</glyph>
<glyph name="W" format="1">
  <advance width="780"/>
  <unicode hex="0057"/>
  <outline>
    <contour>
      <point x="174" y="0" type="line" name="hr00"/>
      <point x="396" y="506" type="line"/>
      <point x="470" y="678" type="line"/>
      <point x="474" y="678" type="line"/>
      <point x="481" y="506" type="line"/>
      <point x="505" y="0" type="line"/>
      <point x="539" y="0" type="line"/>
      <point x="844" y="698" type="line"/>
      <point x="820" y="698" type="line"/>
      <point x="626" y="251" type="line"/>
      <point x="528" y="20" type="line"/>
      <point x="524" y="20" type="line"/>
      <point x="514" y="256" type="line"/>
      <point x="493" y="698" type="line"/>
      <point x="457" y="698" type="line"/>
      <point x="264" y="256" type="line"/>
      <point x="162" y="20" type="line"/>
      <point x="157" y="20" type="line"/>
      <point x="152" y="256" type="line"/>
      <point x="138" y="698" type="line"/>
      <point x="116" y="698" type="line"/>
      <point x="138" y="0" type="line"/>
    </contour>
    <contour>
      <point x="336" y="0" type="move" name="bottom"/>
    </contour>
    <contour>
      <point x="476" y="698" type="move" name="top"/>
    </contour>
  </outline>
</glyph>
<glyph name="X" format="1">
  <advance width="500"/>
  <unicode hex="0058"/>
  <outline>
    <contour>
      <point x="279" y="355" type="line" name="hr00"/>
      <point x="552" y="698" type="line"/>
      <point x="524" y="698" type="line"/>
      <point x="272" y="377" type="line"/>
      <point x="266" y="377" type="line"/>
      <point x="138" y="698" type="line"/>
      <point x="114" y="698" type="line"/>
      <point x="251" y="356" type="line"/>
      <point x="-31" y="0" type="line"/>
      <point x="-4" y="0" type="line"/>
      <point x="259" y="334" type="line"/>
      <point x="265" y="334" type="line"/>
      <point x="397" y="0" type="line"/>
      <point x="421" y="0" type="line"/>
    </contour>
    <contour>
      <point x="194" y="0" type="move" name="bottom"/>
    </contour>
    <contour>
      <point x="334" y="698" type="move" name="top"/>
    </contour>
  </outline>
</glyph>
<glyph name="Y" format="1">
  <advance width="488"/>
  <unicode hex="0059"/>
  <outline>
    <contour>
      <point x="204" y="0" type="line" name="hr00"/>
      <point x="263" y="294" type="line"/>
      <point x="560" y="698" type="line"/>
      <point x="534" y="698" type="line"/>
      <point x="260" y="323" type="line"/>
      <point x="254" y="323" type="line"/>
      <point x="131" y="698" type="line"/>
      <point x="108" y="698" type="line"/>
      <point x="241" y="294" type="line"/>
      <point x="182" y="0" type="line"/>
    </contour>
    <contour>
      <point x="193" y="0" type="move" name="bottom"/>
    </contour>
    <contour>
      <point x="332" y="698" type="move" name="top"/>
    </contour>
  </outline>
</glyph>
<glyph name="Z" format="1">
  <advance width="490"/>
  <unicode hex="005A"/>
  <outline>
    <contour>
      <point x="414" y="20" type="line" name="hr00"/>
      <point x="5" y="20" type="line"/>
      <point x="523" y="676" type="line"/>
      <point x="528" y="698" type="line"/>
      <point x="131" y="698" type="line"/>
      <point x="127" y="678" type="line"/>
      <point x="497" y="678" type="line"/>
      <point x="-21" y="22" type="line"/>
      <point x="-26" y="0" type="line"/>
      <point x="410" y="0" type="line"/>
    </contour>
    <contour>
      <point x="192" y="0" type="move" name="bottom"/>
    </contour>
    <contour>
      <point x="331" y="698" type="move" name="top"/>
    </contour>
  </outline>
</glyph>
<glyph name="bracketleft" format="1">
  <advance width="273"/>
  <unicode hex="005B"/>
  <outline>
    <contour>
      <point x="133" y="-138" type="line" name="hr00"/>
      <point x="137" y="-120" type="line"/>
      <point x="44" y="-120" type="line"/>
      <point x="214" y="742" type="line"/>
      <point x="307" y="742" type="line"/>
      <point x="311" y="760" type="line"/>
      <point x="199" y="760" type="line"/>
      <point x="19" y="-138" type="line"/>
    </contour>
  </outline>
</glyph>
<glyph name="backslash" format="1">
  <advance width="275"/>
  <unicode hex="005C"/>
  <outline>
    <contour>
      <point x="188" y="-151" type="line" name="hr00"/>
      <point x="140" y="740" type="line"/>
      <point x="122" y="740" type="line"/>
      <point x="170" y="-151" type="line"/>
    </contour>
  </outline>
</glyph>
<glyph name="bracketright" format="1">
  <advance width="273"/>
  <unicode hex="005D"/>
  <outline>
    <contour>
      <point x="160" y="760" type="line" name="hr00"/>
      <point x="156" y="742" type="line"/>
      <point x="249" y="742" type="line"/>
      <point x="79" y="-120" type="line"/>
      <point x="-14" y="-120" type="line"/>
      <point x="-18" y="-138" type="line"/>
      <point x="94" y="-138" type="line"/>
      <point x="274" y="760" type="line"/>
    </contour>
  </outline>
</glyph>
<glyph name="asciicircum" format="1">
  <advance width="540"/>
  <unicode hex="005E"/>
  <outline>
    <contour>
      <point x="487" y="332" type="line" name="hr00"/>
      <point x="363" y="698" type="line"/>
      <point x="341" y="698" type="line"/>
      <point x="70" y="332" type="line"/>
      <point x="87" y="322" type="line"/>
      <point x="348" y="676" type="line"/>
      <point x="350" y="676" type="line"/>
      <point x="469" y="322" type="line"/>
    </contour>
  </outline>
</glyph>
<glyph name="underscore" format="1">
  <advance width="504"/>
  <unicode hex="005F"/>
  <outline>
    <contour>
      <point x="400" y="-141" type="line" name="hr00"/>
      <point x="404" y="-123" type="line"/>
      <point x="-53" y="-123" type="line"/>
      <point x="-57" y="-141" type="line"/>
    </contour>
  </outline>
</glyph>
<glyph name="grave" format="1">
  <advance width="540"/>
  <unicode hex="0060"/>
  <outline>
    <contour>
      <point x="299" y="587" type="line" name="hr00"/>
      <point x="313" y="594" type="line"/>
      <point x="244" y="750" type="line"/>
      <point x="225" y="741" type="line"/>
    </contour>
    <contour>
      <point x="270" y="540" type="move" name="_top"/>
    </contour>
  </outline>
</glyph>
<glyph name="c" format="1">
  <advance width="432"/>
  <unicode hex="0063"/>
  <outline>
    <contour>
      <point x="206" y="-12" type="curve" smooth="yes" name="hr00"/>
      <point x="285" y="-12"/>
      <point x="330" y="37"/>
      <point x="376" y="115" type="curve"/>
      <point x="359" y="124" type="line"/>
      <point x="319" y="51"/>
      <point x="275" y="7"/>
      <point x="206" y="7" type="curve" smooth="yes"/>
      <point x="109" y="7"/>
      <point x="72" y="83"/>
      <point x="72" y="176" type="curve" smooth="yes"/>
      <point x="72" y="196"/>
      <point x="74" y="227"/>
      <point x="79" y="252" type="curve" smooth="yes"/>
      <point x="89" y="302" type="line" smooth="yes"/>
      <point x="114" y="425"/>
      <point x="181" y="499"/>
      <point x="273" y="499" type="curve" smooth="yes"/>
      <point x="335" y="499"/>
      <point x="377" y="463"/>
      <point x="390" y="398" type="curve"/>
      <point x="409" y="403" type="line"/>
      <point x="397" y="471"/>
      <point x="349" y="518"/>
      <point x="275" y="518" type="curve" smooth="yes"/>
      <point x="163" y="518"/>
      <point x="89" y="419"/>
      <point x="63" y="288" type="curve" smooth="yes"/>
      <point x="56" y="253"/>
      <point x="52" y="215"/>
      <point x="52" y="176" type="curve" smooth="yes"/>
      <point x="52" y="68"/>
      <point x="101" y="-12"/>
    </contour>
    <contour>
      <point x="188" y="0" type="move" name="bottom"/>
    </contour>
    <contour>
      <point x="296" y="540" type="move" name="top"/>
    </contour>
  </outline>
</glyph>
<glyph name="e" format="1">
  <advance width="456"/>
  <unicode hex="0065"/>
  <outline>
    <contour>
      <point x="214" y="-12" type="curve" smooth="yes" name="hr00"/>
      <point x="294" y="-12"/>
      <point x="350" y="30"/>
      <point x="397" y="125" type="curve"/>
      <point x="380" y="133" type="line"/>
      <point x="340" y="55"/>
      <point x="292" y="7"/>
      <point x="214" y="7" type="curve" smooth="yes"/>
      <point x="117" y="7"/>
      <point x="73" y="64"/>
      <point x="73" y="189" type="curve" smooth="yes"/>
      <point x="73" y="200"/>
      <point x="74" y="219"/>
      <point x="76" y="233" type="curve"/>
      <point x="381" y="239"/>
      <point x="422" y="325"/>
      <point x="422" y="397" type="curve" smooth="yes"/>
      <point x="422" y="472"/>
      <point x="369" y="518"/>
      <point x="286" y="518" type="curve" smooth="yes"/>
      <point x="171" y="518"/>
      <point x="89" y="423"/>
      <point x="62" y="287" type="curve" smooth="yes"/>
      <point x="56" y="256"/>
      <point x="52" y="222"/>
      <point x="52" y="187" type="curve" smooth="yes"/>
      <point x="52" y="51"/>
      <point x="107" y="-12"/>
    </contour>
    <contour>
      <point x="284" y="499" type="curve" smooth="yes"/>
      <point x="364" y="499"/>
      <point x="400" y="457"/>
      <point x="400" y="397" type="curve" smooth="yes"/>
      <point x="400" y="320"/>
      <point x="346" y="257"/>
      <point x="78" y="252" type="curve"/>
      <point x="81" y="270" type="line" smooth="yes"/>
      <point x="103" y="403"/>
      <point x="173" y="499"/>
    </contour>
    <contour>
      <point x="196" y="0" type="move" name="bottom"/>
    </contour>
    <contour>
      <point x="271" y="0" type="move" name="bottomright"/>
    </contour>
    <contour>
      <point x="300" y="540" type="move" name="top"/>
    </contour>
  </outline>
</glyph>
<glyph name="f" format="1">
  <advance width="256"/>
  <unicode hex="0066"/>
  <outline>
    <contour>
      <point x="175" y="487" type="line" name="hr00"/>
      <point x="270" y="487" type="line"/>
      <point x="274" y="506" type="line"/>
      <point x="179" y="506" type="line"/>
      <point x="222" y="721" type="line"/>
      <point x="316" y="721" type="line"/>
      <point x="320" y="740" type="line"/>
      <point x="235" y="740" type="line" smooth="yes"/>
      <point x="209" y="740"/>
      <point x="204" y="732"/>
      <point x="198" y="704" type="curve" smooth="yes"/>
      <point x="158" y="506" type="line"/>
      <point x="70" y="506" type="line"/>
      <point x="66" y="487" type="line"/>
      <point x="154" y="487" type="line"/>
      <point x="24" y="-181" type="line"/>
      <point x="-62" y="-181" type="line"/>
      <point x="-66" y="-200" type="line"/>
      <point x="10" y="-200" type="line" smooth="yes"/>
      <point x="36" y="-200"/>
      <point x="43" y="-194"/>
      <point x="47" y="-171" type="curve" smooth="yes"/>
    </contour>
  </outline>
</glyph>
<glyph name="g" format="1">
  <advance width="438"/>
  <unicode hex="0067"/>
  <outline>
    <contour>
      <point x="388" y="-51" type="curve" smooth="yes"/>
      <point x="388" y="15"/>
      <point x="354" y="53"/>
      <point x="255" y="53" type="curve" smooth="yes"/>
      <point x="134" y="53" type="line" smooth="yes"/>
      <point x="86" y="53"/>
      <point x="74" y="76"/>
      <point x="74" y="100" type="curve" smooth="yes"/>
      <point x="74" y="137"/>
      <point x="99" y="165"/>
      <point x="169" y="186" type="curve"/>
      <point x="184" y="182"/>
      <point x="197" y="180"/>
      <point x="214" y="180" type="curve" smooth="yes"/>
      <point x="322" y="180"/>
      <point x="388" y="257"/>
      <point x="388" y="381" type="curve" smooth="yes"/>
      <point x="388" y="411"/>
      <point x="383" y="440"/>
      <point x="368" y="463" type="curve"/>
      <point x="382" y="542" type="line"/>
      <point x="472" y="542" type="line"/>
      <point x="476" y="561" type="line"/>
      <point x="393" y="561" type="line" smooth="yes"/>
      <point x="374" y="561"/>
      <point x="365" y="555"/>
      <point x="362" y="536" type="curve" smooth="yes"/>
      <point x="352" y="481" type="line"/>
      <point x="330" y="504"/>
      <point x="296" y="518"/>
      <point x="254" y="518" type="curve" smooth="yes"/>
      <point x="152" y="518"/>
      <point x="81" y="441"/>
      <point x="81" y="317" type="curve" smooth="yes"/>
      <point x="81" y="266"/>
      <point x="104" y="211"/>
      <point x="151" y="195" type="curve"/>
      <point x="150" y="189" type="line"/>
      <point x="100" y="181"/>
      <point x="54" y="148"/>
      <point x="54" y="100" type="curve" smooth="yes"/>
      <point x="54" y="71"/>
      <point x="66" y="50"/>
      <point x="95" y="41" type="curve"/>
      <point x="94" y="35" type="line"/>
      <point x="26" y="17"/>
      <point x="-14" y="-34"/>
      <point x="-14" y="-95" type="curve" smooth="yes"/>
      <point x="-14" y="-174"/>
      <point x="50" y="-212"/>
      <point x="158" y="-212" type="curve" smooth="yes"/>
      <point x="307" y="-212"/>
      <point x="388" y="-153"/>
    </contour>
    <contour>
      <point x="366" y="-52" type="curve" smooth="yes" name="hr01"/>
      <point x="366" y="-145"/>
      <point x="289" y="-193"/>
      <point x="176" y="-193" type="curve" smooth="yes"/>
      <point x="146" y="-193" type="line" smooth="yes"/>
      <point x="71" y="-193"/>
      <point x="8" y="-169"/>
      <point x="8" y="-93" type="curve" smooth="yes"/>
      <point x="8" y="-28"/>
      <point x="54" y="14"/>
      <point x="120" y="33" type="curve"/>
      <point x="251" y="33" type="line" smooth="yes"/>
      <point x="342" y="33"/>
      <point x="366" y="5"/>
    </contour>
    <contour>
      <point x="216" y="199" type="curve" smooth="yes"/>
      <point x="137" y="199"/>
      <point x="102" y="246"/>
      <point x="102" y="317" type="curve" smooth="yes"/>
      <point x="102" y="325"/>
      <point x="102" y="337"/>
      <point x="108" y="371" type="curve" smooth="yes"/>
      <point x="121" y="446"/>
      <point x="169" y="499"/>
      <point x="253" y="499" type="curve" smooth="yes"/>
      <point x="332" y="499"/>
      <point x="367" y="452"/>
      <point x="367" y="381" type="curve" smooth="yes" name="hr02"/>
      <point x="367" y="373"/>
      <point x="367" y="361"/>
      <point x="361" y="327" type="curve" smooth="yes"/>
      <point x="348" y="252"/>
      <point x="300" y="199"/>
    </contour>
    <contour>
      <point x="260" y="540" type="move" name="top"/>
    </contour>
  </outline>
</glyph>
<glyph name="i" format="1">
  <advance width="214"/>
  <unicode hex="0069"/>
  <outline>
    <contour>
      <point x="188" y="673" type="curve" smooth="yes" name="hr00"/>
      <point x="200" y="673"/>
      <point x="209" y="678"/>
      <point x="212" y="690" type="curve" smooth="yes"/>
      <point x="213" y="694"/>
      <point x="215" y="703"/>
      <point x="215" y="706" type="curve" smooth="yes"/>
      <point x="215" y="715"/>
      <point x="211" y="722"/>
      <point x="195" y="722" type="curve" smooth="yes"/>
      <point x="183" y="722"/>
      <point x="174" y="717"/>
      <point x="171" y="705" type="curve" smooth="yes"/>
      <point x="170" y="701"/>
      <point x="168" y="692"/>
      <point x="168" y="689" type="curve" smooth="yes"/>
      <point x="168" y="680"/>
      <point x="172" y="673"/>
    </contour>
    <contour>
      <point x="138" y="0" type="line"/>
      <point x="142" y="19" type="line"/>
      <point x="66" y="19" type="line"/>
      <point x="163" y="506" type="line"/>
      <point x="142" y="506" type="line"/>
      <point x="47" y="31" type="line" smooth="yes"/>
      <point x="46" y="26"/>
      <point x="45" y="20"/>
      <point x="45" y="15" type="curve" smooth="yes"/>
      <point x="45" y="4"/>
      <point x="55" y="0"/>
      <point x="68" y="0" type="curve" smooth="yes"/>
    </contour>
    <contour>
      <point x="89" y="0" type="move" name="bottom"/>
    </contour>
    <contour>
      <point x="138" y="0" type="move" name="bottomright"/>
    </contour>
  </outline>
</glyph>
<glyph name="j" format="1">
  <advance width="208"/>
  <unicode hex="006A"/>
  <outline>
    <contour>
      <point x="5" y="-181" type="line" name="hr00"/>
      <point x="-71" y="-181" type="line"/>
      <point x="-75" y="-200" type="line"/>
      <point x="-6" y="-200" type="line" smooth="yes"/>
      <point x="17" y="-200"/>
      <point x="24" y="-194"/>
      <point x="28" y="-172" type="curve" smooth="yes"/>
      <point x="163" y="506" type="line"/>
      <point x="142" y="506" type="line"/>
    </contour>
    <contour>
      <point x="188" y="673" type="curve" smooth="yes"/>
      <point x="200" y="673"/>
      <point x="209" y="678"/>
      <point x="212" y="690" type="curve" smooth="yes"/>
      <point x="213" y="694"/>
      <point x="215" y="703"/>
      <point x="215" y="706" type="curve" smooth="yes"/>
      <point x="215" y="715"/>
      <point x="211" y="722"/>
      <point x="195" y="722" type="curve" smooth="yes"/>
      <point x="183" y="722"/>
      <point x="174" y="717"/>
      <point x="171" y="705" type="curve" smooth="yes"/>
      <point x="170" y="701"/>
      <point x="168" y="692"/>
      <point x="168" y="689" type="curve" smooth="yes"/>
      <point x="168" y="680"/>
      <point x="172" y="673"/>
    </contour>
  </outline>
</glyph>
<glyph name="k" format="1">
  <advance width="434"/>
  <unicode hex="006B"/>
  <outline>
    <contour>
      <point x="41" y="0" type="line" name="hr00"/>
      <point x="62" y="0" type="line"/>
      <point x="100" y="189" type="line"/>
      <point x="199" y="279" type="line"/>
      <point x="312" y="21" type="line" smooth="yes"/>
      <point x="319" y="6"/>
      <point x="325" y="0"/>
      <point x="340" y="0" type="curve" smooth="yes"/>
      <point x="383" y="0" type="line"/>
      <point x="387" y="19" type="line"/>
      <point x="335" y="19" type="line"/>
      <point x="215" y="292" type="line"/>
      <point x="438" y="506" type="line"/>
      <point x="411" y="506" type="line"/>
      <point x="212" y="315" type="line"/>
      <point x="110" y="221" type="line"/>
      <point x="106" y="221" type="line"/>
      <point x="129" y="335" type="line"/>
      <point x="210" y="740" type="line"/>
      <point x="189" y="740" type="line"/>
    </contour>
    <contour>
      <point x="196" y="0" type="move" name="bottom"/>
    </contour>
  </outline>
</glyph>
<glyph name="l" format="1">
  <advance width="214"/>
  <unicode hex="006C"/>
  <outline>
    <contour>
      <point x="138" y="0" type="line" name="hr00"/>
      <point x="142" y="19" type="line"/>
      <point x="66" y="19" type="line"/>
      <point x="210" y="740" type="line"/>
      <point x="189" y="740" type="line"/>
      <point x="47" y="31" type="line" smooth="yes"/>
      <point x="46" y="26"/>
      <point x="45" y="20"/>
      <point x="45" y="15" type="curve" smooth="yes"/>
      <point x="45" y="4"/>
      <point x="55" y="0"/>
      <point x="68" y="0" type="curve" smooth="yes"/>
    </contour>
    <contour>
      <point x="89" y="0" type="move" name="bottom"/>
    </contour>
    <contour>
      <point x="198" y="740" type="move" name="top"/>
    </contour>
    <contour>
      <point x="259" y="740" type="move" name="topright"/>
    </contour>
  </outline>
</glyph>
<glyph name="m" format="1">
  <advance width="759"/>
  <unicode hex="006D"/>
  <outline>
    <contour>
      <point x="62" y="0" type="line"/>
      <point x="121" y="297" type="line" smooth="yes"/>
      <point x="135" y="369"/>
      <point x="159" y="404"/>
      <point x="181" y="434" type="curve" smooth="yes"/>
      <point x="213" y="478"/>
      <point x="253" y="499"/>
      <point x="297" y="499" type="curve" smooth="yes"/>
      <point x="360" y="499"/>
      <point x="389" y="461"/>
      <point x="389" y="393" type="curve" smooth="yes"/>
      <point x="389" y="379"/>
      <point x="388" y="352"/>
      <point x="383" y="326" type="curve" smooth="yes"/>
      <point x="318" y="0" type="line"/>
      <point x="339" y="0" type="line"/>
      <point x="403" y="319" type="line" smooth="yes"/>
      <point x="417" y="388"/>
      <point x="435" y="411"/>
      <point x="457" y="438" type="curve" smooth="yes"/>
      <point x="492" y="482"/>
      <point x="530" y="499"/>
      <point x="574" y="499" type="curve" smooth="yes"/>
      <point x="637" y="499"/>
      <point x="666" y="461"/>
      <point x="666" y="393" type="curve" smooth="yes"/>
      <point x="666" y="378"/>
      <point x="664" y="347"/>
      <point x="659" y="320" type="curve" smooth="yes"/>
      <point x="601" y="31" type="line" smooth="yes"/>
      <point x="600" y="26"/>
      <point x="599" y="20"/>
      <point x="599" y="15" type="curve" smooth="yes"/>
      <point x="599" y="4"/>
      <point x="609" y="0"/>
      <point x="622" y="0" type="curve" smooth="yes"/>
      <point x="692" y="0" type="line"/>
      <point x="696" y="19" type="line"/>
      <point x="620" y="19" type="line"/>
      <point x="680" y="321" type="line" smooth="yes"/>
      <point x="685" y="346"/>
      <point x="687" y="373"/>
      <point x="687" y="396" type="curve" smooth="yes"/>
      <point x="687" y="473"/>
      <point x="650" y="518"/>
      <point x="577" y="518" type="curve" smooth="yes"/>
      <point x="502" y="518"/>
      <point x="450" y="475"/>
      <point x="416" y="394" type="curve"/>
      <point x="410" y="394" type="line"/>
      <point x="410" y="472"/>
      <point x="373" y="518"/>
      <point x="300" y="518" type="curve" smooth="yes"/>
      <point x="229" y="518"/>
      <point x="180" y="477"/>
      <point x="148" y="401" type="curve"/>
      <point x="142" y="401" type="line"/>
      <point x="163" y="506" type="line" name="hr01"/>
      <point x="142" y="506" type="line"/>
      <point x="41" y="0" type="line"/>
    </contour>
    <contour>
      <point x="328" y="0" type="move" name="bottom"/>
    </contour>
    <contour>
      <point x="436" y="540" type="move" name="top"/>
    </contour>
  </outline>
</glyph>
<glyph name="n" format="1">
  <advance width="495"/>
  <unicode hex="006E"/>
  <outline>
    <contour>
      <point x="62" y="0" type="line"/>
      <point x="121" y="297" type="line" smooth="yes"/>
      <point x="135" y="369"/>
      <point x="159" y="404"/>
      <point x="181" y="434" type="curve" smooth="yes"/>
      <point x="214" y="479"/>
      <point x="257" y="499"/>
      <point x="303" y="499" type="curve" smooth="yes"/>
      <point x="370" y="499"/>
      <point x="401" y="461"/>
      <point x="401" y="393" type="curve" smooth="yes"/>
      <point x="401" y="378"/>
      <point x="399" y="347"/>
      <point x="394" y="320" type="curve" smooth="yes"/>
      <point x="336" y="31" type="line" smooth="yes"/>
      <point x="335" y="26"/>
      <point x="334" y="20"/>
      <point x="334" y="15" type="curve" smooth="yes"/>
      <point x="334" y="4"/>
      <point x="344" y="0"/>
      <point x="357" y="0" type="curve" smooth="yes"/>
      <point x="427" y="0" type="line"/>
      <point x="431" y="19" type="line"/>
      <point x="355" y="19" type="line"/>
      <point x="415" y="321" type="line" smooth="yes"/>
      <point x="420" y="346"/>
      <point x="422" y="373"/>
      <point x="422" y="396" type="curve" smooth="yes"/>
      <point x="422" y="473"/>
      <point x="383" y="518"/>
      <point x="306" y="518" type="curve" smooth="yes"/>
      <point x="232" y="518"/>
      <point x="180" y="477"/>
      <point x="148" y="401" type="curve"/>
      <point x="142" y="401" type="line"/>
      <point x="163" y="506" type="line" name="hr01"/>
      <point x="142" y="506" type="line"/>
      <point x="41" y="0" type="line"/>
    </contour>
    <contour>
      <point x="196" y="0" type="move" name="bottom"/>
    </contour>
    <contour>
      <point x="304" y="540" type="move" name="top"/>
    </contour>
  </outline>
</glyph>
<glyph name="o" format="1">
  <advance width="484"/>
  <unicode hex="006F"/>
  <outline>
    <contour>
      <point x="203" y="-12" type="curve" smooth="yes" name="hr00"/>
      <point x="321" y="-12"/>
      <point x="393" y="87"/>
      <point x="420" y="219" type="curve" smooth="yes"/>
      <point x="428" y="258"/>
      <point x="432" y="297"/>
      <point x="432" y="339" type="curve" smooth="yes"/>
      <point x="432" y="450"/>
      <point x="377" y="518"/>
      <point x="281" y="518" type="curve" smooth="yes"/>
      <point x="163" y="518"/>
      <point x="92" y="418"/>
      <point x="64" y="287" type="curve" smooth="yes"/>
      <point x="56" y="250"/>
      <point x="52" y="209"/>
      <point x="52" y="167" type="curve" smooth="yes"/>
      <point x="52" y="56"/>
      <point x="107" y="-12"/>
    </contour>
    <contour>
      <point x="205" y="7" type="curve" smooth="yes"/>
      <point x="113" y="7"/>
      <point x="72" y="68"/>
      <point x="72" y="167" type="curve" smooth="yes"/>
      <point x="72" y="193"/>
      <point x="74" y="217"/>
      <point x="78" y="239" type="curve" smooth="yes"/>
      <point x="85" y="279" type="line" smooth="yes"/>
      <point x="109" y="414"/>
      <point x="173" y="499"/>
      <point x="279" y="499" type="curve" smooth="yes"/>
      <point x="371" y="499"/>
      <point x="412" y="438"/>
      <point x="412" y="339" type="curve" smooth="yes"/>
      <point x="412" y="313"/>
      <point x="410" y="289"/>
      <point x="406" y="267" type="curve" smooth="yes"/>
      <point x="399" y="227" type="line" smooth="yes"/>
      <point x="375" y="92"/>
      <point x="311" y="7"/>
    </contour>
    <contour>
      <point x="192" y="0" type="move" name="bottom"/>
    </contour>
    <contour>
      <point x="300" y="540" type="move" name="top"/>
    </contour>
  </outline>
</glyph>
<glyph name="q" format="1">
  <advance width="506"/>
  <unicode hex="0071"/>
  <outline>
    <contour>
      <point x="300" y="-200" type="line"/>
      <point x="321" y="-200" type="line"/>
      <point x="462" y="506" type="line"/>
      <point x="441" y="506" type="line"/>
      <point x="423" y="415" type="line"/>
      <point x="417" y="415" type="line"/>
      <point x="403" y="480"/>
      <point x="351" y="518"/>
      <point x="278" y="518" type="curve" smooth="yes" name="hr01"/>
      <point x="171" y="518"/>
      <point x="92" y="434"/>
      <point x="63" y="288" type="curve" smooth="yes"/>
      <point x="56" y="253"/>
      <point x="52" y="214"/>
      <point x="52" y="179" type="curve" smooth="yes"/>
      <point x="52" y="55"/>
      <point x="104" y="-12"/>
      <point x="196" y="-12" type="curve" smooth="yes"/>
      <point x="267" y="-12"/>
      <point x="319" y="27"/>
      <point x="356" y="111" type="curve"/>
      <point x="362" y="111" type="line"/>
    </contour>
    <contour>
      <point x="202" y="7" type="curve" smooth="yes"/>
      <point x="114" y="7"/>
      <point x="72" y="65"/>
      <point x="72" y="183" type="curve" smooth="yes"/>
      <point x="72" y="209"/>
      <point x="74" y="229"/>
      <point x="78" y="248" type="curve" smooth="yes"/>
      <point x="85" y="283" type="line" smooth="yes"/>
      <point x="113" y="423"/>
      <point x="181" y="499"/>
      <point x="278" y="499" type="curve" smooth="yes"/>
      <point x="368" y="499"/>
      <point x="426" y="432"/>
      <point x="409" y="346" type="curve" smooth="yes"/>
      <point x="382" y="209" type="line" smooth="yes"/>
      <point x="370" y="146"/>
      <point x="335" y="85"/>
      <point x="298" y="47" type="curve" smooth="yes"/>
      <point x="271" y="19"/>
      <point x="241" y="7"/>
    </contour>
    <contour>
      <point x="296" y="540" type="move" name="top"/>
    </contour>
  </outline>
</glyph>
<glyph name="r" format="1">
  <advance width="306"/>
  <unicode hex="0072"/>
  <outline>
    <contour>
      <point x="62" y="0" type="line" name="hr00"/>
      <point x="120" y="292" type="line" smooth="yes"/>
      <point x="140" y="393"/>
      <point x="205" y="487"/>
      <point x="296" y="487" type="curve" smooth="yes"/>
      <point x="322" y="487" type="line"/>
      <point x="326" y="506" type="line"/>
      <point x="300" y="506" type="line" smooth="yes"/>
      <point x="218" y="506"/>
      <point x="176" y="458"/>
      <point x="146" y="392" type="curve"/>
      <point x="140" y="392" type="line"/>
      <point x="163" y="506" type="line"/>
      <point x="142" y="506" type="line"/>
      <point x="41" y="0" type="line"/>
    </contour>
    <contour>
      <point x="52" y="0" type="move" name="bottom"/>
    </contour>
    <contour>
      <point x="241" y="540" type="move" name="top"/>
    </contour>
  </outline>
</glyph>
<glyph name="s" format="1">
  <advance width="405"/>
  <unicode hex="0073"/>
  <outline>
    <contour>
      <point x="181" y="-12" type="curve" smooth="yes" name="hr00"/>
      <point x="265" y="-12"/>
      <point x="335" y="37"/>
      <point x="335" y="133" type="curve" smooth="yes"/>
      <point x="335" y="205"/>
      <point x="293" y="240"/>
      <point x="230" y="260" type="curve" smooth="yes"/>
      <point x="185" y="274" type="line" smooth="yes"/>
      <point x="118" y="295"/>
      <point x="98" y="329"/>
      <point x="98" y="382" type="curve" smooth="yes"/>
      <point x="98" y="454"/>
      <point x="151" y="499"/>
      <point x="224" y="499" type="curve" smooth="yes"/>
      <point x="296" y="499"/>
      <point x="332" y="468"/>
      <point x="360" y="428" type="curve"/>
      <point x="376" y="442" type="line"/>
      <point x="345" y="484"/>
      <point x="302" y="518"/>
      <point x="225" y="518" type="curve" smooth="yes"/>
      <point x="146" y="518"/>
      <point x="77" y="469"/>
      <point x="77" y="382" type="curve" smooth="yes"/>
      <point x="77" y="314"/>
      <point x="110" y="277"/>
      <point x="180" y="255" type="curve" smooth="yes"/>
      <point x="225" y="241" type="line" smooth="yes"/>
      <point x="282" y="223"/>
      <point x="314" y="189"/>
      <point x="314" y="132" type="curve" smooth="yes"/>
      <point x="314" y="52"/>
      <point x="259" y="7"/>
      <point x="181" y="7" type="curve" smooth="yes"/>
      <point x="112" y="7"/>
      <point x="64" y="34"/>
      <point x="25" y="95" type="curve"/>
      <point x="8" y="83" type="line"/>
      <point x="49" y="20"/>
      <point x="102" y="-12"/>
    </contour>
    <contour>
      <point x="150" y="0" type="move" name="bottom"/>
    </contour>
    <contour>
      <point x="258" y="540" type="move" name="top"/>
    </contour>
  </outline>
</glyph>
<glyph name="t" format="1">
  <advance width="274"/>
  <unicode hex="0074"/>
  <outline>
    <contour>
      <point x="180" y="0" type="line" name="hr00"/>
      <point x="184" y="19" type="line"/>
      <point x="83" y="19" type="line"/>
      <point x="176" y="487" type="line"/>
      <point x="285" y="487" type="line"/>
      <point x="289" y="506" type="line"/>
      <point x="180" y="506" type="line"/>
      <point x="209" y="650" type="line"/>
      <point x="188" y="650" type="line"/>
      <point x="164" y="531" type="line" smooth="yes"/>
      <point x="161" y="513"/>
      <point x="155" y="506"/>
      <point x="138" y="506" type="curve" smooth="yes"/>
      <point x="74" y="506" type="line"/>
      <point x="70" y="487" type="line"/>
      <point x="155" y="487" type="line"/>
      <point x="64" y="31" type="line" smooth="yes"/>
      <point x="63" y="26"/>
      <point x="62" y="20"/>
      <point x="62" y="15" type="curve" smooth="yes"/>
      <point x="62" y="4"/>
      <point x="72" y="0"/>
      <point x="85" y="0" type="curve" smooth="yes"/>
    </contour>
    <contour>
      <point x="119" y="0" type="move" name="bottom"/>
    </contour>
    <contour>
      <point x="286" y="740" type="move" name="topright"/>
    </contour>
  </outline>
</glyph>
<glyph name="u" format="1">
  <advance width="495"/>
  <unicode hex="0075"/>
  <outline>
    <contour>
      <point x="132" y="506" type="line"/>
      <point x="68" y="185" type="line" smooth="yes"/>
      <point x="63" y="160"/>
      <point x="61" y="133"/>
      <point x="61" y="110" type="curve" smooth="yes"/>
      <point x="61" y="33"/>
      <point x="100" y="-12"/>
      <point x="177" y="-12" type="curve" smooth="yes"/>
      <point x="251" y="-12"/>
      <point x="303" y="29"/>
      <point x="335" y="105" type="curve"/>
      <point x="341" y="105" type="line"/>
      <point x="326" y="31" type="line" smooth="yes"/>
      <point x="325" y="26"/>
      <point x="324" y="20"/>
      <point x="324" y="15" type="curve" smooth="yes"/>
      <point x="324" y="4"/>
      <point x="334" y="0"/>
      <point x="347" y="0" type="curve" smooth="yes" name="hr01"/>
      <point x="417" y="0" type="line"/>
      <point x="421" y="19" type="line"/>
      <point x="345" y="19" type="line"/>
      <point x="442" y="506" type="line"/>
      <point x="421" y="506" type="line"/>
      <point x="362" y="209" type="line" smooth="yes"/>
      <point x="348" y="137"/>
      <point x="324" y="102"/>
      <point x="302" y="72" type="curve" smooth="yes"/>
      <point x="269" y="27"/>
      <point x="226" y="7"/>
      <point x="180" y="7" type="curve" smooth="yes" name="hr02"/>
      <point x="113" y="7"/>
      <point x="82" y="45"/>
      <point x="82" y="113" type="curve" smooth="yes"/>
      <point x="82" y="128"/>
      <point x="84" y="159"/>
      <point x="89" y="186" type="curve" smooth="yes"/>
      <point x="153" y="506" type="line"/>
    </contour>
    <contour>
      <point x="186" y="0" type="move" name="bottom"/>
    </contour>
    <contour>
      <point x="417" y="0" type="move" name="bottomright"/>
    </contour>
    <contour>
      <point x="294" y="540" type="move" name="top"/>
    </contour>
  </outline>
</glyph>
<glyph name="v" format="1">
  <advance width="416"/>
  <unicode hex="0076"/>
  <outline>
    <contour>
      <point x="170" y="0" type="line" name="hr00"/>
      <point x="435" y="506" type="line"/>
      <point x="412" y="506" type="line"/>
      <point x="275" y="243" type="line"/>
      <point x="160" y="19" type="line"/>
      <point x="156" y="19" type="line"/>
      <point x="126" y="243" type="line"/>
      <point x="90" y="506" type="line"/>
      <point x="69" y="506" type="line"/>
      <point x="140" y="0" type="line"/>
    </contour>
    <contour>
      <point x="154" y="0" type="move" name="bottom"/>
    </contour>
    <contour>
      <point x="258" y="540" type="move" name="top"/>
    </contour>
  </outline>
</glyph>
<glyph name="w" format="1">
  <advance width="648"/>
  <unicode hex="0077"/>
  <outline>
    <contour>
      <point x="108" y="0" type="line" name="hr00"/>
      <point x="140" y="0" type="line"/>
      <point x="252" y="243" type="line"/>
      <point x="364" y="486" type="line"/>
      <point x="367" y="486" type="line"/>
      <point x="381" y="243" type="line"/>
      <point x="396" y="0" type="line"/>
      <point x="428" y="0" type="line"/>
      <point x="664" y="506" type="line"/>
      <point x="642" y="506" type="line"/>
      <point x="495" y="189" type="line"/>
      <point x="418" y="20" type="line"/>
      <point x="413" y="20" type="line"/>
      <point x="404" y="189" type="line"/>
      <point x="384" y="506" type="line"/>
      <point x="352" y="506" type="line"/>
      <point x="206" y="189" type="line"/>
      <point x="130" y="20" type="line"/>
      <point x="125" y="20" type="line"/>
      <point x="115" y="189" type="line"/>
      <point x="94" y="506" type="line"/>
      <point x="74" y="506" type="line"/>
    </contour>
    <contour>
      <point x="266" y="0" type="move" name="bottom"/>
    </contour>
    <contour>
      <point x="374" y="540" type="move" name="top"/>
    </contour>
  </outline>
</glyph>
<glyph name="x" format="1">
  <advance width="428"/>
  <unicode hex="0078"/>
  <outline>
    <contour>
      <point x="15" y="0" type="line" name="hr00"/>
      <point x="203" y="236" type="line"/>
      <point x="209" y="236" type="line"/>
      <point x="317" y="0" type="line"/>
      <point x="338" y="0" type="line"/>
      <point x="224" y="253" type="line"/>
      <point x="431" y="506" type="line"/>
      <point x="405" y="506" type="line"/>
      <point x="217" y="274" type="line"/>
      <point x="211" y="274" type="line"/>
      <point x="105" y="506" type="line"/>
      <point x="84" y="506" type="line"/>
      <point x="196" y="257" type="line"/>
      <point x="-11" y="0" type="line"/>
    </contour>
    <contour>
      <point x="159" y="0" type="move" name="bottom"/>
    </contour>
    <contour>
      <point x="267" y="540" type="move" name="top"/>
    </contour>
  </outline>
</glyph>
<glyph name="y" format="1">
  <advance width="416"/>
  <unicode hex="0079"/>
  <outline>
    <contour>
      <point x="275" y="243" type="line" name="hr00"/>
      <point x="160" y="19" type="line"/>
      <point x="156" y="19" type="line"/>
      <point x="126" y="243" type="line"/>
      <point x="90" y="506" type="line"/>
      <point x="69" y="506" type="line"/>
      <point x="142" y="-10" type="line"/>
      <point x="53" y="-181" type="line"/>
      <point x="-20" y="-181" type="line"/>
      <point x="-24" y="-200" type="line"/>
      <point x="45" y="-200" type="line" smooth="yes"/>
      <point x="61" y="-200"/>
      <point x="68" y="-196"/>
      <point x="76" y="-180" type="curve" smooth="yes"/>
      <point x="435" y="506" type="line"/>
      <point x="412" y="506" type="line"/>
    </contour>
    <contour>
      <point x="266" y="0" type="move" name="bottom"/>
    </contour>
    <contour>
      <point x="258" y="540" type="move" name="top"/>
    </contour>
  </outline>
</glyph>
<glyph name="z" format="1">
  <advance width="389"/>
  <unicode hex="007A"/>
  <outline>
    <contour>
      <point x="306" y="0" type="line" name="hr00"/>
      <point x="310" y="19" type="line"/>
      <point x="22" y="19" type="line"/>
      <point x="387" y="486" type="line"/>
      <point x="391" y="506" type="line"/>
      <point x="90" y="506" type="line"/>
      <point x="86" y="487" type="line"/>
      <point x="363" y="487" type="line"/>
      <point x="-3" y="20" type="line"/>
      <point x="-6" y="0" type="line"/>
    </contour>
    <contour>
      <point x="152" y="0" type="move" name="bottom"/>
    </contour>
    <contour>
      <point x="248" y="540" type="move" name="top"/>
    </contour>
  </outline>
</glyph>
<glyph name="braceleft" format="1">
  <advance width="286"/>
  <unicode hex="007B"/>
  <outline>
    <contour>
      <point x="146" y="-138" type="line" name="hr00"/>
      <point x="150" y="-120" type="line"/>
      <point x="57" y="-120" type="line"/>
      <point x="120" y="201" type="line" smooth="yes"/>
      <point x="122" y="212"/>
      <point x="123" y="221"/>
      <point x="123" y="230" type="curve" smooth="yes"/>
      <point x="123" y="279"/>
      <point x="97" y="303"/>
      <point x="51" y="303" type="curve"/>
      <point x="55" y="319" type="line"/>
      <point x="110" y="319"/>
      <point x="150" y="351"/>
      <point x="164" y="421" type="curve" smooth="yes"/>
      <point x="227" y="742" type="line"/>
      <point x="320" y="742" type="line"/>
      <point x="324" y="760" type="line"/>
      <point x="236" y="760" type="line" smooth="yes"/>
      <point x="218" y="760"/>
      <point x="210" y="753"/>
      <point x="206" y="734" type="curve" smooth="yes"/>
      <point x="144" y="421" type="line" smooth="yes"/>
      <point x="131" y="355"/>
      <point x="96" y="335"/>
      <point x="40" y="335" type="curve"/>
      <point x="30" y="287" type="line"/>
      <point x="80" y="287"/>
      <point x="103" y="273"/>
      <point x="103" y="228" type="curve" smooth="yes"/>
      <point x="103" y="220"/>
      <point x="102" y="211"/>
      <point x="100" y="201" type="curve" smooth="yes"/>
      <point x="41" y="-97" type="line" smooth="yes"/>
      <point x="38" y="-112"/>
      <point x="37" y="-117"/>
      <point x="37" y="-120" type="curve" smooth="yes"/>
      <point x="37" y="-133"/>
      <point x="43" y="-138"/>
      <point x="57" y="-138" type="curve" smooth="yes"/>
    </contour>
  </outline>
</glyph>
<glyph name="bar" format="1">
  <advance width="212"/>
  <unicode hex="007C"/>
  <outline>
    <contour>
      <point x="37" y="-138" type="line" name="hr00"/>
      <point x="217" y="760" type="line"/>
      <point x="197" y="760" type="line"/>
      <point x="17" y="-138" type="line"/>
    </contour>
  </outline>
</glyph>
<glyph name="braceright" format="1">
  <advance width="286"/>
  <unicode hex="007D"/>
  <outline>
    <contour>
      <point x="-19" y="-138" type="line" name="hr00"/>
      <point x="69" y="-138" type="line" smooth="yes"/>
      <point x="87" y="-138"/>
      <point x="95" y="-131"/>
      <point x="99" y="-112" type="curve" smooth="yes"/>
      <point x="161" y="201" type="line" smooth="yes"/>
      <point x="174" y="267"/>
      <point x="209" y="287"/>
      <point x="265" y="287" type="curve"/>
      <point x="275" y="335" type="line"/>
      <point x="224" y="335"/>
      <point x="202" y="348"/>
      <point x="202" y="394" type="curve" smooth="yes"/>
      <point x="202" y="402"/>
      <point x="203" y="411"/>
      <point x="205" y="421" type="curve" smooth="yes"/>
      <point x="264" y="719" type="line" smooth="yes"/>
      <point x="267" y="734"/>
      <point x="268" y="739"/>
      <point x="268" y="742" type="curve" smooth="yes"/>
      <point x="268" y="755"/>
      <point x="262" y="760"/>
      <point x="248" y="760" type="curve" smooth="yes"/>
      <point x="159" y="760" type="line"/>
      <point x="155" y="742" type="line"/>
      <point x="248" y="742" type="line"/>
      <point x="185" y="421" type="line" smooth="yes"/>
      <point x="183" y="410"/>
      <point x="182" y="401"/>
      <point x="182" y="392" type="curve" smooth="yes"/>
      <point x="182" y="343"/>
      <point x="208" y="319"/>
      <point x="254" y="319" type="curve"/>
      <point x="250" y="303" type="line"/>
      <point x="195" y="303"/>
      <point x="155" y="271"/>
      <point x="141" y="201" type="curve" smooth="yes"/>
      <point x="78" y="-120" type="line"/>
      <point x="-15" y="-120" type="line"/>
    </contour>
  </outline>
</glyph>
<glyph name="asciitilde" format="1">
  <advance width="540"/>
  <unicode hex="007E"/>
  <outline>
    <contour>
      <point x="382" y="256" type="curve" smooth="yes" name="hr00"/>
      <point x="421" y="256"/>
      <point x="455" y="270"/>
      <point x="492" y="304" type="curve"/>
      <point x="481" y="318" type="line"/>
      <point x="447" y="287"/>
      <point x="422" y="276"/>
      <point x="387" y="276" type="curve" smooth="yes"/>
      <point x="354" y="276"/>
      <point x="333" y="286"/>
      <point x="286" y="312" type="curve" smooth="yes"/>
      <point x="236" y="340"/>
      <point x="213" y="352"/>
      <point x="178" y="352" type="curve" smooth="yes"/>
      <point x="139" y="352"/>
      <point x="105" y="338"/>
      <point x="68" y="304" type="curve"/>
      <point x="79" y="290" type="line"/>
      <point x="113" y="321"/>
      <point x="138" y="332"/>
      <point x="173" y="332" type="curve" smooth="yes"/>
      <point x="206" y="332"/>
      <point x="227" y="322"/>
      <point x="274" y="296" type="curve" smooth="yes"/>
      <point x="324" y="268"/>
      <point x="347" y="256"/>
    </contour>
  </outline>
</glyph>
<glyph name="exclamdown" format="1">
  <advance width="224"/>
  <unicode hex="00A1"/>
  <outline>
    <contour>
      <point x="34" y="-192" type="line" name="hr00"/>
      <point x="91" y="91" type="line"/>
      <point x="134" y="330" type="line"/>
      <point x="122" y="330" type="line"/>
      <point x="68" y="91" type="line"/>
      <point x="12" y="-192" type="line"/>
    </contour>
    <contour>
      <point x="152" y="453" type="curve" smooth="yes"/>
      <point x="171" y="453"/>
      <point x="178" y="464"/>
      <point x="181" y="475" type="curve" smooth="yes"/>
      <point x="182" y="479"/>
      <point x="184" y="488"/>
      <point x="184" y="492" type="curve" smooth="yes"/>
      <point x="184" y="501"/>
      <point x="178" y="511"/>
      <point x="162" y="511" type="curve" smooth="yes"/>
      <point x="143" y="511"/>
      <point x="136" y="500"/>
      <point x="133" y="489" type="curve" smooth="yes"/>
      <point x="132" y="485"/>
      <point x="130" y="476"/>
      <point x="130" y="472" type="curve" smooth="yes"/>
      <point x="130" y="463"/>
      <point x="136" y="453"/>
    </contour>
  </outline>
</glyph>
<glyph name="cent" format="1">
  <advance width="441"/>
  <unicode hex="00A2"/>
  <outline>
    <contour>
      <point x="151" y="-114" type="line" name="hr00"/>
      <point x="171" y="-114" type="line"/>
      <point x="191" y="-12" type="line"/>
      <point x="198" y="-12"/>
      <point x="203" y="-12"/>
      <point x="206" y="-12" type="curve" smooth="yes"/>
      <point x="285" y="-12"/>
      <point x="330" y="37"/>
      <point x="376" y="115" type="curve"/>
      <point x="359" y="124" type="line"/>
      <point x="319" y="50"/>
      <point x="275" y="6"/>
      <point x="206" y="6" type="curve" smooth="yes"/>
      <point x="195" y="6" type="line"/>
      <point x="292" y="498" type="line"/>
      <point x="343" y="491"/>
      <point x="378" y="456"/>
      <point x="390" y="398" type="curve"/>
      <point x="409" y="403" type="line"/>
      <point x="398" y="464"/>
      <point x="358" y="508"/>
      <point x="296" y="516" type="curve"/>
      <point x="317" y="620" type="line"/>
      <point x="297" y="620" type="line"/>
      <point x="276" y="518" type="line"/>
      <point x="275" y="518" type="line" smooth="yes"/>
      <point x="163" y="518"/>
      <point x="89" y="419"/>
      <point x="63" y="288" type="curve" smooth="yes"/>
      <point x="56" y="253"/>
      <point x="52" y="215"/>
      <point x="52" y="176" type="curve" smooth="yes"/>
      <point x="52" y="80"/>
      <point x="90" y="6"/>
      <point x="172" y="-9" type="curve"/>
    </contour>
    <contour>
      <point x="72" y="176" type="curve" smooth="yes"/>
      <point x="72" y="192"/>
      <point x="74" y="218"/>
      <point x="77" y="238" type="curve" smooth="yes"/>
      <point x="84" y="282" type="line" smooth="yes"/>
      <point x="105" y="415"/>
      <point x="179" y="499"/>
      <point x="273" y="499" type="curve"/>
      <point x="176" y="9" type="line"/>
      <point x="101" y="24"/>
      <point x="72" y="93"/>
    </contour>
  </outline>
</glyph>
<glyph name="sterling" format="1">
  <advance width="522"/>
  <unicode hex="00A3"/>
  <outline>
    <contour>
      <point x="410" y="0" type="line"/>
      <point x="414" y="20" type="line"/>
      <point x="53" y="20" type="line"/>
      <point x="54" y="26" type="line"/>
      <point x="136" y="62"/>
      <point x="187" y="142"/>
      <point x="187" y="250" type="curve" smooth="yes"/>
      <point x="187" y="263"/>
      <point x="186" y="291"/>
      <point x="185" y="311" type="curve"/>
      <point x="371" y="311" type="line"/>
      <point x="375" y="331" type="line"/>
      <point x="183" y="331" type="line"/>
      <point x="179" y="381"/>
      <point x="174" y="442"/>
      <point x="174" y="497" type="curve" smooth="yes" name="hr01"/>
      <point x="174" y="630"/>
      <point x="255" y="690"/>
      <point x="355" y="690" type="curve" smooth="yes"/>
      <point x="428" y="690"/>
      <point x="480" y="659"/>
      <point x="505" y="582" type="curve"/>
      <point x="525" y="592" type="line"/>
      <point x="497" y="672"/>
      <point x="437" y="710"/>
      <point x="357" y="710" type="curve" smooth="yes"/>
      <point x="246" y="710"/>
      <point x="152" y="641"/>
      <point x="152" y="497" type="curve" smooth="yes"/>
      <point x="152" y="442"/>
      <point x="157" y="381"/>
      <point x="161" y="331" type="curve"/>
      <point x="80" y="331" type="line"/>
      <point x="76" y="311" type="line"/>
      <point x="163" y="311" type="line"/>
      <point x="164" y="291"/>
      <point x="165" y="263"/>
      <point x="165" y="250" type="curve" smooth="yes" name="hr02"/>
      <point x="165" y="142"/>
      <point x="120" y="69"/>
      <point x="29" y="25" type="curve"/>
      <point x="23" y="0" type="line"/>
    </contour>
  </outline>
</glyph>
<glyph name="yen" format="1">
  <advance width="511"/>
  <unicode hex="00A5"/>
  <outline>
    <contour>
      <point x="425" y="168" type="line" name="hr00"/>
      <point x="429" y="186" type="line"/>
      <point x="252" y="186" type="line"/>
      <point x="280" y="326" type="line"/>
      <point x="457" y="326" type="line"/>
      <point x="461" y="344" type="line"/>
      <point x="294" y="344" type="line"/>
      <point x="560" y="698" type="line"/>
      <point x="534" y="698" type="line"/>
      <point x="274" y="348" type="line"/>
      <point x="271" y="348" type="line"/>
      <point x="150" y="698" type="line"/>
      <point x="127" y="698" type="line"/>
      <point x="251" y="344" type="line"/>
      <point x="85" y="344" type="line"/>
      <point x="81" y="326" type="line"/>
      <point x="258" y="326" type="line"/>
      <point x="230" y="186" type="line"/>
      <point x="53" y="186" type="line"/>
      <point x="49" y="168" type="line"/>
      <point x="226" y="168" type="line"/>
      <point x="192" y="0" type="line"/>
      <point x="214" y="0" type="line"/>
      <point x="248" y="168" type="line"/>
    </contour>
  </outline>
</glyph>
<glyph name="brokenbar" format="1">
  <advance width="212"/>
  <unicode hex="00A6"/>
  <outline>
    <contour>
      <point x="145" y="401" type="line" name="hr00"/>
      <point x="217" y="760" type="line"/>
      <point x="197" y="760" type="line"/>
      <point x="125" y="401" type="line"/>
    </contour>
    <contour>
      <point x="37" y="-138" type="line"/>
      <point x="109" y="221" type="line"/>
      <point x="89" y="221" type="line"/>
      <point x="17" y="-138" type="line"/>
    </contour>
  </outline>
</glyph>
<glyph name="section" format="1">
  <advance width="507"/>
  <unicode hex="00A7"/>
  <outline>
    <contour>
      <point x="429" y="283" type="curve" smooth="yes" name="hr00"/>
      <point x="429" y="353"/>
      <point x="399" y="383"/>
      <point x="334" y="408" type="curve" smooth="yes"/>
      <point x="265" y="434" type="line" smooth="yes"/>
      <point x="212" y="454"/>
      <point x="184" y="487"/>
      <point x="184" y="553" type="curve" smooth="yes"/>
      <point x="184" y="643"/>
      <point x="244" y="691"/>
      <point x="336" y="691" type="curve" smooth="yes"/>
      <point x="390" y="691"/>
      <point x="426" y="673"/>
      <point x="453" y="643" type="curve"/>
      <point x="469" y="657" type="line"/>
      <point x="439" y="689"/>
      <point x="399" y="710"/>
      <point x="338" y="710" type="curve" smooth="yes"/>
      <point x="236" y="710"/>
      <point x="163" y="655"/>
      <point x="163" y="553" type="curve" smooth="yes"/>
      <point x="163" y="501"/>
      <point x="179" y="463"/>
      <point x="215" y="437" type="curve"/>
      <point x="215" y="434" type="line"/>
      <point x="129" y="406"/>
      <point x="78" y="356"/>
      <point x="78" y="274" type="curve" smooth="yes"/>
      <point x="78" y="204"/>
      <point x="108" y="174"/>
      <point x="173" y="149" type="curve" smooth="yes"/>
      <point x="242" y="123" type="line" smooth="yes"/>
      <point x="295" y="103"/>
      <point x="323" y="70"/>
      <point x="323" y="4" type="curve" smooth="yes"/>
      <point x="323" y="-86"/>
      <point x="263" y="-134"/>
      <point x="171" y="-134" type="curve" smooth="yes"/>
      <point x="117" y="-134"/>
      <point x="81" y="-116"/>
      <point x="54" y="-86" type="curve"/>
      <point x="38" y="-100" type="line"/>
      <point x="68" y="-132"/>
      <point x="108" y="-153"/>
      <point x="169" y="-153" type="curve" smooth="yes"/>
      <point x="271" y="-153"/>
      <point x="344" y="-98"/>
      <point x="344" y="4" type="curve" smooth="yes"/>
      <point x="344" y="56"/>
      <point x="328" y="94"/>
      <point x="292" y="120" type="curve"/>
      <point x="292" y="123" type="line"/>
      <point x="378" y="151"/>
      <point x="429" y="201"/>
    </contour>
    <contour>
      <point x="99" y="274" type="curve" smooth="yes"/>
      <point x="99" y="352"/>
      <point x="149" y="397"/>
      <point x="233" y="427" type="curve"/>
      <point x="241" y="423"/>
      <point x="249" y="420"/>
      <point x="325" y="391" type="curve" smooth="yes"/>
      <point x="387" y="367"/>
      <point x="408" y="341"/>
      <point x="408" y="283" type="curve" smooth="yes"/>
      <point x="408" y="205"/>
      <point x="358" y="160"/>
      <point x="274" y="130" type="curve"/>
      <point x="266" y="134"/>
      <point x="258" y="137"/>
      <point x="182" y="166" type="curve" smooth="yes"/>
      <point x="120" y="190"/>
      <point x="99" y="216"/>
    </contour>
  </outline>
</glyph>
<glyph name="dieresis" format="1">
  <advance width="540"/>
  <unicode hex="00A8"/>
  <outline>
    <contour>
      <point x="200" y="642" type="curve" smooth="yes" name="hr00"/>
      <point x="214" y="642"/>
      <point x="220" y="648"/>
      <point x="223" y="659" type="curve" smooth="yes"/>
      <point x="224" y="663"/>
      <point x="225" y="669"/>
      <point x="225" y="674" type="curve" smooth="yes"/>
      <point x="225" y="682"/>
      <point x="221" y="691"/>
      <point x="207" y="691" type="curve" smooth="yes"/>
      <point x="193" y="691"/>
      <point x="187" y="685"/>
      <point x="184" y="674" type="curve" smooth="yes"/>
      <point x="183" y="670"/>
      <point x="182" y="664"/>
      <point x="182" y="659" type="curve" smooth="yes"/>
      <point x="182" y="651"/>
      <point x="186" y="642"/>
    </contour>
    <contour>
      <point x="363" y="642" type="curve" smooth="yes"/>
      <point x="377" y="642"/>
      <point x="383" y="648"/>
      <point x="386" y="659" type="curve" smooth="yes"/>
      <point x="387" y="663"/>
      <point x="388" y="669"/>
      <point x="388" y="674" type="curve" smooth="yes"/>
      <point x="388" y="682"/>
      <point x="384" y="691"/>
      <point x="370" y="691" type="curve" smooth="yes"/>
      <point x="356" y="691"/>
      <point x="350" y="685"/>
      <point x="347" y="674" type="curve" smooth="yes"/>
      <point x="346" y="670"/>
      <point x="345" y="664"/>
      <point x="345" y="659" type="curve" smooth="yes"/>
      <point x="345" y="651"/>
      <point x="349" y="642"/>
    </contour>
    <contour>
      <point x="270" y="540" type="move" name="_top"/>
    </contour>
  </outline>
</glyph>
<glyph name="copyright" format="1">
  <advance width="635"/>
  <unicode hex="00A9"/>
  <outline>
    <contour>
      <point x="287" y="6" type="curve" smooth="yes"/>
      <point x="132" y="6"/>
      <point x="52" y="121"/>
      <point x="52" y="283" type="curve" smooth="yes"/>
      <point x="52" y="310"/>
      <point x="53" y="335"/>
      <point x="65" y="403" type="curve" smooth="yes"/>
      <point x="94" y="562"/>
      <point x="211" y="692"/>
      <point x="374" y="692" type="curve" smooth="yes"/>
      <point x="529" y="692"/>
      <point x="609" y="577"/>
      <point x="609" y="415" type="curve" smooth="yes"/>
      <point x="609" y="388"/>
      <point x="608" y="363"/>
      <point x="596" y="295" type="curve" smooth="yes"/>
      <point x="567" y="136"/>
      <point x="450" y="6"/>
    </contour>
    <contour>
      <point x="287" y="-12" type="curve" smooth="yes" name="hr01"/>
      <point x="444" y="-12"/>
      <point x="577" y="104"/>
      <point x="618" y="293" type="curve" smooth="yes"/>
      <point x="626" y="331"/>
      <point x="630" y="372"/>
      <point x="630" y="415" type="curve" smooth="yes"/>
      <point x="630" y="596"/>
      <point x="534" y="710"/>
      <point x="374" y="710" type="curve" smooth="yes"/>
      <point x="217" y="710"/>
      <point x="84" y="594"/>
      <point x="43" y="405" type="curve" smooth="yes"/>
      <point x="35" y="367"/>
      <point x="31" y="326"/>
      <point x="31" y="283" type="curve" smooth="yes"/>
      <point x="31" y="102"/>
      <point x="127" y="-12"/>
    </contour>
    <contour>
      <point x="313" y="149" type="curve" smooth="yes" name="hr02"/>
      <point x="366" y="149"/>
      <point x="412" y="186"/>
      <point x="434" y="230" type="curve"/>
      <point x="420" y="238" type="line"/>
      <point x="396" y="194"/>
      <point x="358" y="166"/>
      <point x="314" y="166" type="curve" smooth="yes"/>
      <point x="250" y="166"/>
      <point x="217" y="204"/>
      <point x="217" y="301" type="curve" smooth="yes"/>
      <point x="217" y="312"/>
      <point x="218" y="328"/>
      <point x="221" y="347" type="curve" smooth="yes"/>
      <point x="225" y="370" type="line" smooth="yes"/>
      <point x="243" y="474"/>
      <point x="297" y="526"/>
      <point x="371" y="526" type="curve" smooth="yes" name="hr03"/>
      <point x="421" y="526"/>
      <point x="446" y="497"/>
      <point x="459" y="458" type="curve"/>
      <point x="476" y="464" type="line"/>
      <point x="463" y="506"/>
      <point x="429" y="543"/>
      <point x="373" y="543" type="curve" smooth="yes"/>
      <point x="284" y="543"/>
      <point x="221" y="476"/>
      <point x="203" y="369" type="curve" smooth="yes"/>
      <point x="199" y="348"/>
      <point x="197" y="325"/>
      <point x="197" y="301" type="curve" smooth="yes"/>
      <point x="197" y="190"/>
      <point x="244" y="149"/>
    </contour>
  </outline>
</glyph>
<glyph name="ordfeminine" format="1">
  <advance width="321"/>
  <unicode hex="00AA"/>
  <outline>
    <contour>
      <point x="321" y="383" type="line"/>
      <point x="278" y="383" type="line"/>
      <point x="319" y="599" type="line" smooth="yes"/>
      <point x="320" y="606"/>
      <point x="321" y="616"/>
      <point x="321" y="622" type="curve" smooth="yes"/>
      <point x="321" y="677"/>
      <point x="285" y="704"/>
      <point x="231" y="704" type="curve" smooth="yes"/>
      <point x="179" y="704"/>
      <point x="140" y="681"/>
      <point x="116" y="637" type="curve"/>
      <point x="130" y="629" type="line"/>
      <point x="154" y="672"/>
      <point x="187" y="687"/>
      <point x="228" y="687" type="curve" smooth="yes"/>
      <point x="271" y="687"/>
      <point x="303" y="670"/>
      <point x="303" y="622" type="curve" smooth="yes"/>
      <point x="303" y="615"/>
      <point x="302" y="606"/>
      <point x="301" y="598" type="curve" smooth="yes"/>
      <point x="291" y="542" type="line"/>
      <point x="204" y="542" type="line" smooth="yes"/>
      <point x="106" y="542"/>
      <point x="70" y="495"/>
      <point x="70" y="438" type="curve" smooth="yes"/>
      <point x="70" y="390"/>
      <point x="99" y="360"/>
      <point x="155" y="360" type="curve" smooth="yes" name=""/>
      <point x="210" y="360"/>
      <point x="245" y="388"/>
      <point x="263" y="416" type="curve"/>
      <point x="265" y="416" type="line"/>
      <point x="261" y="394" type="line" smooth="yes"/>
      <point x="260" y="388"/>
      <point x="259" y="382"/>
      <point x="259" y="377" type="curve" smooth="yes"/>
      <point x="259" y="370"/>
      <point x="263" y="366"/>
      <point x="272" y="366" type="curve" smooth="yes" name=""/>
      <point x="318" y="366" type="line"/>
    </contour>
    <contour>
      <point x="287" y="525" type="line"/>
      <point x="275" y="465" type="line" smooth="yes"/>
      <point x="263" y="406"/>
      <point x="210" y="377"/>
      <point x="156" y="377" type="curve" smooth="yes" name=""/>
      <point x="112" y="377"/>
      <point x="91" y="397"/>
      <point x="91" y="438" type="curve" smooth="yes"/>
      <point x="91" y="443"/>
      <point x="92" y="451"/>
      <point x="94" y="463" type="curve" smooth="yes"/>
      <point x="101" y="497"/>
      <point x="127" y="525"/>
      <point x="200" y="525" type="curve" smooth="yes"/>
    </contour>
  </outline>
</glyph>
<glyph name="logicalnot" format="1">
  <advance width="540"/>
  <unicode hex="00AC"/>
  <outline>
    <contour>
      <point x="438" y="104" type="line" name="hr00"/>
      <point x="480" y="315" type="line"/>
      <point x="66" y="315" type="line"/>
      <point x="62" y="296" type="line"/>
      <point x="456" y="296" type="line"/>
      <point x="417" y="104" type="line"/>
    </contour>
  </outline>
</glyph>
<glyph name="registered" format="1">
  <advance width="421"/>
  <unicode hex="00AE"/>
  <outline>
    <contour>
      <point x="231" y="298" type="curve" smooth="yes" name="hr00"/>
      <point x="387" y="298"/>
      <point x="443" y="443"/>
      <point x="443" y="544" type="curve" smooth="yes"/>
      <point x="443" y="643"/>
      <point x="383" y="710"/>
      <point x="289" y="710" type="curve" smooth="yes"/>
      <point x="133" y="710"/>
      <point x="77" y="565"/>
      <point x="77" y="464" type="curve" smooth="yes"/>
      <point x="77" y="365"/>
      <point x="137" y="298"/>
    </contour>
    <contour>
      <point x="234" y="314" type="curve" smooth="yes"/>
      <point x="147" y="314"/>
      <point x="94" y="371"/>
      <point x="94" y="464" type="curve" smooth="yes"/>
      <point x="94" y="477"/>
      <point x="96" y="490"/>
      <point x="102" y="524" type="curve" smooth="yes"/>
      <point x="120" y="622"/>
      <point x="185" y="694"/>
      <point x="286" y="694" type="curve" smooth="yes"/>
      <point x="373" y="694"/>
      <point x="426" y="637"/>
      <point x="426" y="544" type="curve" smooth="yes"/>
      <point x="426" y="531"/>
      <point x="424" y="518"/>
      <point x="418" y="484" type="curve" smooth="yes"/>
      <point x="400" y="386"/>
      <point x="335" y="314"/>
    </contour>
    <contour>
      <point x="214" y="488" type="line"/>
      <point x="269" y="488" type="line"/>
      <point x="300" y="397" type="line"/>
      <point x="316" y="397" type="line"/>
      <point x="284" y="490" type="line"/>
      <point x="314" y="491"/>
      <point x="342" y="515"/>
      <point x="342" y="562" type="curve" smooth="yes"/>
      <point x="342" y="593"/>
      <point x="324" y="609"/>
      <point x="293" y="609" type="curve" smooth="yes"/>
      <point x="223" y="609" type="line"/>
      <point x="181" y="397" type="line"/>
      <point x="196" y="397" type="line"/>
    </contour>
    <contour>
      <point x="217" y="503" type="line"/>
      <point x="235" y="594" type="line"/>
      <point x="291" y="594" type="line" smooth="yes"/>
      <point x="314" y="594"/>
      <point x="326" y="582"/>
      <point x="326" y="562" type="curve" smooth="yes"/>
      <point x="326" y="558"/>
      <point x="326" y="552"/>
      <point x="324" y="542" type="curve" smooth="yes"/>
      <point x="318" y="511"/>
      <point x="302" y="503"/>
      <point x="272" y="503" type="curve" smooth="yes"/>
    </contour>
  </outline>
</glyph>
<glyph name="macron" format="1">
  <advance width="540"/>
  <unicode hex="00AF"/>
  <outline>
    <contour>
      <point x="168" y="658" type="line" name="hr00"/>
      <point x="399" y="658" type="line"/>
      <point x="403" y="676" type="line"/>
      <point x="172" y="676" type="line"/>
    </contour>
    <contour>
      <point x="270" y="540" type="move" name="_top"/>
    </contour>
  </outline>
</glyph>
<glyph name="degree" format="1">
  <advance width="420"/>
  <unicode hex="00B0"/>
  <outline>
    <contour>
      <point x="245" y="374" type="curve" smooth="yes" name="hr00"/>
      <point x="335" y="374"/>
      <point x="410" y="450"/>
      <point x="410" y="570" type="curve" smooth="yes"/>
      <point x="410" y="651"/>
      <point x="362" y="710"/>
      <point x="286" y="710" type="curve" smooth="yes"/>
      <point x="196" y="710"/>
      <point x="121" y="634"/>
      <point x="121" y="514" type="curve" smooth="yes"/>
      <point x="121" y="433"/>
      <point x="169" y="374"/>
    </contour>
    <contour>
      <point x="248" y="393" type="curve" smooth="yes"/>
      <point x="177" y="393"/>
      <point x="141" y="445"/>
      <point x="141" y="515" type="curve" smooth="yes"/>
      <point x="141" y="623"/>
      <point x="204" y="691"/>
      <point x="283" y="691" type="curve" smooth="yes"/>
      <point x="354" y="691"/>
      <point x="390" y="639"/>
      <point x="390" y="569" type="curve" smooth="yes"/>
      <point x="390" y="461"/>
      <point x="327" y="393"/>
    </contour>
  </outline>
</glyph>
<glyph name="plusminus" format="1">
  <advance width="540"/>
  <unicode hex="00B1"/>
  <outline>
    <contour>
      <point x="257" y="137" type="line"/>
      <point x="300" y="349" type="line"/>
      <point x="504" y="349" type="line"/>
      <point x="508" y="368" type="line"/>
      <point x="304" y="368" type="line"/>
      <point x="347" y="580" type="line" name="hr01"/>
      <point x="326" y="580" type="line"/>
      <point x="283" y="368" type="line"/>
      <point x="79" y="368" type="line"/>
      <point x="75" y="349" type="line"/>
      <point x="279" y="349" type="line"/>
      <point x="236" y="137" type="line" name="hr02"/>
    </contour>
    <contour>
      <point x="433" y="0" type="line"/>
      <point x="437" y="19" type="line"/>
      <point x="9" y="19" type="line"/>
      <point x="5" y="0" type="line"/>
    </contour>
  </outline>
</glyph>
<glyph name="twosuperior" format="1">
  <advance width="320"/>
  <unicode hex="00B2"/>
  <outline>
    <contour>
      <point x="291" y="346" type="line" name="hr00"/>
      <point x="83" y="346" type="line"/>
      <point x="219" y="452" type="line" smooth="yes"/>
      <point x="294" y="510"/>
      <point x="329" y="554"/>
      <point x="329" y="608" type="curve" smooth="yes"/>
      <point x="329" y="661"/>
      <point x="293" y="704"/>
      <point x="232" y="704" type="curve" smooth="yes"/>
      <point x="164" y="704"/>
      <point x="130" y="667"/>
      <point x="107" y="615" type="curve"/>
      <point x="123" y="609" type="line"/>
      <point x="143" y="656"/>
      <point x="173" y="687"/>
      <point x="230" y="687" type="curve" smooth="yes"/>
      <point x="282" y="687"/>
      <point x="310" y="654"/>
      <point x="310" y="608" type="curve" smooth="yes"/>
      <point x="310" y="603"/>
      <point x="309" y="595"/>
      <point x="306" y="580" type="curve" smooth="yes"/>
      <point x="299" y="543"/>
      <point x="266" y="510"/>
      <point x="208" y="464" type="curve" smooth="yes"/>
      <point x="61" y="349" type="line"/>
      <point x="56" y="329" type="line"/>
      <point x="287" y="329" type="line"/>
    </contour>
  </outline>
</glyph>
<glyph name="threesuperior" format="1">
  <advance width="320"/>
  <unicode hex="00B3"/>
  <outline>
    <contour>
      <point x="166" y="529" type="line" name="hr00"/>
      <point x="163" y="512" type="line"/>
      <point x="211" y="512" type="line" smooth="yes"/>
      <point x="268" y="512"/>
      <point x="288" y="486"/>
      <point x="288" y="436" type="curve" smooth="yes"/>
      <point x="288" y="429"/>
      <point x="287" y="423"/>
      <point x="285" y="412" type="curve" smooth="yes"/>
      <point x="277" y="367"/>
      <point x="245" y="340"/>
      <point x="184" y="340" type="curve" smooth="yes"/>
      <point x="131" y="340"/>
      <point x="104" y="359"/>
      <point x="89" y="390" type="curve"/>
      <point x="74" y="380" type="line"/>
      <point x="90" y="348"/>
      <point x="125" y="323"/>
      <point x="182" y="323" type="curve" smooth="yes"/>
      <point x="258" y="323"/>
      <point x="307" y="367"/>
      <point x="307" y="437" type="curve" smooth="yes"/>
      <point x="307" y="483"/>
      <point x="287" y="511"/>
      <point x="246" y="518" type="curve"/>
      <point x="247" y="522" type="line"/>
      <point x="300" y="529"/>
      <point x="333" y="568"/>
      <point x="333" y="621" type="curve" smooth="yes"/>
      <point x="333" y="673"/>
      <point x="298" y="704"/>
      <point x="239" y="704" type="curve" smooth="yes"/>
      <point x="188" y="704"/>
      <point x="154" y="684"/>
      <point x="129" y="651" type="curve"/>
      <point x="141" y="641" type="line"/>
      <point x="166" y="672"/>
      <point x="191" y="687"/>
      <point x="236" y="687" type="curve" smooth="yes"/>
      <point x="289" y="687"/>
      <point x="314" y="663"/>
      <point x="314" y="621" type="curve" smooth="yes"/>
      <point x="314" y="616"/>
      <point x="314" y="610"/>
      <point x="313" y="602" type="curve" smooth="yes"/>
      <point x="308" y="558"/>
      <point x="273" y="529"/>
      <point x="208" y="529" type="curve" smooth="yes"/>
    </contour>
  </outline>
</glyph>
<glyph name="acute" format="1">
  <advance width="540"/>
  <unicode hex="00B4"/>
  <outline>
    <contour>
      <point x="394" y="738" type="line" name="hr00"/>
      <point x="378" y="751" type="line"/>
      <point x="247" y="597" type="line"/>
      <point x="259" y="587" type="line"/>
    </contour>
    <contour>
      <point x="270" y="540" type="move" name="_top"/>
    </contour>
  </outline>
</glyph>
<glyph name="paragraph" format="1">
  <advance width="534"/>
  <unicode hex="00B6"/>
  <outline>
    <contour>
      <point x="143" y="-149" type="line" name="hr00"/>
      <point x="164" y="-149" type="line"/>
      <point x="330" y="680" type="line"/>
      <point x="447" y="680" type="line"/>
      <point x="281" y="-149" type="line"/>
      <point x="302" y="-149" type="line"/>
      <point x="468" y="680" type="line"/>
      <point x="529" y="680" type="line"/>
      <point x="533" y="698" type="line"/>
      <point x="321" y="698" type="line" smooth="yes"/>
      <point x="184" y="698"/>
      <point x="92" y="624"/>
      <point x="92" y="486" type="curve" smooth="yes"/>
      <point x="92" y="387"/>
      <point x="157" y="330"/>
      <point x="239" y="330" type="curve"/>
    </contour>
  </outline>
</glyph>
<glyph name="periodcentered" format="1">
  <advance width="270"/>
  <unicode hex="00B7"/>
  <outline>
    <contour>
      <point x="140" y="277" type="curve" smooth="yes" name="hr00"/>
      <point x="159" y="277"/>
      <point x="166" y="288"/>
      <point x="169" y="299" type="curve" smooth="yes"/>
      <point x="170" y="303"/>
      <point x="172" y="312"/>
      <point x="172" y="316" type="curve" smooth="yes"/>
      <point x="172" y="325"/>
      <point x="166" y="335"/>
      <point x="150" y="335" type="curve" smooth="yes"/>
      <point x="131" y="335"/>
      <point x="124" y="324"/>
      <point x="121" y="313" type="curve" smooth="yes"/>
      <point x="120" y="309"/>
      <point x="118" y="300"/>
      <point x="118" y="296" type="curve" smooth="yes"/>
      <point x="118" y="287"/>
      <point x="124" y="277"/>
    </contour>
  </outline>
</glyph>
<glyph name="cedilla" format="1">
  <advance width="540"/>
  <unicode hex="00B8"/>
  <outline>
    <contour>
      <point x="245" y="-202" type="curve" smooth="yes" name="hr00"/>
      <point x="295" y="-202"/>
      <point x="329" y="-171"/>
      <point x="329" y="-127" type="curve" smooth="yes"/>
      <point x="329" y="-93"/>
      <point x="310" y="-72"/>
      <point x="277" y="-72" type="curve" smooth="yes"/>
      <point x="270" y="-72"/>
      <point x="260" y="-73"/>
      <point x="253" y="-75" type="curve"/>
      <point x="251" y="-73" type="line"/>
      <point x="281" y="3" type="line"/>
      <point x="263" y="3" type="line"/>
      <point x="228" y="-84" type="line"/>
      <point x="262" y="-86" type="line" smooth="yes"/>
      <point x="297" y="-88"/>
      <point x="309" y="-104"/>
      <point x="309" y="-128" type="curve" smooth="yes"/>
      <point x="309" y="-164"/>
      <point x="281" y="-184"/>
      <point x="245" y="-184" type="curve" smooth="yes"/>
      <point x="219" y="-184"/>
      <point x="200" y="-174"/>
      <point x="188" y="-157" type="curve"/>
      <point x="174" y="-170" type="line"/>
      <point x="183" y="-187"/>
      <point x="210" y="-202"/>
    </contour>
    <contour>
      <point x="270" y="0" type="move" name="_bottom"/>
    </contour>
  </outline>
</glyph>
<glyph name="onesuperior" format="1">
  <advance width="320"/>
  <unicode hex="00B9"/>
  <outline>
    <contour>
      <point x="298" y="329" type="line" name=""/>
      <point x="302" y="346" type="line"/>
      <point x="195" y="346" type="line"/>
      <point x="265" y="698" type="line"/>
      <point x="236" y="698" type="line"/>
      <point x="102" y="601" type="line"/>
      <point x="111" y="588" type="line"/>
      <point x="243" y="684" type="line"/>
      <point x="245" y="684" type="line"/>
      <point x="178" y="346" type="line"/>
      <point x="63" y="346" type="line"/>
      <point x="59" y="329" type="line"/>
    </contour>
  </outline>
</glyph>
<glyph name="ordmasculine" format="1">
  <advance width="330"/>
  <unicode hex="00BA"/>
  <outline>
    <contour>
      <point x="197" y="360" type="curve" smooth="yes" name=""/>
      <point x="286" y="360"/>
      <point x="334" y="441"/>
      <point x="346" y="533" type="curve" smooth="yes"/>
      <point x="348" y="548"/>
      <point x="349" y="563"/>
      <point x="349" y="578" type="curve" smooth="yes"/>
      <point x="349" y="657"/>
      <point x="309" y="704"/>
      <point x="243" y="704" type="curve" smooth="yes"/>
      <point x="154" y="704"/>
      <point x="106" y="623"/>
      <point x="94" y="531" type="curve" smooth="yes"/>
      <point x="92" y="516"/>
      <point x="91" y="501"/>
      <point x="91" y="486" type="curve" smooth="yes"/>
      <point x="91" y="407"/>
      <point x="131" y="360"/>
    </contour>
    <contour>
      <point x="198" y="377" type="curve" smooth="yes"/>
      <point x="135" y="377"/>
      <point x="110" y="418"/>
      <point x="110" y="486" type="curve" smooth="yes"/>
      <point x="110" y="496"/>
      <point x="110" y="508"/>
      <point x="112" y="519" type="curve" smooth="yes"/>
      <point x="118" y="554" type="line" smooth="yes"/>
      <point x="131" y="628"/>
      <point x="167" y="687"/>
      <point x="242" y="687" type="curve" smooth="yes"/>
      <point x="305" y="687"/>
      <point x="330" y="646"/>
      <point x="330" y="578" type="curve" smooth="yes"/>
      <point x="330" y="568"/>
      <point x="330" y="556"/>
      <point x="328" y="545" type="curve" smooth="yes"/>
      <point x="322" y="510" type="line" smooth="yes"/>
      <point x="309" y="436"/>
      <point x="273" y="377"/>
    </contour>
  </outline>
</glyph>
<glyph name="questiondown" format="1">
  <advance width="409"/>
  <unicode hex="00BF"/>
  <outline>
    <contour>
      <point x="143" y="-204" type="curve" smooth="yes" name="hr00"/>
      <point x="241" y="-204"/>
      <point x="300" y="-145"/>
      <point x="335" y="-54" type="curve"/>
      <point x="316" y="-48" type="line"/>
      <point x="282" y="-133"/>
      <point x="232" y="-185"/>
      <point x="144" y="-185" type="curve" smooth="yes"/>
      <point x="59" y="-185"/>
      <point x="16" y="-135"/>
      <point x="16" y="-53" type="curve" smooth="yes"/>
      <point x="16" y="-44"/>
      <point x="19" y="-21"/>
      <point x="21" y="-7" type="curve" smooth="yes"/>
      <point x="35" y="95"/>
      <point x="101" y="146"/>
      <point x="229" y="157" type="curve"/>
      <point x="263" y="330" type="line"/>
      <point x="241" y="330" type="line"/>
      <point x="211" y="175" type="line"/>
      <point x="65" y="160"/>
      <point x="-6" y="76"/>
      <point x="-6" y="-53" type="curve" smooth="yes"/>
      <point x="-6" y="-144"/>
      <point x="49" y="-204"/>
    </contour>
    <contour>
      <point x="278" y="453" type="curve" smooth="yes"/>
      <point x="297" y="453"/>
      <point x="304" y="464"/>
      <point x="307" y="475" type="curve" smooth="yes"/>
      <point x="308" y="479"/>
      <point x="310" y="488"/>
      <point x="310" y="492" type="curve" smooth="yes"/>
      <point x="310" y="501"/>
      <point x="304" y="511"/>
      <point x="288" y="511" type="curve" smooth="yes"/>
      <point x="269" y="511"/>
      <point x="262" y="500"/>
      <point x="259" y="489" type="curve" smooth="yes"/>
      <point x="258" y="485"/>
      <point x="256" y="476"/>
      <point x="256" y="472" type="curve" smooth="yes"/>
      <point x="256" y="463"/>
      <point x="262" y="453"/>
    </contour>
  </outline>
</glyph>
<glyph name="AE" format="1">
  <advance width="798"/>
  <unicode hex="00C6"/>
  <outline>
    <contour>
      <point x="341" y="0" type="line" name="hr00"/>
      <point x="683" y="0" type="line"/>
      <point x="687" y="20" type="line"/>
      <point x="367" y="20" type="line"/>
      <point x="432" y="344" type="line"/>
      <point x="739" y="344" type="line"/>
      <point x="743" y="364" type="line"/>
      <point x="436" y="364" type="line"/>
      <point x="499" y="678" type="line"/>
      <point x="817" y="678" type="line"/>
      <point x="822" y="698" type="line"/>
      <point x="459" y="698" type="line"/>
      <point x="-26" y="0" type="line"/>
      <point x="-1" y="0" type="line"/>
      <point x="161" y="234" type="line"/>
      <point x="388" y="234" type="line"/>
    </contour>
    <contour>
      <point x="477" y="678" type="line"/>
      <point x="392" y="253" type="line"/>
      <point x="175" y="253" type="line"/>
      <point x="469" y="678" type="line"/>
    </contour>
    <contour>
      <point x="539" y="698" type="move" name="top"/>
    </contour>
  </outline>
</glyph>
<glyph name="Ccedilla" format="1">
  <advance width="537"/>
  <unicode hex="00C7"/>
  <outline>
    <contour>
      <point x="314" y="-127" type="curve" smooth="yes" name="hr00"/>
      <point x="314" y="-93"/>
      <point x="295" y="-72"/>
      <point x="262" y="-72" type="curve" smooth="yes"/>
      <point x="255" y="-72"/>
      <point x="245" y="-73"/>
      <point x="238" y="-75" type="curve"/>
      <point x="236" y="-73" type="line"/>
      <point x="260" y="-12" type="line"/>
      <point x="349" y="-12"/>
      <point x="408" y="30"/>
      <point x="465" y="141" type="curve"/>
      <point x="446" y="151" type="line"/>
      <point x="398" y="54"/>
      <point x="345" y="8"/>
      <point x="260" y="8" type="curve" smooth="yes"/>
      <point x="140" y="8"/>
      <point x="82" y="97"/>
      <point x="82" y="230" type="curve" smooth="yes"/>
      <point x="82" y="258"/>
      <point x="84" y="297"/>
      <point x="92" y="339" type="curve" smooth="yes"/>
      <point x="102" y="394" type="line" smooth="yes"/>
      <point x="136" y="581"/>
      <point x="236" y="690"/>
      <point x="364" y="690" type="curve" smooth="yes"/>
      <point x="456" y="690"/>
      <point x="498" y="640"/>
      <point x="516" y="564" type="curve"/>
      <point x="536" y="569" type="line"/>
      <point x="518" y="656"/>
      <point x="463" y="710"/>
      <point x="365" y="710" type="curve" smooth="yes"/>
      <point x="202" y="710"/>
      <point x="110" y="559"/>
      <point x="76" y="388" type="curve" smooth="yes"/>
      <point x="66" y="336"/>
      <point x="60" y="282"/>
      <point x="60" y="230" type="curve" smooth="yes"/>
      <point x="60" y="83"/>
      <point x="127" y="-3"/>
      <point x="242" y="-11" type="curve"/>
      <point x="213" y="-84" type="line"/>
      <point x="247" y="-86" type="line" smooth="yes"/>
      <point x="282" y="-88"/>
      <point x="294" y="-104"/>
      <point x="294" y="-128" type="curve" smooth="yes"/>
      <point x="294" y="-164"/>
      <point x="266" y="-184"/>
      <point x="230" y="-184" type="curve" smooth="yes"/>
      <point x="204" y="-184"/>
      <point x="185" y="-174"/>
      <point x="173" y="-157" type="curve"/>
      <point x="159" y="-170" type="line"/>
      <point x="168" y="-187"/>
      <point x="195" y="-202"/>
      <point x="230" y="-202" type="curve" smooth="yes"/>
      <point x="280" y="-202"/>
      <point x="314" y="-171"/>
    </contour>
  </outline>
</glyph>
<glyph name="multiply" format="1">
  <advance width="540"/>
  <unicode hex="00D7"/>
  <outline>
    <contour>
      <point x="403" y="113" type="line" name="hr00"/>
      <point x="418" y="125" type="line"/>
      <point x="294" y="304" type="line"/>
      <point x="493" y="485" type="line"/>
      <point x="480" y="499" type="line"/>
      <point x="283" y="319" type="line"/>
      <point x="158" y="499" type="line"/>
      <point x="143" y="487" type="line"/>
      <point x="269" y="306" type="line"/>
      <point x="72" y="127" type="line"/>
      <point x="85" y="113" type="line"/>
      <point x="280" y="291" type="line"/>
    </contour>
  </outline>
</glyph>
<glyph name="Oslash" format="1">
  <advance width="595"/>
  <unicode hex="00D8"/>
  <outline>
    <contour>
      <point x="103" y="110" type="line" name="hr00"/>
      <point x="89" y="143"/>
      <point x="82" y="184"/>
      <point x="82" y="230" type="curve" smooth="yes"/>
      <point x="82" y="259"/>
      <point x="83" y="300"/>
      <point x="92" y="343" type="curve" smooth="yes"/>
      <point x="102" y="394" type="line" smooth="yes"/>
      <point x="139" y="581"/>
      <point x="239" y="690"/>
      <point x="365" y="690" type="curve" smooth="yes"/>
      <point x="435" y="690"/>
      <point x="485" y="660"/>
      <point x="513" y="608" type="curve"/>
      <point x="317" y="370" type="line"/>
      <point x="105" y="110" type="line"/>
    </contour>
    <contour>
      <point x="260" y="8" type="curve" smooth="yes"/>
      <point x="190" y="8"/>
      <point x="140" y="38"/>
      <point x="112" y="90" type="curve"/>
      <point x="308" y="328" type="line"/>
      <point x="520" y="588" type="line"/>
      <point x="522" y="588" type="line"/>
      <point x="536" y="555"/>
      <point x="543" y="514"/>
      <point x="543" y="468" type="curve" smooth="yes"/>
      <point x="543" y="439"/>
      <point x="542" y="398"/>
      <point x="533" y="355" type="curve" smooth="yes"/>
      <point x="523" y="304" type="line" smooth="yes"/>
      <point x="486" y="117"/>
      <point x="386" y="8"/>
    </contour>
    <contour>
      <point x="260" y="-12" type="curve" smooth="yes"/>
      <point x="424" y="-12"/>
      <point x="517" y="142"/>
      <point x="550" y="313" type="curve" smooth="yes"/>
      <point x="560" y="364"/>
      <point x="565" y="417"/>
      <point x="565" y="468" type="curve" smooth="yes"/>
      <point x="565" y="524"/>
      <point x="555" y="571"/>
      <point x="537" y="608" type="curve"/>
      <point x="628" y="719" type="line"/>
      <point x="613" y="731" type="line"/>
      <point x="527" y="626" type="line"/>
      <point x="493" y="681"/>
      <point x="438" y="710"/>
      <point x="365" y="710" type="curve" smooth="yes"/>
      <point x="201" y="710"/>
      <point x="108" y="556"/>
      <point x="75" y="385" type="curve" smooth="yes"/>
      <point x="65" y="334"/>
      <point x="60" y="281"/>
      <point x="60" y="230" type="curve" smooth="yes"/>
      <point x="60" y="174"/>
      <point x="70" y="127"/>
      <point x="88" y="90" type="curve"/>
      <point x="-3" y="-21" type="line"/>
      <point x="12" y="-33" type="line"/>
      <point x="98" y="72" type="line"/>
      <point x="132" y="17"/>
      <point x="187" y="-12"/>
    </contour>
    <contour>
      <point x="382" y="698" type="move" name="top"/>
    </contour>
  </outline>
</glyph>
<glyph name="Thorn" format="1">
  <advance width="534"/>
  <unicode hex="00DE"/>
  <outline>
    <contour>
      <point x="66" y="0" type="line" name="hr00"/>
      <point x="99" y="166" type="line"/>
      <point x="312" y="166" type="line" smooth="yes"/>
      <point x="433" y="166"/>
      <point x="513" y="249"/>
      <point x="513" y="394" type="curve" smooth="yes"/>
      <point x="513" y="479"/>
      <point x="462" y="542"/>
      <point x="365" y="542" type="curve" smooth="yes"/>
      <point x="175" y="542" type="line"/>
      <point x="206" y="698" type="line"/>
      <point x="184" y="698" type="line"/>
      <point x="44" y="0" type="line"/>
    </contour>
    <contour>
      <point x="171" y="522" type="line"/>
      <point x="362" y="522" type="line" smooth="yes"/>
      <point x="454" y="522"/>
      <point x="491" y="464"/>
      <point x="491" y="394" type="curve" smooth="yes"/>
      <point x="491" y="383"/>
      <point x="489" y="364"/>
      <point x="482" y="325" type="curve" smooth="yes"/>
      <point x="468" y="245"/>
      <point x="411" y="186"/>
      <point x="315" y="186" type="curve" smooth="yes"/>
      <point x="103" y="186" type="line"/>
    </contour>
  </outline>
</glyph>
<glyph name="germandbls" format="1">
  <advance width="568"/>
  <unicode hex="00DF"/>
  <outline>
    <contour>
      <point x="505" y="138" type="curve" smooth="yes"/>
      <point x="505" y="208"/>
      <point x="471" y="237"/>
      <point x="419" y="256" type="curve" smooth="yes"/>
      <point x="373" y="273" type="line" smooth="yes"/>
      <point x="325" y="291"/>
      <point x="301" y="310"/>
      <point x="301" y="361" type="curve" smooth="yes"/>
      <point x="301" y="452"/>
      <point x="359" y="488"/>
      <point x="486" y="488" type="curve" smooth="yes"/>
      <point x="502" y="488" type="line"/>
      <point x="508" y="520" type="line" smooth="yes"/>
      <point x="513" y="544"/>
      <point x="518" y="578"/>
      <point x="518" y="600" type="curve" smooth="yes" name="hr01"/>
      <point x="518" y="700"/>
      <point x="472" y="752"/>
      <point x="377" y="752" type="curve" smooth="yes"/>
      <point x="260" y="752"/>
      <point x="195" y="680"/>
      <point x="163" y="521" type="curve" smooth="yes"/>
      <point x="160" y="506" type="line"/>
      <point x="72" y="506" type="line"/>
      <point x="68" y="487" type="line"/>
      <point x="156" y="487" type="line"/>
      <point x="59" y="0" type="line"/>
      <point x="80" y="0" type="line"/>
      <point x="184" y="521" type="line" smooth="yes"/>
      <point x="212" y="663"/>
      <point x="269" y="733"/>
      <point x="375" y="733" type="curve" smooth="yes"/>
      <point x="463" y="733"/>
      <point x="497" y="690"/>
      <point x="497" y="600" type="curve" smooth="yes"/>
      <point x="497" y="572"/>
      <point x="492" y="545"/>
      <point x="487" y="520" type="curve" smooth="yes"/>
      <point x="484" y="506" type="line" name="hr02"/>
      <point x="338" y="506"/>
      <point x="280" y="457"/>
      <point x="280" y="361" type="curve" smooth="yes"/>
      <point x="280" y="296"/>
      <point x="316" y="274"/>
      <point x="368" y="254" type="curve" smooth="yes"/>
      <point x="413" y="237" type="line" smooth="yes"/>
      <point x="461" y="219"/>
      <point x="484" y="193"/>
      <point x="484" y="137" type="curve" smooth="yes"/>
      <point x="484" y="53"/>
      <point x="429" y="7"/>
      <point x="345" y="7" type="curve" smooth="yes"/>
      <point x="276" y="7"/>
      <point x="229" y="36"/>
      <point x="195" y="98" type="curve"/>
      <point x="177" y="86" type="line"/>
      <point x="213" y="23"/>
      <point x="267" y="-12"/>
      <point x="345" y="-12" type="curve" smooth="yes"/>
      <point x="435" y="-12"/>
      <point x="505" y="38"/>
    </contour>
  </outline>
</glyph>
<glyph name="ae" format="1">
  <advance width="772"/>
  <unicode hex="00E6"/>
  <outline>
    <contour>
      <point x="176" y="7" type="curve" smooth="yes" name="hr00"/>
      <point x="98" y="7"/>
      <point x="57" y="42"/>
      <point x="57" y="102" type="curve" smooth="yes"/>
      <point x="57" y="112"/>
      <point x="57" y="119"/>
      <point x="62" y="143" type="curve" smooth="yes"/>
      <point x="73" y="195"/>
      <point x="116" y="228"/>
      <point x="214" y="234" type="curve" smooth="yes"/>
      <point x="373" y="243" type="line"/>
      <point x="359" y="162" type="line" smooth="yes"/>
      <point x="341" y="58"/>
      <point x="256" y="7"/>
    </contour>
    <contour>
      <point x="597" y="499" type="curve" smooth="yes"/>
      <point x="682" y="499"/>
      <point x="716" y="456"/>
      <point x="716" y="399" type="curve" smooth="yes"/>
      <point x="716" y="324"/>
      <point x="665" y="267"/>
      <point x="397" y="262" type="curve"/>
      <point x="399" y="273" type="line" smooth="yes"/>
      <point x="423" y="402"/>
      <point x="497" y="499"/>
    </contour>
    <contour>
      <point x="173" y="-12" type="curve" smooth="yes"/>
      <point x="269" y="-12"/>
      <point x="347" y="48"/>
      <point x="370" y="138" type="curve"/>
      <point x="376" y="138" type="line"/>
      <point x="386" y="42"/>
      <point x="435" y="-12"/>
      <point x="526" y="-12" type="curve" smooth="yes"/>
      <point x="614" y="-12"/>
      <point x="665" y="31"/>
      <point x="713" y="125" type="curve"/>
      <point x="696" y="133" type="line"/>
      <point x="655" y="56"/>
      <point x="612" y="7"/>
      <point x="526" y="7" type="curve" smooth="yes"/>
      <point x="424" y="7"/>
      <point x="389" y="77"/>
      <point x="389" y="190" type="curve" smooth="yes"/>
      <point x="389" y="205"/>
      <point x="392" y="226"/>
      <point x="395" y="244" type="curve"/>
      <point x="685" y="251"/>
      <point x="738" y="317"/>
      <point x="738" y="399" type="curve" smooth="yes"/>
      <point x="738" y="472"/>
      <point x="687" y="518"/>
      <point x="599" y="518" type="curve" smooth="yes"/>
      <point x="518" y="518"/>
      <point x="458" y="467"/>
      <point x="419" y="387" type="curve"/>
      <point x="412" y="387" type="line"/>
      <point x="412" y="459"/>
      <point x="376" y="518"/>
      <point x="278" y="518" type="curve" smooth="yes"/>
      <point x="187" y="518"/>
      <point x="140" y="478"/>
      <point x="103" y="411" type="curve"/>
      <point x="120" y="402" type="line"/>
      <point x="158" y="470"/>
      <point x="199" y="499"/>
      <point x="276" y="499" type="curve" smooth="yes"/>
      <point x="368" y="499"/>
      <point x="395" y="446"/>
      <point x="395" y="381" type="curve" smooth="yes"/>
      <point x="395" y="366"/>
      <point x="394" y="348"/>
      <point x="390" y="329" type="curve" smooth="yes"/>
      <point x="377" y="261" type="line"/>
      <point x="215" y="252" type="line" smooth="yes"/>
      <point x="97" y="245"/>
      <point x="36" y="203"/>
      <point x="36" y="103" type="curve" smooth="yes"/>
      <point x="36" y="29"/>
      <point x="86" y="-12"/>
    </contour>
    <contour>
      <point x="446" y="540" type="move" name="top"/>
    </contour>
  </outline>
</glyph>
<glyph name="ccedilla" format="1">
  <advance width="432"/>
  <unicode hex="00E7"/>
  <outline>
    <contour>
      <point x="275" y="518" type="curve" smooth="yes" name="hr00"/>
      <point x="163" y="518"/>
      <point x="89" y="419"/>
      <point x="63" y="288" type="curve" smooth="yes"/>
      <point x="56" y="253"/>
      <point x="52" y="215"/>
      <point x="52" y="176" type="curve" smooth="yes"/>
      <point x="52" y="75"/>
      <point x="95" y="-1"/>
      <point x="185" y="-11" type="curve"/>
      <point x="156" y="-84" type="line"/>
      <point x="190" y="-86" type="line" smooth="yes"/>
      <point x="225" y="-88"/>
      <point x="237" y="-104"/>
      <point x="237" y="-128" type="curve" smooth="yes"/>
      <point x="237" y="-164"/>
      <point x="209" y="-184"/>
      <point x="173" y="-184" type="curve" smooth="yes"/>
      <point x="147" y="-184"/>
      <point x="128" y="-174"/>
      <point x="116" y="-157" type="curve"/>
      <point x="102" y="-170" type="line"/>
      <point x="111" y="-187"/>
      <point x="138" y="-202"/>
      <point x="173" y="-202" type="curve" smooth="yes"/>
      <point x="223" y="-202"/>
      <point x="257" y="-171"/>
      <point x="257" y="-127" type="curve" smooth="yes"/>
      <point x="257" y="-93"/>
      <point x="238" y="-72"/>
      <point x="205" y="-72" type="curve" smooth="yes"/>
      <point x="198" y="-72"/>
      <point x="188" y="-73"/>
      <point x="181" y="-75" type="curve"/>
      <point x="179" y="-73" type="line"/>
      <point x="203" y="-12" type="line"/>
      <point x="206" y="-12" type="line" smooth="yes"/>
      <point x="285" y="-12"/>
      <point x="330" y="37"/>
      <point x="376" y="115" type="curve"/>
      <point x="359" y="124" type="line"/>
      <point x="319" y="51"/>
      <point x="275" y="7"/>
      <point x="206" y="7" type="curve" smooth="yes"/>
      <point x="109" y="7"/>
      <point x="72" y="83"/>
      <point x="72" y="176" type="curve" smooth="yes"/>
      <point x="72" y="196"/>
      <point x="74" y="227"/>
      <point x="79" y="252" type="curve" smooth="yes"/>
      <point x="89" y="302" type="line" smooth="yes"/>
      <point x="114" y="425"/>
      <point x="181" y="499"/>
      <point x="273" y="499" type="curve" smooth="yes"/>
      <point x="335" y="499"/>
      <point x="377" y="463"/>
      <point x="390" y="398" type="curve"/>
      <point x="409" y="403" type="line"/>
      <point x="397" y="471"/>
      <point x="349" y="518"/>
    </contour>
  </outline>
</glyph>
<glyph name="eth" format="1">
  <advance width="507"/>
  <unicode hex="00F0"/>
  <outline>
    <contour>
      <point x="435" y="737" type="line" name="hr00"/>
      <point x="426" y="751" type="line"/>
      <point x="311" y="671" type="line"/>
      <point x="278" y="702"/>
      <point x="244" y="725"/>
      <point x="214" y="740" type="curve"/>
      <point x="182" y="740" type="line"/>
      <point x="221" y="720"/>
      <point x="260" y="693"/>
      <point x="294" y="660" type="curve"/>
      <point x="188" y="586" type="line"/>
      <point x="197" y="571" type="line"/>
      <point x="307" y="648" type="line"/>
      <point x="367" y="589"/>
      <point x="411" y="502"/>
      <point x="425" y="404" type="curve"/>
      <point x="419" y="402" type="line"/>
      <point x="395" y="468"/>
      <point x="354" y="504"/>
      <point x="281" y="504" type="curve" smooth="yes"/>
      <point x="170" y="504"/>
      <point x="82" y="411"/>
      <point x="58" y="256" type="curve" smooth="yes"/>
      <point x="54" y="231"/>
      <point x="53" y="205"/>
      <point x="53" y="178" type="curve" smooth="yes"/>
      <point x="53" y="60"/>
      <point x="114" y="-12"/>
      <point x="213" y="-12" type="curve" smooth="yes"/>
      <point x="324" y="-12"/>
      <point x="414" y="70"/>
      <point x="440" y="229" type="curve" smooth="yes"/>
      <point x="445" y="259"/>
      <point x="447" y="292"/>
      <point x="447" y="328" type="curve" smooth="yes"/>
      <point x="447" y="486"/>
      <point x="389" y="591"/>
      <point x="323" y="659" type="curve"/>
    </contour>
    <contour>
      <point x="214" y="7" type="curve" smooth="yes"/>
      <point x="128" y="7"/>
      <point x="73" y="70"/>
      <point x="73" y="178" type="curve" smooth="yes"/>
      <point x="73" y="195"/>
      <point x="75" y="215"/>
      <point x="78" y="235" type="curve" smooth="yes"/>
      <point x="85" y="279" type="line" smooth="yes"/>
      <point x="106" y="410"/>
      <point x="187" y="485"/>
      <point x="284" y="485" type="curve" smooth="yes"/>
      <point x="370" y="485"/>
      <point x="425" y="422"/>
      <point x="425" y="314" type="curve" smooth="yes"/>
      <point x="425" y="297"/>
      <point x="423" y="277"/>
      <point x="420" y="257" type="curve" smooth="yes"/>
      <point x="413" y="213" type="line" smooth="yes"/>
      <point x="392" y="82"/>
      <point x="311" y="7"/>
    </contour>
  </outline>
</glyph>
<glyph name="divide" format="1">
  <advance width="540"/>
  <unicode hex="00F7"/>
  <outline>
    <contour>
      <point x="493" y="296" type="line" name="hr00"/>
      <point x="497" y="315" type="line"/>
      <point x="68" y="315" type="line"/>
      <point x="64" y="296" type="line"/>
    </contour>
    <contour>
      <point x="239" y="81" type="curve" smooth="yes"/>
      <point x="259" y="81"/>
      <point x="267" y="93"/>
      <point x="270" y="105" type="curve" smooth="yes"/>
      <point x="271" y="109"/>
      <point x="273" y="118"/>
      <point x="273" y="123" type="curve" smooth="yes"/>
      <point x="273" y="132"/>
      <point x="267" y="143"/>
      <point x="248" y="143" type="curve" smooth="yes"/>
      <point x="228" y="143"/>
      <point x="220" y="131"/>
      <point x="217" y="119" type="curve" smooth="yes"/>
      <point x="216" y="115"/>
      <point x="214" y="106"/>
      <point x="214" y="101" type="curve" smooth="yes"/>
      <point x="214" y="92"/>
      <point x="220" y="81"/>
    </contour>
    <contour>
      <point x="314" y="468" type="curve" smooth="yes"/>
      <point x="334" y="468"/>
      <point x="342" y="480"/>
      <point x="345" y="492" type="curve" smooth="yes"/>
      <point x="346" y="496"/>
      <point x="348" y="505"/>
      <point x="348" y="510" type="curve" smooth="yes"/>
      <point x="348" y="519"/>
      <point x="342" y="530"/>
      <point x="323" y="530" type="curve" smooth="yes"/>
      <point x="303" y="530"/>
      <point x="295" y="518"/>
      <point x="292" y="506" type="curve" smooth="yes"/>
      <point x="291" y="502"/>
      <point x="289" y="493"/>
      <point x="289" y="488" type="curve" smooth="yes"/>
      <point x="289" y="479"/>
      <point x="295" y="468"/>
    </contour>
  </outline>
</glyph>
<glyph name="oslash" format="1">
  <advance width="484"/>
  <unicode hex="00F8"/>
  <outline>
    <contour>
      <point x="92" y="74" type="line" name="hr00"/>
      <point x="89" y="74" type="line"/>
      <point x="78" y="100"/>
      <point x="72" y="134"/>
      <point x="72" y="167" type="curve" smooth="yes"/>
      <point x="72" y="193"/>
      <point x="74" y="217"/>
      <point x="85" y="279" type="curve" smooth="yes"/>
      <point x="109" y="414"/>
      <point x="173" y="499"/>
      <point x="279" y="499" type="curve" smooth="yes"/>
      <point x="329" y="499"/>
      <point x="364" y="481"/>
      <point x="385" y="450" type="curve"/>
      <point x="245" y="271" type="line"/>
    </contour>
    <contour>
      <point x="205" y="7" type="curve" smooth="yes"/>
      <point x="155" y="7"/>
      <point x="120" y="25"/>
      <point x="99" y="56" type="curve"/>
      <point x="239" y="235" type="line"/>
      <point x="392" y="432" type="line"/>
      <point x="395" y="432" type="line"/>
      <point x="406" y="406"/>
      <point x="412" y="372"/>
      <point x="412" y="339" type="curve" smooth="yes"/>
      <point x="412" y="313"/>
      <point x="410" y="289"/>
      <point x="399" y="227" type="curve" smooth="yes"/>
      <point x="375" y="92"/>
      <point x="311" y="7"/>
    </contour>
    <contour>
      <point x="203" y="-12" type="curve" smooth="yes"/>
      <point x="321" y="-12"/>
      <point x="393" y="87"/>
      <point x="420" y="219" type="curve" smooth="yes"/>
      <point x="428" y="258"/>
      <point x="432" y="297"/>
      <point x="432" y="339" type="curve" smooth="yes"/>
      <point x="432" y="383"/>
      <point x="423" y="420"/>
      <point x="407" y="449" type="curve"/>
      <point x="464" y="521" type="line"/>
      <point x="451" y="532" type="line"/>
      <point x="397" y="465" type="line"/>
      <point x="371" y="499"/>
      <point x="332" y="518"/>
      <point x="281" y="518" type="curve" smooth="yes"/>
      <point x="163" y="518"/>
      <point x="91" y="419"/>
      <point x="64" y="287" type="curve" smooth="yes"/>
      <point x="56" y="248"/>
      <point x="52" y="209"/>
      <point x="52" y="167" type="curve" smooth="yes"/>
      <point x="52" y="123"/>
      <point x="61" y="86"/>
      <point x="77" y="57" type="curve"/>
      <point x="20" y="-15" type="line"/>
      <point x="33" y="-26" type="line"/>
      <point x="87" y="41" type="line"/>
      <point x="113" y="7"/>
      <point x="152" y="-12"/>
    </contour>
    <contour>
      <point x="300" y="540" type="move" name="top"/>
    </contour>
  </outline>
</glyph>
<glyph name="thorn" format="1">
  <advance width="503"/>
  <unicode hex="00FE"/>
  <outline>
    <contour>
      <point x="1" y="-200" type="line" name="hr00"/>
      <point x="22" y="-200" type="line"/>
      <point x="80" y="91" type="line"/>
      <point x="86" y="91" type="line"/>
      <point x="100" y="26"/>
      <point x="152" y="-12"/>
      <point x="225" y="-12" type="curve" smooth="yes"/>
      <point x="332" y="-12"/>
      <point x="411" y="72"/>
      <point x="440" y="218" type="curve" smooth="yes"/>
      <point x="447" y="253"/>
      <point x="451" y="292"/>
      <point x="451" y="327" type="curve" smooth="yes"/>
      <point x="451" y="451"/>
      <point x="399" y="518"/>
      <point x="307" y="518" type="curve" smooth="yes"/>
      <point x="236" y="518"/>
      <point x="184" y="479"/>
      <point x="147" y="395" type="curve"/>
      <point x="141" y="395" type="line"/>
      <point x="210" y="740" type="line"/>
      <point x="189" y="740" type="line"/>
    </contour>
    <contour>
      <point x="225" y="7" type="curve" smooth="yes"/>
      <point x="135" y="7"/>
      <point x="77" y="74"/>
      <point x="94" y="160" type="curve" smooth="yes"/>
      <point x="121" y="297" type="line" smooth="yes"/>
      <point x="133" y="360"/>
      <point x="168" y="421"/>
      <point x="205" y="459" type="curve" smooth="yes"/>
      <point x="232" y="487"/>
      <point x="262" y="499"/>
      <point x="301" y="499" type="curve" smooth="yes"/>
      <point x="389" y="499"/>
      <point x="431" y="441"/>
      <point x="431" y="323" type="curve" smooth="yes"/>
      <point x="431" y="297"/>
      <point x="429" y="277"/>
      <point x="425" y="258" type="curve" smooth="yes"/>
      <point x="418" y="223" type="line" smooth="yes"/>
      <point x="390" y="83"/>
      <point x="322" y="7"/>
    </contour>
  </outline>
</glyph>
<glyph name="Aogonek" format="1">
  <advance width="537"/>
  <unicode hex="0104"/>
  <outline>
    <contour>
      <point x="-17" y="0" type="line" name="hr00"/>
      <point x="7" y="0" type="line"/>
      <point x="121" y="234" type="line"/>
      <point x="405" y="234" type="line"/>
      <point x="440" y="-2" type="line"/>
      <point x="342" y="-56"/>
      <point x="314" y="-92"/>
      <point x="314" y="-140" type="curve" smooth="yes"/>
      <point x="314" y="-182"/>
      <point x="344" y="-202"/>
      <point x="381" y="-202" type="curve" smooth="yes"/>
      <point x="411" y="-202"/>
      <point x="436" y="-188"/>
      <point x="451" y="-170" type="curve"/>
      <point x="438" y="-159" type="line"/>
      <point x="427" y="-171"/>
      <point x="409" y="-184"/>
      <point x="381" y="-184" type="curve" smooth="yes"/>
      <point x="356" y="-184"/>
      <point x="335" y="-169"/>
      <point x="335" y="-140" type="curve" smooth="yes"/>
      <point x="335" y="-85"/>
      <point x="372" y="-57"/>
      <point x="462" y="0" type="curve"/>
      <point x="356" y="698" type="line"/>
      <point x="326" y="698" type="line"/>
    </contour>
    <contour>
      <point x="402" y="253" type="line"/>
      <point x="131" y="253" type="line"/>
      <point x="277" y="552" type="line"/>
      <point x="336" y="673" type="line"/>
      <point x="339" y="673" type="line"/>
      <point x="357" y="552" type="line"/>
    </contour>
  </outline>
</glyph>
<glyph name="aogonek" format="1">
  <advance width="513"/>
  <unicode hex="0105"/>
  <outline>
    <contour>
      <point x="441" y="19" type="line"/>
      <point x="365" y="19" type="line"/>
      <point x="462" y="506" type="line"/>
      <point x="441" y="506" type="line"/>
      <point x="423" y="415" type="line"/>
      <point x="417" y="415" type="line"/>
      <point x="403" y="480"/>
      <point x="351" y="518"/>
      <point x="278" y="518" type="curve" smooth="yes" name="hr01"/>
      <point x="171" y="518"/>
      <point x="92" y="434"/>
      <point x="63" y="288" type="curve" smooth="yes"/>
      <point x="56" y="253"/>
      <point x="52" y="214"/>
      <point x="52" y="179" type="curve" smooth="yes"/>
      <point x="52" y="55"/>
      <point x="104" y="-12"/>
      <point x="196" y="-12" type="curve" smooth="yes"/>
      <point x="267" y="-12"/>
      <point x="319" y="27"/>
      <point x="356" y="111" type="curve"/>
      <point x="362" y="111" type="line"/>
      <point x="346" y="31" type="line" smooth="yes"/>
      <point x="345" y="26"/>
      <point x="344" y="20"/>
      <point x="344" y="15" type="curve" smooth="yes"/>
      <point x="344" y="4"/>
      <point x="354" y="0"/>
      <point x="367" y="0" type="curve" smooth="yes" name="hr02"/>
      <point x="412" y="0" type="line"/>
      <point x="413" y="-4" type="line"/>
      <point x="314" y="-58"/>
      <point x="289" y="-92"/>
      <point x="289" y="-140" type="curve" smooth="yes"/>
      <point x="289" y="-182"/>
      <point x="319" y="-202"/>
      <point x="356" y="-202" type="curve" smooth="yes"/>
      <point x="386" y="-202"/>
      <point x="411" y="-188"/>
      <point x="426" y="-170" type="curve"/>
      <point x="413" y="-159" type="line"/>
      <point x="402" y="-171"/>
      <point x="384" y="-184"/>
      <point x="356" y="-184" type="curve" smooth="yes"/>
      <point x="331" y="-184"/>
      <point x="310" y="-169"/>
      <point x="310" y="-140" type="curve" smooth="yes"/>
      <point x="310" y="-85"/>
      <point x="347" y="-56"/>
      <point x="437" y="0" type="curve"/>
    </contour>
    <contour>
      <point x="202" y="7" type="curve" smooth="yes" name="hr03"/>
      <point x="114" y="7"/>
      <point x="72" y="65"/>
      <point x="72" y="183" type="curve" smooth="yes"/>
      <point x="72" y="209"/>
      <point x="74" y="229"/>
      <point x="78" y="248" type="curve" smooth="yes"/>
      <point x="85" y="283" type="line" smooth="yes"/>
      <point x="113" y="423"/>
      <point x="181" y="499"/>
      <point x="278" y="499" type="curve" smooth="yes"/>
      <point x="368" y="499"/>
      <point x="426" y="432"/>
      <point x="409" y="346" type="curve" smooth="yes"/>
      <point x="382" y="209" type="line" smooth="yes"/>
      <point x="370" y="146"/>
      <point x="335" y="85"/>
      <point x="298" y="47" type="curve" smooth="yes"/>
      <point x="271" y="19"/>
      <point x="241" y="7"/>
    </contour>
  </outline>
</glyph>
<glyph name="Dcroat" format="1">
  <advance width="585"/>
  <unicode hex="0110"/>
  <outline>
    <contour>
      <point x="44" y="0" type="line" name="hr00"/>
      <point x="242" y="0" type="line" smooth="yes"/>
      <point x="412" y="0"/>
      <point x="507" y="148"/>
      <point x="540" y="319" type="curve" smooth="yes"/>
      <point x="549" y="366"/>
      <point x="554" y="416"/>
      <point x="554" y="464" type="curve" smooth="yes"/>
      <point x="554" y="611"/>
      <point x="477" y="698"/>
      <point x="340" y="698" type="curve" smooth="yes"/>
      <point x="184" y="698" type="line"/>
      <point x="120" y="378" type="line"/>
      <point x="45" y="378" type="line"/>
      <point x="41" y="359" type="line"/>
      <point x="116" y="359" type="line"/>
    </contour>
    <contour>
      <point x="70" y="20" type="line"/>
      <point x="138" y="359" type="line"/>
      <point x="284" y="359" type="line"/>
      <point x="288" y="378" type="line"/>
      <point x="142" y="378" type="line"/>
      <point x="202" y="678" type="line"/>
      <point x="337" y="678" type="line" smooth="yes"/>
      <point x="465" y="678"/>
      <point x="532" y="596"/>
      <point x="532" y="464" type="curve" smooth="yes"/>
      <point x="532" y="437"/>
      <point x="529" y="399"/>
      <point x="522" y="358" type="curve" smooth="yes"/>
      <point x="512" y="303" type="line" smooth="yes"/>
      <point x="485" y="156"/>
      <point x="396" y="20"/>
      <point x="242" y="20" type="curve" smooth="yes"/>
    </contour>
  </outline>
</glyph>
<glyph name="dcroat" format="1">
  <advance width="513"/>
  <unicode hex="0111"/>
  <outline>
    <contour>
      <point x="437" y="0" type="line"/>
      <point x="441" y="19" type="line"/>
      <point x="365" y="19" type="line"/>
      <point x="487" y="629" type="line"/>
      <point x="552" y="629" type="line"/>
      <point x="555" y="647" type="line"/>
      <point x="490" y="647" type="line"/>
      <point x="509" y="740" type="line"/>
      <point x="488" y="740" type="line"/>
      <point x="469" y="647" type="line"/>
      <point x="320" y="647" type="line"/>
      <point x="316" y="629" type="line"/>
      <point x="466" y="629" type="line"/>
      <point x="423" y="415" type="line"/>
      <point x="417" y="415" type="line"/>
      <point x="403" y="480"/>
      <point x="351" y="518"/>
      <point x="278" y="518" type="curve" smooth="yes"/>
      <point x="171" y="518"/>
      <point x="92" y="434"/>
      <point x="63" y="288" type="curve" smooth="yes"/>
      <point x="56" y="253"/>
      <point x="52" y="214"/>
      <point x="52" y="179" type="curve" smooth="yes"/>
      <point x="52" y="55"/>
      <point x="104" y="-12"/>
      <point x="196" y="-12" type="curve" smooth="yes" name="hr01"/>
      <point x="267" y="-12"/>
      <point x="319" y="27"/>
      <point x="356" y="111" type="curve"/>
      <point x="362" y="111" type="line"/>
      <point x="346" y="31" type="line" smooth="yes"/>
      <point x="345" y="26"/>
      <point x="344" y="20"/>
      <point x="344" y="15" type="curve" smooth="yes"/>
      <point x="344" y="4"/>
      <point x="354" y="0"/>
      <point x="367" y="0" type="curve" smooth="yes" name="hr02"/>
    </contour>
    <contour>
      <point x="202" y="7" type="curve" smooth="yes" name="hr03"/>
      <point x="114" y="7"/>
      <point x="72" y="65"/>
      <point x="72" y="183" type="curve" smooth="yes"/>
      <point x="72" y="209"/>
      <point x="74" y="229"/>
      <point x="78" y="248" type="curve" smooth="yes"/>
      <point x="85" y="283" type="line" smooth="yes"/>
      <point x="113" y="423"/>
      <point x="181" y="499"/>
      <point x="278" y="499" type="curve" smooth="yes"/>
      <point x="368" y="499"/>
      <point x="426" y="432"/>
      <point x="409" y="346" type="curve" smooth="yes"/>
      <point x="382" y="209" type="line" smooth="yes"/>
      <point x="370" y="146"/>
      <point x="335" y="85"/>
      <point x="298" y="47" type="curve" smooth="yes"/>
      <point x="271" y="19"/>
      <point x="241" y="7"/>
    </contour>
  </outline>
</glyph>
<glyph name="Eogonek" format="1">
  <advance width="501"/>
  <unicode hex="0118"/>
  <outline>
    <contour>
      <point x="44" y="0" type="line" name="hr00"/>
      <point x="361" y="0" type="line"/>
      <point x="360" y="-4" type="line"/>
      <point x="262" y="-58"/>
      <point x="238" y="-92"/>
      <point x="238" y="-140" type="curve" smooth="yes"/>
      <point x="238" y="-182"/>
      <point x="268" y="-202"/>
      <point x="305" y="-202" type="curve" smooth="yes"/>
      <point x="335" y="-202"/>
      <point x="360" y="-188"/>
      <point x="375" y="-170" type="curve"/>
      <point x="362" y="-159" type="line"/>
      <point x="351" y="-171"/>
      <point x="333" y="-184"/>
      <point x="305" y="-184" type="curve" smooth="yes"/>
      <point x="280" y="-184"/>
      <point x="259" y="-169"/>
      <point x="259" y="-140" type="curve" smooth="yes"/>
      <point x="259" y="-85"/>
      <point x="296" y="-56"/>
      <point x="386" y="0" type="curve"/>
      <point x="390" y="20" type="line"/>
      <point x="70" y="20" type="line"/>
      <point x="135" y="344" type="line"/>
      <point x="442" y="344" type="line"/>
      <point x="446" y="364" type="line"/>
      <point x="139" y="364" type="line"/>
      <point x="202" y="678" type="line"/>
      <point x="521" y="678" type="line"/>
      <point x="525" y="698" type="line"/>
      <point x="184" y="698" type="line"/>
    </contour>
  </outline>
</glyph>
<glyph name="eogonek" format="1">
  <advance width="456"/>
  <unicode hex="0119"/>
  <outline>
    <contour>
      <point x="199" y="-202" type="curve" smooth="yes" name="hr00"/>
      <point x="229" y="-202"/>
      <point x="254" y="-188"/>
      <point x="269" y="-170" type="curve"/>
      <point x="256" y="-159" type="line"/>
      <point x="245" y="-171"/>
      <point x="227" y="-184"/>
      <point x="199" y="-184" type="curve" smooth="yes"/>
      <point x="174" y="-184"/>
      <point x="153" y="-169"/>
      <point x="153" y="-140" type="curve" smooth="yes"/>
      <point x="153" y="-84"/>
      <point x="192" y="-53"/>
      <point x="276" y="-3" type="curve" smooth="yes"/>
      <point x="325" y="26"/>
      <point x="364" y="58"/>
      <point x="397" y="125" type="curve"/>
      <point x="380" y="133" type="line"/>
      <point x="340" y="55"/>
      <point x="292" y="7"/>
      <point x="214" y="7" type="curve" smooth="yes"/>
      <point x="117" y="7"/>
      <point x="73" y="64"/>
      <point x="73" y="189" type="curve" smooth="yes"/>
      <point x="73" y="200"/>
      <point x="74" y="219"/>
      <point x="76" y="233" type="curve"/>
      <point x="381" y="239"/>
      <point x="422" y="325"/>
      <point x="422" y="397" type="curve" smooth="yes"/>
      <point x="422" y="472"/>
      <point x="369" y="518"/>
      <point x="286" y="518" type="curve" smooth="yes"/>
      <point x="171" y="518"/>
      <point x="89" y="423"/>
      <point x="62" y="287" type="curve" smooth="yes"/>
      <point x="56" y="256"/>
      <point x="52" y="222"/>
      <point x="52" y="187" type="curve" smooth="yes"/>
      <point x="52" y="51"/>
      <point x="107" y="-12"/>
      <point x="214" y="-12" type="curve" smooth="yes"/>
      <point x="220" y="-12"/>
      <point x="228" y="-12"/>
      <point x="239" y="-10" type="curve"/>
      <point x="240" y="-14" type="line"/>
      <point x="164" y="-54"/>
      <point x="132" y="-90"/>
      <point x="132" y="-140" type="curve" smooth="yes"/>
      <point x="132" y="-182"/>
      <point x="162" y="-202"/>
    </contour>
    <contour>
      <point x="284" y="499" type="curve" smooth="yes"/>
      <point x="364" y="499"/>
      <point x="400" y="457"/>
      <point x="400" y="397" type="curve" smooth="yes"/>
      <point x="400" y="320"/>
      <point x="346" y="257"/>
      <point x="78" y="252" type="curve"/>
      <point x="81" y="270" type="line" smooth="yes"/>
      <point x="103" y="403"/>
      <point x="173" y="499"/>
    </contour>
  </outline>
</glyph>
<glyph name="Hbar" format="1">
  <advance width="615"/>
  <unicode hex="0126"/>
  <outline>
    <contour>
      <point x="447" y="0" type="line" name="hr00"/>
      <point x="469" y="0" type="line"/>
      <point x="576" y="537" type="line"/>
      <point x="652" y="537" type="line"/>
      <point x="656" y="556" type="line"/>
      <point x="580" y="556" type="line"/>
      <point x="609" y="698" type="line"/>
      <point x="587" y="698" type="line"/>
      <point x="558" y="556" type="line"/>
      <point x="177" y="556" type="line"/>
      <point x="206" y="698" type="line"/>
      <point x="184" y="698" type="line"/>
      <point x="155" y="556" type="line"/>
      <point x="81" y="556" type="line"/>
      <point x="77" y="537" type="line"/>
      <point x="151" y="537" type="line"/>
      <point x="44" y="0" type="line"/>
      <point x="66" y="0" type="line"/>
      <point x="135" y="344" type="line"/>
      <point x="516" y="344" type="line"/>
    </contour>
    <contour>
      <point x="139" y="364" type="line"/>
      <point x="173" y="537" type="line"/>
      <point x="554" y="537" type="line"/>
      <point x="520" y="364" type="line"/>
    </contour>
  </outline>
</glyph>
<glyph name="imacron" format="1">
  <advance width="214"/>
  <unicode hex="012B"/>
  <outline>
    <component base="dotlessi"/>
    <component base="macron.alt01" xOffset="-111"/>
    <contour>
      <point x="89.0" y="0.0" type="move" name="bottom"/>
    </contour>
    <contour>
      <point x="138.0" y="0.0" type="move" name="bottomright"/>
    </contour>
  </outline>
</glyph>
<glyph name="Iogonek" format="1">
  <advance width="330"/>
  <unicode hex="012E"/>
  <outline>
    <contour>
      <point x="7" y="0" type="line" name="hr00"/>
      <point x="196" y="0" type="line"/>
      <point x="195" y="-4" type="line"/>
      <point x="97" y="-58"/>
      <point x="73" y="-92"/>
      <point x="73" y="-140" type="curve" smooth="yes"/>
      <point x="73" y="-182"/>
      <point x="103" y="-202"/>
      <point x="140" y="-202" type="curve" smooth="yes"/>
      <point x="170" y="-202"/>
      <point x="195" y="-188"/>
      <point x="210" y="-170" type="curve"/>
      <point x="197" y="-159" type="line"/>
      <point x="186" y="-171"/>
      <point x="168" y="-184"/>
      <point x="140" y="-184" type="curve" smooth="yes"/>
      <point x="115" y="-184"/>
      <point x="94" y="-169"/>
      <point x="94" y="-140" type="curve" smooth="yes"/>
      <point x="94" y="-85"/>
      <point x="131" y="-56"/>
      <point x="221" y="0" type="curve"/>
      <point x="225" y="19" type="line"/>
      <point x="129" y="19" type="line"/>
      <point x="261" y="679" type="line"/>
      <point x="357" y="679" type="line"/>
      <point x="361" y="698" type="line"/>
      <point x="147" y="698" type="line"/>
      <point x="143" y="679" type="line"/>
      <point x="239" y="679" type="line"/>
      <point x="107" y="19" type="line"/>
      <point x="11" y="19" type="line"/>
    </contour>
  </outline>
</glyph>
<glyph name="dotlessi" format="1">
  <advance width="214"/>
  <unicode hex="0131"/>
  <outline>
    <contour>
      <point x="138" y="0" type="line" name="hr00"/>
      <point x="142" y="19" type="line"/>
      <point x="66" y="19" type="line"/>
      <point x="163" y="506" type="line"/>
      <point x="142" y="506" type="line"/>
      <point x="47" y="31" type="line" smooth="yes"/>
      <point x="46" y="26"/>
      <point x="45" y="20"/>
      <point x="45" y="15" type="curve" smooth="yes"/>
      <point x="45" y="4"/>
      <point x="55" y="0"/>
      <point x="68" y="0" type="curve" smooth="yes"/>
    </contour>
    <contour>
      <point x="87" y="0" type="move" name="bottom"/>
    </contour>
    <contour>
      <point x="138" y="0" type="move" name="bottomright"/>
    </contour>
    <contour>
      <point x="159" y="540" type="move" name="top"/>
    </contour>
  </outline>
</glyph>
<glyph name="IJ" format="1">
  <advance width="563"/>
  <unicode hex="0132"/>
  <outline>
    <contour>
      <point x="365" y="698" type="line" name="hr00"/>
      <point x="361" y="678" type="line"/>
      <point x="537" y="678" type="line"/>
      <point x="442" y="204" type="line" smooth="yes"/>
      <point x="417" y="78"/>
      <point x="355" y="8"/>
      <point x="239" y="8" type="curve" smooth="yes"/>
      <point x="150" y="8"/>
      <point x="85" y="49"/>
      <point x="79" y="139" type="curve"/>
      <point x="59" y="134" type="line"/>
      <point x="65" y="46"/>
      <point x="132" y="-12"/>
      <point x="237" y="-12" type="curve" smooth="yes"/>
      <point x="368" y="-12"/>
      <point x="436" y="64"/>
      <point x="464" y="203" type="curve" smooth="yes"/>
      <point x="563" y="698" type="line"/>
    </contour>
    <contour>
      <point x="93" y="290" type="line"/>
      <point x="115" y="290" type="line"/>
      <point x="196" y="698" type="line"/>
      <point x="174" y="698" type="line"/>
    </contour>
  </outline>
</glyph>
<glyph name="Lcaron" format="1">
  <advance width="427"/>
  <unicode hex="013D"/>
  <outline>
    <component base="L"/>
    <component base="caronslovak" xOffset="20"/>
    <contour>
      <point x="206.0" y="0.0" type="move" name="bottom"/>
    </contour>
    <contour>
      <point x="195.0" y="698.0" type="move" name="top"/>
    </contour>
  </outline>
</glyph>
<glyph name="Ldot" format="1">
  <advance width="427"/>
  <unicode hex="013F"/>
  <outline>
    <component base="L"/>
    <component base="dotaccent" xOffset="16" yOffset="-369"/>
    <contour>
      <point x="206.0" y="0.0" type="move" name="bottom"/>
    </contour>
    <contour>
      <point x="290.0" y="740.0" type="move" name="topright"/>
    </contour>
  </outline>
</glyph>
<glyph name="Lslash" format="1">
  <advance width="427"/>
  <unicode hex="0141"/>
  <outline>
    <contour>
      <point x="363" y="20" type="line" name="hr00"/>
      <point x="70" y="20" type="line"/>
      <point x="128" y="307" type="line"/>
      <point x="316" y="373" type="line"/>
      <point x="320" y="395" type="line"/>
      <point x="132" y="328" type="line"/>
      <point x="206" y="698" type="line"/>
      <point x="184" y="698" type="line"/>
      <point x="108" y="320" type="line"/>
      <point x="21" y="289" type="line"/>
      <point x="17" y="269" type="line"/>
      <point x="104" y="299" type="line"/>
      <point x="44" y="0" type="line"/>
      <point x="359" y="0" type="line"/>
    </contour>
  </outline>
</glyph>
<glyph name="lslash" format="1">
  <advance width="213"/>
  <unicode hex="0142"/>
  <outline>
    <contour>
      <point x="141" y="19" type="line" name="hr00"/>
      <point x="65" y="19" type="line"/>
      <point x="133" y="358" type="line"/>
      <point x="219" y="387" type="line"/>
      <point x="223" y="409" type="line"/>
      <point x="137" y="380" type="line"/>
      <point x="209" y="740" type="line"/>
      <point x="188" y="740" type="line"/>
      <point x="114" y="372" type="line"/>
      <point x="50" y="350" type="line"/>
      <point x="46" y="328" type="line"/>
      <point x="110" y="350" type="line"/>
      <point x="46" y="31" type="line" smooth="yes"/>
      <point x="45" y="26"/>
      <point x="44" y="20"/>
      <point x="44" y="15" type="curve" smooth="yes"/>
      <point x="44" y="4"/>
      <point x="54" y="0"/>
      <point x="67" y="0" type="curve" smooth="yes"/>
      <point x="137" y="0" type="line"/>
    </contour>
  </outline>
</glyph>
<glyph name="Eng" format="1">
  <advance width="613"/>
  <unicode hex="014A"/>
  <outline>
    <contour>
      <point x="65" y="0" type="line" name="hr00"/>
      <point x="177" y="559" type="line"/>
      <point x="199" y="678" type="line"/>
      <point x="203" y="678" type="line"/>
      <point x="239" y="567" type="line"/>
      <point x="434" y="0" type="line"/>
      <point x="445" y="0" type="line"/>
      <point x="409" y="-181" type="line"/>
      <point x="332" y="-181" type="line"/>
      <point x="328" y="-200" type="line"/>
      <point x="401" y="-200" type="line" smooth="yes"/>
      <point x="421" y="-200"/>
      <point x="427" y="-196"/>
      <point x="431" y="-176" type="curve" smooth="yes"/>
      <point x="607" y="698" type="line"/>
      <point x="586" y="698" type="line"/>
      <point x="474" y="139" type="line"/>
      <point x="452" y="20" type="line"/>
      <point x="448" y="20" type="line"/>
      <point x="412" y="131" type="line"/>
      <point x="217" y="698" type="line"/>
      <point x="184" y="698" type="line"/>
      <point x="44" y="0" type="line"/>
    </contour>
  </outline>
</glyph>
<glyph name="eng" format="1">
  <advance width="495"/>
  <unicode hex="014B"/>
  <outline>
    <contour>
      <point x="217" y="-181" type="line"/>
      <point x="213" y="-200" type="line"/>
      <point x="282" y="-200" type="line" smooth="yes"/>
      <point x="305" y="-200"/>
      <point x="312" y="-194"/>
      <point x="316" y="-172" type="curve" smooth="yes"/>
      <point x="414" y="319" type="line" smooth="yes"/>
      <point x="419" y="344"/>
      <point x="422" y="372"/>
      <point x="422" y="396" type="curve" smooth="yes"/>
      <point x="422" y="473"/>
      <point x="383" y="518"/>
      <point x="306" y="518" type="curve" smooth="yes"/>
      <point x="232" y="518"/>
      <point x="180" y="477"/>
      <point x="148" y="401" type="curve"/>
      <point x="142" y="401" type="line"/>
      <point x="163" y="506" type="line" name="hr01"/>
      <point x="142" y="506" type="line"/>
      <point x="41" y="0" type="line"/>
      <point x="62" y="0" type="line"/>
      <point x="121" y="297" type="line" smooth="yes"/>
      <point x="135" y="369"/>
      <point x="159" y="404"/>
      <point x="181" y="434" type="curve" smooth="yes"/>
      <point x="214" y="479"/>
      <point x="257" y="499"/>
      <point x="303" y="499" type="curve" smooth="yes" name="hr02"/>
      <point x="370" y="499"/>
      <point x="401" y="461"/>
      <point x="401" y="393" type="curve" smooth="yes"/>
      <point x="401" y="378"/>
      <point x="398" y="346"/>
      <point x="393" y="319" type="curve" smooth="yes"/>
      <point x="293" y="-181" type="line"/>
    </contour>
  </outline>
</glyph>
<glyph name="OE" format="1">
  <advance width="836"/>
  <unicode hex="0152"/>
  <outline>
    <contour>
      <point x="721" y="0" type="line"/>
      <point x="725" y="20" type="line"/>
      <point x="405" y="20" type="line"/>
      <point x="470" y="344" type="line"/>
      <point x="777" y="344" type="line"/>
      <point x="781" y="364" type="line"/>
      <point x="474" y="364" type="line"/>
      <point x="537" y="678" type="line"/>
      <point x="855" y="678" type="line"/>
      <point x="859" y="698" type="line"/>
      <point x="519" y="698" type="line"/>
      <point x="488" y="705"/>
      <point x="437" y="710"/>
      <point x="396" y="710" type="curve" smooth="yes" name="hr01"/>
      <point x="174" y="710"/>
      <point x="96" y="512"/>
      <point x="71" y="360" type="curve" smooth="yes"/>
      <point x="63" y="311"/>
      <point x="60" y="266"/>
      <point x="60" y="235" type="curve" smooth="yes"/>
      <point x="60" y="70"/>
      <point x="144" y="-12"/>
      <point x="274" y="-12" type="curve" smooth="yes"/>
      <point x="306" y="-12"/>
      <point x="351" y="-10"/>
      <point x="382" y="0" type="curve" name="hr02"/>
    </contour>
    <contour>
      <point x="275" y="8" type="curve" smooth="yes" name="hr03"/>
      <point x="152" y="8"/>
      <point x="82" y="88"/>
      <point x="82" y="235" type="curve" smooth="yes"/>
      <point x="82" y="261"/>
      <point x="85" y="303"/>
      <point x="91" y="335" type="curve" smooth="yes"/>
      <point x="102" y="394" type="line" smooth="yes"/>
      <point x="134" y="568"/>
      <point x="235" y="690"/>
      <point x="393" y="690" type="curve" smooth="yes"/>
      <point x="437" y="690"/>
      <point x="488" y="684"/>
      <point x="515" y="677" type="curve"/>
      <point x="383" y="22" type="line"/>
      <point x="351" y="8"/>
      <point x="306" y="8"/>
    </contour>
  </outline>
</glyph>
<glyph name="oe" format="1">
  <advance width="804"/>
  <unicode hex="0153"/>
  <outline>
    <contour>
      <point x="205" y="7" type="curve" smooth="yes" name="hr00"/>
      <point x="113" y="7"/>
      <point x="72" y="68"/>
      <point x="72" y="167" type="curve" smooth="yes"/>
      <point x="72" y="193"/>
      <point x="74" y="217"/>
      <point x="78" y="239" type="curve" smooth="yes"/>
      <point x="85" y="279" type="line" smooth="yes"/>
      <point x="109" y="414"/>
      <point x="173" y="499"/>
      <point x="279" y="499" type="curve" smooth="yes"/>
      <point x="371" y="499"/>
      <point x="412" y="438"/>
      <point x="412" y="339" type="curve" smooth="yes"/>
      <point x="412" y="313"/>
      <point x="410" y="289"/>
      <point x="406" y="267" type="curve" smooth="yes"/>
      <point x="399" y="227" type="line" smooth="yes"/>
      <point x="375" y="92"/>
      <point x="311" y="7"/>
    </contour>
    <contour>
      <point x="632" y="499" type="curve" smooth="yes"/>
      <point x="712" y="499"/>
      <point x="748" y="457"/>
      <point x="748" y="397" type="curve" smooth="yes"/>
      <point x="748" y="320"/>
      <point x="694" y="257"/>
      <point x="426" y="252" type="curve"/>
      <point x="429" y="270" type="line" smooth="yes"/>
      <point x="451" y="403"/>
      <point x="521" y="499"/>
    </contour>
    <contour>
      <point x="562" y="-12" type="curve" smooth="yes"/>
      <point x="642" y="-12"/>
      <point x="698" y="30"/>
      <point x="745" y="125" type="curve"/>
      <point x="728" y="133" type="line"/>
      <point x="688" y="55"/>
      <point x="640" y="7"/>
      <point x="562" y="7" type="curve" smooth="yes"/>
      <point x="465" y="7"/>
      <point x="421" y="64"/>
      <point x="421" y="189" type="curve" smooth="yes"/>
      <point x="421" y="200"/>
      <point x="422" y="219"/>
      <point x="424" y="233" type="curve"/>
      <point x="729" y="239"/>
      <point x="770" y="325"/>
      <point x="770" y="397" type="curve" smooth="yes"/>
      <point x="770" y="472"/>
      <point x="717" y="518"/>
      <point x="634" y="518" type="curve" smooth="yes"/>
      <point x="537" y="518"/>
      <point x="464" y="448"/>
      <point x="435" y="358" type="curve"/>
      <point x="429" y="358" type="line"/>
      <point x="427" y="455"/>
      <point x="373" y="518"/>
      <point x="281" y="518" type="curve" smooth="yes"/>
      <point x="163" y="518"/>
      <point x="91" y="419"/>
      <point x="64" y="287" type="curve" smooth="yes"/>
      <point x="56" y="248"/>
      <point x="52" y="209"/>
      <point x="52" y="167" type="curve" smooth="yes"/>
      <point x="52" y="56"/>
      <point x="107" y="-12"/>
      <point x="203" y="-12" type="curve" smooth="yes"/>
      <point x="301" y="-12"/>
      <point x="369" y="60"/>
      <point x="399" y="152" type="curve"/>
      <point x="405" y="152" type="line"/>
      <point x="408" y="45"/>
      <point x="464" y="-12"/>
    </contour>
  </outline>
</glyph>
